font.ufo
<glyph name="exclam" format="1">
  <advance width="287"/>
  <unicode hex="0021"/>
  <outline>
    <contour>
      <point x="211" y="229" type="line"/>
      <point x="224" y="722" type="line"/>
      <point x="64" y="722" type="line"/>
      <point x="76" y="229" type="line"/>
    </contour>
    <contour>
      <point x="222" y="62" type="curve"/>
      <point x="222" y="110"/>
      <point x="188" y="134"/>
      <point x="142" y="134" type="curve"/>
      <point x="96" y="134"/>
      <point x="66" y="108"/>
      <point x="66" y="62" type="curve"/>
      <point x="222" y="62"/>
      <point x="66" y="62"/>
      <point x="222" y="62" type="curve"/>
      <point x="222" y="13"/>
      <point x="189" y="-9"/>
      <point x="142" y="-9" type="curve"/>
      <point x="95" y="-9"/>
      <point x="66" y="15"/>
      <point x="66" y="62" type="curve"/>
      <point x="222" y="62"/>
      <point x="66" y="62"/>
    </contour>
  </outline>
</glyph>
<glyph name="quotedbl" format="1">
  <advance width="457"/>
  <unicode hex="0022"/>
  <outline>
    <contour>
      <point x="194" y="622" type="line"/>
      <point x="203" y="844" type="line"/>
      <point x="53" y="844" type="line"/>
      <point x="63" y="622" type="line"/>
    </contour>
    <contour>
      <point x="395" y="622" type="line"/>
      <point x="404" y="844" type="line"/>
      <point x="254" y="844" type="line"/>
      <point x="264" y="622" type="line"/>
    </contour>
  </outline>
</glyph>
<glyph name="numbersign" format="1">
  <advance width="658"/>
  <unicode hex="0023"/>
  <outline>
    <contour>
      <point x="42" y="217" type="line"/>
      <point x="523" y="217" type="line"/>
      <point x="557" y="328" type="line"/>
      <point x="76" y="328" type="line"/>
    </contour>
    <contour>
      <point x="100" y="429" type="line"/>
      <point x="584" y="429" type="line"/>
      <point x="617" y="540" type="line"/>
      <point x="132" y="540" type="line"/>
    </contour>
    <contour>
      <point x="427" y="39" type="line"/>
      <point x="621" y="722" type="line"/>
      <point x="476" y="722" type="line"/>
      <point x="282" y="39" type="line"/>
    </contour>
    <contour>
      <point x="180" y="46" type="line"/>
      <point x="372" y="722" type="line"/>
      <point x="228" y="722" type="line"/>
      <point x="41" y="46" type="line"/>
    </contour>
  </outline>
</glyph>
<glyph name="dollar" format="1">
  <advance width="574"/>
  <unicode hex="0024"/>
  <outline>
    <contour>
      <point x="175" y="91" type="curve"/>
      <point x="175" y="211"/>
      <point x="175" y="99"/>
      <point x="175" y="219" type="curve"/>
      <point x="63" y="219"/>
      <point x="175" y="219"/>
      <point x="63" y="219" type="curve"/>
      <point x="63" y="99"/>
      <point x="63" y="211"/>
      <point x="63" y="91" type="curve"/>
      <point x="175" y="91"/>
      <point x="63" y="91"/>
    </contour>
    <contour>
      <point x="378" y="636" type="curve"/>
      <point x="378" y="516"/>
      <point x="378" y="628"/>
      <point x="378" y="508" type="curve"/>
      <point x="491" y="508"/>
      <point x="378" y="508"/>
      <point x="491" y="508" type="curve"/>
      <point x="491" y="628"/>
      <point x="491" y="516"/>
      <point x="491" y="636" type="curve"/>
      <point x="378" y="636"/>
      <point x="491" y="636"/>
    </contour>
    <contour>
      <point x="345" y="-41" type="curve"/>
      <point x="345" y="-11"/>
      <point x="345" y="67"/>
      <point x="345" y="97" type="curve"/>
      <point x="199" y="97"/>
      <point x="345" y="97"/>
      <point x="199" y="97" type="curve"/>
      <point x="199" y="67"/>
      <point x="199" y="-11"/>
      <point x="199" y="-41" type="curve"/>
      <point x="345" y="-41"/>
      <point x="199" y="-41"/>
    </contour>
    <contour>
      <point x="355" y="632" type="curve"/>
      <point x="355" y="662"/>
      <point x="355" y="743"/>
      <point x="355" y="773" type="curve"/>
      <point x="210" y="773"/>
      <point x="355" y="773"/>
      <point x="210" y="773" type="curve"/>
      <point x="210" y="743"/>
      <point x="210" y="662"/>
      <point x="210" y="632" type="curve"/>
      <point x="355" y="632"/>
      <point x="210" y="632"/>
    </contour>
    <contour>
      <point x="63" y="91" type="curve"/>
      <point x="120" y="63"/>
      <point x="188" y="42"/>
      <point x="265" y="42" type="curve"/>
      <point x="417" y="42"/>
      <point x="537" y="99"/>
      <point x="537" y="222" type="curve"/>
      <point x="537" y="326"/>
      <point x="438" y="376"/>
      <point x="327" y="423" type="curve"/>
      <point x="263" y="451"/>
      <point x="202" y="467"/>
      <point x="202" y="519" type="curve"/>
      <point x="202" y="558"/>
      <point x="237" y="578"/>
      <point x="284" y="578" type="curve"/>
      <point x="336" y="578"/>
      <point x="373" y="566"/>
      <point x="419" y="542" type="curve"/>
      <point x="491" y="636"/>
      <point x="419" y="542"/>
      <point x="491" y="636" type="curve"/>
      <point x="425" y="670"/>
      <point x="369" y="688"/>
      <point x="290" y="688" type="curve"/>
      <point x="157" y="688"/>
      <point x="57" y="631"/>
      <point x="57" y="519" type="curve"/>
      <point x="57" y="418"/>
      <point x="135" y="368"/>
      <point x="242" y="323" type="curve"/>
      <point x="313" y="295"/>
      <point x="391" y="276"/>
      <point x="391" y="216" type="curve"/>
      <point x="391" y="168"/>
      <point x="340" y="152"/>
      <point x="279" y="152" type="curve"/>
      <point x="225" y="152"/>
      <point x="180" y="172"/>
      <point x="142" y="190" type="curve"/>
      <point x="63" y="91"/>
      <point x="142" y="191"/>
    </contour>
  </outline>
</glyph>
<glyph name="percent" format="1">
  <advance width="1106"/>
  <unicode hex="0025"/>
  <outline>
    <contour>
      <point x="432" y="-35" type="line"/>
      <point x="814" y="707" type="line"/>
      <point x="682" y="707" type="line"/>
      <point x="300" y="-35" type="line"/>
    </contour>
    <contour>
      <point x="162" y="491" type="curve"/>
      <point x="162" y="557"/>
      <point x="184" y="607"/>
      <point x="244" y="607" type="curve"/>
      <point x="306" y="608"/>
      <point x="328" y="557"/>
      <point x="328" y="489" type="curve"/>
      <point x="328" y="423"/>
      <point x="311" y="369"/>
      <point x="252" y="369" type="curve"/>
      <point x="187" y="369"/>
      <point x="162" y="421"/>
      <point x="162" y="491" type="curve"/>
      <point x="116" y="491"/>
      <point x="83" y="491"/>
      <point x="36" y="491" type="curve"/>
      <point x="36" y="356"/>
      <point x="113" y="267"/>
      <point x="245" y="267" type="curve"/>
      <point x="380" y="267"/>
      <point x="461" y="356"/>
      <point x="461" y="494" type="curve"/>
      <point x="461" y="627"/>
      <point x="381" y="710"/>
      <point x="251" y="709" type="curve"/>
      <point x="117" y="709"/>
      <point x="36" y="625"/>
      <point x="36" y="491" type="curve"/>
      <point x="83" y="491"/>
      <point x="116" y="491"/>
    </contour>
    <contour>
      <point x="772" y="186" type="curve"/>
      <point x="772" y="252"/>
      <point x="794" y="303"/>
      <point x="854" y="303" type="curve"/>
      <point x="915" y="304"/>
      <point x="937" y="252"/>
      <point x="937" y="184" type="curve"/>
      <point x="937" y="119"/>
      <point x="920" y="65"/>
      <point x="861" y="65" type="curve"/>
      <point x="797" y="65"/>
      <point x="772" y="117"/>
      <point x="772" y="186" type="curve"/>
      <point x="725" y="186"/>
      <point x="693" y="186"/>
      <point x="646" y="186" type="curve"/>
      <point x="646" y="51"/>
      <point x="723" y="-37"/>
      <point x="855" y="-37" type="curve"/>
      <point x="990" y="-37"/>
      <point x="1070" y="52"/>
      <point x="1070" y="190" type="curve"/>
      <point x="1070" y="323"/>
      <point x="991" y="405"/>
      <point x="860" y="405" type="curve"/>
      <point x="727" y="405"/>
      <point x="646" y="321"/>
      <point x="646" y="186" type="curve"/>
      <point x="693" y="186"/>
      <point x="725" y="186"/>
    </contour>
  </outline>
</glyph>
<glyph name="ampersand" format="1">
  <advance width="683"/>
  <unicode hex="0026"/>
  <outline>
    <contour>
      <point x="661" y="55" type="line"/>
      <point x="572" y="149"/>
      <point x="463" y="278"/>
      <point x="369" y="378" type="curve"/>
      <point x="320" y="432"/>
      <point x="251" y="473"/>
      <point x="251" y="549" type="curve"/>
      <point x="251" y="585"/>
      <point x="264" y="617"/>
      <point x="299" y="617" type="curve"/>
      <point x="337" y="617"/>
      <point x="355" y="590"/>
      <point x="355" y="551" type="curve"/>
      <point x="354" y="485"/>
      <point x="308" y="453"/>
      <point x="249" y="420" type="curve"/>
      <point x="148" y="361"/>
      <point x="52" y="315"/>
      <point x="52" y="201" type="curve"/>
      <point x="52" y="69"/>
      <point x="155" y="-5"/>
      <point x="293" y="-5" type="curve"/>
      <point x="481" y="-5"/>
      <point x="586" y="127"/>
      <point x="645" y="312" type="curve"/>
      <point x="520" y="340"/>
      <point x="645" y="312"/>
      <point x="520" y="340" type="curve"/>
      <point x="478" y="212"/>
      <point x="427" y="106"/>
      <point x="300" y="106" type="curve"/>
      <point x="238" y="106"/>
      <point x="198" y="140"/>
      <point x="198" y="201" type="curve"/>
      <point x="198" y="268"/>
      <point x="249" y="297"/>
      <point x="309" y="332" type="curve"/>
      <point x="408" y="390"/>
      <point x="499" y="439"/>
      <point x="500" y="551" type="curve"/>
      <point x="500" y="662"/>
      <point x="417" y="727"/>
      <point x="304" y="727" type="curve"/>
      <point x="192" y="727"/>
      <point x="113" y="660"/>
      <point x="113" y="549" type="curve"/>
      <point x="113" y="445"/>
      <point x="195" y="386"/>
      <point x="268" y="312" type="curve"/>
      <point x="357" y="213"/>
      <point x="480" y="74"/>
      <point x="565" y="-19" type="curve"/>
    </contour>
  </outline>
</glyph>
<glyph name="quotesingle" format="1">
  <advance width="256"/>
  <unicode hex="0027"/>
  <outline>
    <contour>
      <point x="194" y="622" type="line"/>
      <point x="203" y="844" type="line"/>
      <point x="53" y="844" type="line"/>
      <point x="63" y="622" type="line"/>
    </contour>
  </outline>
</glyph>
<glyph name="parenleft" format="1">
  <advance width="376"/>
  <unicode hex="0028"/>
  <outline>
    <contour>
      <point x="373" y="-204" type="curve"/>
      <point x="231" y="-43"/>
      <point x="181" y="110"/>
      <point x="181" y="326" type="curve"/>
      <point x="181" y="543"/>
      <point x="231" y="696"/>
      <point x="372" y="860" type="curve"/>
      <point x="286" y="931"/>
      <point x="372" y="860"/>
      <point x="286" y="931" type="curve"/>
      <point x="120" y="745"/>
      <point x="39" y="579"/>
      <point x="39" y="326" type="curve"/>
      <point x="39" y="72"/>
      <point x="120" y="-94"/>
      <point x="287" y="-282" type="curve"/>
      <point x="373" y="-204"/>
      <point x="287" y="-282"/>
    </contour>
  </outline>
</glyph>
<glyph name="parenright" format="1">
  <advance width="380"/>
  <unicode hex="0029"/>
  <outline>
    <contour>
      <point x="81" y="-295" type="curve"/>
      <point x="250" y="-100"/>
      <point x="340" y="68"/>
      <point x="340" y="329" type="curve"/>
      <point x="340" y="584"/>
      <point x="257" y="749"/>
      <point x="84" y="934" type="curve"/>
      <point x="-2" y="856"/>
      <point x="84" y="934"/>
      <point x="-2" y="856" type="curve"/>
      <point x="144" y="694"/>
      <point x="199" y="542"/>
      <point x="199" y="324" type="curve"/>
      <point x="199" y="101"/>
      <point x="136" y="-52"/>
      <point x="-5" y="-224" type="curve"/>
      <point x="81" y="-295"/>
      <point x="-5" y="-224"/>
    </contour>
  </outline>
</glyph>
<glyph name="asterisk" format="1">
  <advance width="544"/>
  <unicode hex="002A"/>
  <outline>
    <contour>
      <point x="318" y="559" type="line"/>
      <point x="325" y="781" type="line"/>
      <point x="219" y="781" type="line"/>
      <point x="226" y="559" type="line"/>
    </contour>
    <contour>
      <point x="288" y="515" type="line"/>
      <point x="499" y="585" type="line"/>
      <point x="463" y="684" type="line"/>
      <point x="257" y="602" type="line"/>
    </contour>
    <contour>
      <point x="238" y="528" type="line"/>
      <point x="375" y="354" type="line"/>
      <point x="456" y="422" type="line"/>
      <point x="308" y="587" type="line"/>
    </contour>
    <contour>
      <point x="237" y="587" type="line"/>
      <point x="90" y="422" type="line"/>
      <point x="169" y="354" type="line"/>
      <point x="307" y="529" type="line"/>
    </contour>
    <contour>
      <point x="288" y="602" type="line"/>
      <point x="81" y="683" type="line"/>
      <point x="45" y="585" type="line"/>
      <point x="256" y="515" type="line"/>
    </contour>
  </outline>
</glyph>
<glyph name="plus" format="1">
  <advance width="633"/>
  <unicode hex="002B"/>
  <outline>
    <contour>
      <point x="39" y="254" type="curve"/>
      <point x="594" y="254" type="line"/>
      <point x="594" y="375"/>
      <point x="594" y="254"/>
      <point x="594" y="375" type="curve"/>
      <point x="39" y="375" type="line"/>
      <point x="39" y="254"/>
      <point x="39" y="375"/>
    </contour>
    <contour>
      <point x="386" y="46" type="curve"/>
      <point x="386" y="581" type="line"/>
      <point x="240" y="581"/>
      <point x="396" y="581"/>
      <point x="250" y="581" type="curve"/>
      <point x="250" y="46" type="line"/>
      <point x="396" y="46"/>
      <point x="240" y="46"/>
    </contour>
  </outline>
</glyph>
<glyph name="hyphen" format="1">
  <advance width="395"/>
  <unicode hex="002D"/>
  <outline>
    <contour>
      <point x="66" y="223" type="curve"/>
      <point x="153" y="223"/>
      <point x="240" y="223"/>
      <point x="327" y="223" type="curve"/>
      <point x="327" y="344"/>
      <point x="327" y="223"/>
      <point x="327" y="344" type="curve"/>
      <point x="240" y="344"/>
      <point x="153" y="344"/>
      <point x="66" y="344" type="curve"/>
      <point x="66" y="223"/>
      <point x="66" y="344"/>
    </contour>
  </outline>
</glyph>
<glyph name="period" format="1">
  <advance width="277"/>
  <unicode hex="002E"/>
  <outline>
    <contour>
      <point x="217" y="62" type="curve"/>
      <point x="217" y="110"/>
      <point x="183" y="134"/>
      <point x="137" y="134" type="curve"/>
      <point x="91" y="134"/>
      <point x="61" y="108"/>
      <point x="61" y="62" type="curve"/>
      <point x="217" y="62"/>
      <point x="61" y="62"/>
      <point x="217" y="62" type="curve"/>
      <point x="217" y="13"/>
      <point x="184" y="-9"/>
      <point x="137" y="-9" type="curve"/>
      <point x="90" y="-9"/>
      <point x="61" y="15"/>
      <point x="61" y="62" type="curve"/>
      <point x="217" y="62"/>
      <point x="61" y="62"/>
    </contour>
  </outline>
</glyph>
<glyph name="slash" format="1">
  <advance width="576"/>
  <unicode hex="002F"/>
  <outline>
    <contour>
      <point x="170" y="-13" type="curve"/>
      <point x="297" y="252"/>
      <point x="425" y="516"/>
      <point x="552" y="782" type="curve"/>
      <point x="406" y="782"/>
      <point x="552" y="782"/>
      <point x="406" y="782" type="curve"/>
      <point x="279" y="516"/>
      <point x="152" y="252"/>
      <point x="25" y="-13" type="curve"/>
      <point x="170" y="-13"/>
      <point x="25" y="-13"/>
    </contour>
  </outline>
</glyph>
<glyph name="zero" format="1">
  <advance width="726"/>
  <unicode hex="0030"/>
  <outline>
    <contour>
      <point x="195" y="360" type="curve"/>
      <point x="195" y="503"/>
      <point x="229" y="612"/>
      <point x="359" y="612" type="curve"/>
      <point x="488" y="612"/>
      <point x="531" y="507"/>
      <point x="531" y="363" type="curve"/>
      <point x="531" y="220"/>
      <point x="498" y="111"/>
      <point x="370" y="111" type="curve"/>
      <point x="239" y="111"/>
      <point x="195" y="216"/>
      <point x="195" y="360" type="curve"/>
      <point x="53" y="360"/>
      <point x="195" y="360"/>
      <point x="53" y="360" type="curve"/>
      <point x="53" y="142"/>
      <point x="155" y="-5"/>
      <point x="363" y="-5" type="curve"/>
      <point x="572" y="-5"/>
      <point x="673" y="142"/>
      <point x="673" y="363" type="curve"/>
      <point x="673" y="580"/>
      <point x="576" y="727"/>
      <point x="372" y="727" type="curve"/>
      <point x="160" y="727"/>
      <point x="53" y="581"/>
      <point x="53" y="360" type="curve"/>
      <point x="195" y="360"/>
      <point x="53" y="360"/>
    </contour>
  </outline>
</glyph>
<glyph name="one" format="1">
  <advance width="463"/>
  <unicode hex="0031"/>
  <outline>
    <contour>
      <point x="270" y="0" type="curve"/>
      <point x="320" y="0"/>
      <point x="371" y="0"/>
      <point x="422" y="0" type="curve"/>
      <point x="422" y="111"/>
      <point x="422" y="0"/>
      <point x="422" y="111" type="curve"/>
      <point x="270" y="111"/>
      <point x="422" y="111"/>
      <point x="270" y="111" type="curve"/>
      <point x="270" y="0"/>
      <point x="270" y="111"/>
    </contour>
    <contour>
      <point x="270" y="111" type="curve"/>
      <point x="118" y="111"/>
      <point x="270" y="111"/>
      <point x="118" y="111" type="curve"/>
      <point x="118" y="0"/>
      <point x="118" y="111"/>
      <point x="118" y="0" type="curve"/>
      <point x="169" y="0"/>
      <point x="219" y="0"/>
      <point x="270" y="0" type="curve"/>
      <point x="270" y="111"/>
      <point x="270" y="0"/>
    </contour>
    <contour>
      <point x="96" y="473" type="curve"/>
      <point x="302" y="648"/>
      <point x="96" y="473"/>
      <point x="302" y="648" type="curve"/>
      <point x="196" y="722"/>
      <point x="302" y="648"/>
      <point x="196" y="722" type="curve"/>
      <point x="18" y="567"/>
      <point x="196" y="722"/>
      <point x="18" y="567" type="curve"/>
      <point x="96" y="473"/>
      <point x="18" y="567"/>
    </contour>
    <contour>
      <point x="341" y="0" type="curve"/>
      <point x="341" y="241"/>
      <point x="341" y="481"/>
      <point x="341" y="722" type="curve"/>
      <point x="196" y="722"/>
      <point x="341" y="722"/>
      <point x="196" y="722" type="curve"/>
      <point x="196" y="481"/>
      <point x="196" y="241"/>
      <point x="196" y="0" type="curve"/>
      <point x="341" y="0"/>
      <point x="196" y="0"/>
    </contour>
  </outline>
</glyph>
<glyph name="two" format="1">
  <advance width="609"/>
  <unicode hex="0032"/>
  <outline>
    <contour>
      <point x="551" y="110" type="curve"/>
      <point x="551" y="213"/>
      <point x="551" y="98"/>
      <point x="551" y="201" type="curve"/>
      <point x="437" y="201"/>
      <point x="551" y="201"/>
      <point x="437" y="201" type="curve"/>
      <point x="437" y="98"/>
      <point x="437" y="213"/>
      <point x="437" y="110" type="curve"/>
      <point x="551" y="110"/>
      <point x="437" y="110"/>
    </contour>
    <contour>
      <point x="48" y="0" type="curve"/>
      <point x="249" y="0"/>
      <point x="422" y="0"/>
      <point x="551" y="0" type="curve"/>
      <point x="551" y="110"/>
      <point x="551" y="0"/>
      <point x="551" y="110" type="curve"/>
      <point x="398" y="110"/>
      <point x="203" y="111"/>
      <point x="49" y="111" type="curve"/>
      <point x="48" y="0"/>
      <point x="49" y="110"/>
    </contour>
    <contour>
      <point x="148" y="515" type="curve"/>
      <point x="190" y="572"/>
      <point x="218" y="612"/>
      <point x="280" y="612" type="curve"/>
      <point x="343" y="612"/>
      <point x="374" y="571"/>
      <point x="374" y="502" type="curve"/>
      <point x="374" y="408"/>
      <point x="318" y="349"/>
      <point x="244" y="284" type="curve"/>
      <point x="179" y="225"/>
      <point x="117" y="170"/>
      <point x="49" y="111" type="curve"/>
      <point x="48" y="0"/>
      <point x="49" y="110"/>
      <point x="48" y="0" type="curve"/>
      <point x="192" y="57"/>
      <point x="262" y="133"/>
      <point x="335" y="201" type="curve"/>
      <point x="439" y="292"/>
      <point x="508" y="368"/>
      <point x="508" y="508" type="curve"/>
      <point x="508" y="649"/>
      <point x="426" y="727"/>
      <point x="286" y="727" type="curve"/>
      <point x="176" y="727"/>
      <point x="97" y="672"/>
      <point x="49" y="576" type="curve"/>
      <point x="148" y="515"/>
      <point x="49" y="576"/>
    </contour>
  </outline>
</glyph>
<glyph name="three" format="1">
  <advance width="546"/>
  <unicode hex="0033"/>
  <outline>
    <contour>
      <point x="41" y="58" type="curve"/>
      <point x="95" y="20"/>
      <point x="153" y="-5"/>
      <point x="231" y="-5" type="curve"/>
      <point x="388" y="-5"/>
      <point x="493" y="61"/>
      <point x="493" y="214" type="curve"/>
      <point x="493" y="346"/>
      <point x="358" y="411"/>
      <point x="157" y="411" type="curve"/>
      <point x="157" y="317"/>
      <point x="157" y="410"/>
      <point x="157" y="317" type="curve"/>
      <point x="264" y="317"/>
      <point x="355" y="280"/>
      <point x="355" y="209" type="curve"/>
      <point x="355" y="139"/>
      <point x="301" y="111"/>
      <point x="236" y="111" type="curve"/>
      <point x="195" y="111"/>
      <point x="155" y="122"/>
      <point x="115" y="145" type="curve"/>
      <point x="41" y="58"/>
      <point x="115" y="145"/>
    </contour>
    <contour>
      <point x="127" y="560" type="curve"/>
      <point x="148" y="584"/>
      <point x="185" y="612"/>
      <point x="228" y="612" type="curve"/>
      <point x="288" y="612"/>
      <point x="326" y="585"/>
      <point x="326" y="525" type="curve"/>
      <point x="326" y="462"/>
      <point x="251" y="428"/>
      <point x="157" y="428" type="curve"/>
      <point x="157" y="335"/>
      <point x="157" y="428"/>
      <point x="157" y="335" type="curve"/>
      <point x="331" y="335"/>
      <point x="464" y="399"/>
      <point x="464" y="529" type="curve"/>
      <point x="464" y="661"/>
      <point x="373" y="727"/>
      <point x="240" y="727" type="curve"/>
      <point x="154" y="727"/>
      <point x="77" y="685"/>
      <point x="41" y="636" type="curve"/>
      <point x="127" y="560"/>
      <point x="41" y="636"/>
    </contour>
  </outline>
</glyph>
<glyph name="four" format="1">
  <advance width="587"/>
  <unicode hex="0034"/>
  <outline>
    <contour>
      <point x="374" y="110" type="line"/>
      <point x="241" y="110" type="line"/>
      <point x="241" y="0" type="line"/>
      <point x="374" y="0" type="line"/>
    </contour>
    <contour>
      <point x="374" y="0" type="line"/>
      <point x="509" y="0" type="line"/>
      <point x="509" y="110" type="line"/>
      <point x="374" y="110" type="line"/>
    </contour>
    <contour>
      <point x="88" y="245" type="line"/>
      <point x="420" y="680" type="line"/>
      <point x="303" y="697" type="line"/>
      <point x="32" y="348" type="line"/>
    </contour>
    <contour>
      <point x="552" y="348" type="line"/>
      <point x="32" y="348" type="line"/>
      <point x="33" y="226" type="line"/>
      <point x="552" y="226" type="line"/>
    </contour>
    <contour>
      <point x="448" y="47" type="line"/>
      <point x="448" y="697" type="line"/>
      <point x="305" y="697" type="line"/>
      <point x="305" y="47" type="line"/>
    </contour>
  </outline>
</glyph>
<glyph name="five" format="1">
  <advance width="541"/>
  <unicode hex="0035"/>
  <outline>
    <contour>
      <point x="64" y="722" type="curve"/>
      <point x="64" y="626"/>
      <point x="64" y="517"/>
      <point x="64" y="377" type="curve"/>
      <point x="202" y="336"/>
      <point x="64" y="377"/>
      <point x="202" y="336" type="curve"/>
      <point x="202" y="424"/>
      <point x="202" y="525"/>
      <point x="202" y="612" type="curve"/>
      <point x="64" y="722"/>
      <point x="202" y="612"/>
    </contour>
    <contour>
      <point x="202" y="336" type="curve"/>
      <point x="216" y="354"/>
      <point x="237" y="365"/>
      <point x="260" y="365" type="curve"/>
      <point x="324" y="365"/>
      <point x="350" y="315"/>
      <point x="350" y="244" type="curve"/>
      <point x="350" y="169"/>
      <point x="305" y="110"/>
      <point x="234" y="110" type="curve"/>
      <point x="189" y="110"/>
      <point x="156" y="120"/>
      <point x="114" y="142" type="curve"/>
      <point x="45" y="43"/>
      <point x="114" y="142"/>
      <point x="45" y="43" type="curve"/>
      <point x="105" y="10"/>
      <point x="158" y="-5"/>
      <point x="227" y="-5" type="curve"/>
      <point x="379" y="-5"/>
      <point x="494" y="93"/>
      <point x="494" y="242" type="curve"/>
      <point x="494" y="385"/>
      <point x="413" y="483"/>
      <point x="277" y="483" type="curve"/>
      <point x="205" y="483"/>
      <point x="131" y="461"/>
      <point x="64" y="377" type="curve"/>
      <point x="202" y="336"/>
      <point x="64" y="377"/>
    </contour>
    <contour>
      <point x="463" y="722" type="curve"/>
      <point x="335" y="722"/>
      <point x="185" y="722"/>
      <point x="64" y="722" type="curve"/>
      <point x="202" y="612"/>
      <point x="64" y="722"/>
      <point x="202" y="612" type="curve"/>
      <point x="278" y="612"/>
      <point x="380" y="612"/>
      <point x="463" y="612" type="curve"/>
      <point x="463" y="722"/>
      <point x="463" y="612"/>
    </contour>
  </outline>
</glyph>
<glyph name="seven" format="1">
  <advance width="534"/>
  <unicode hex="0037"/>
  <outline>
    <contour>
      <point x="171" y="519" type="line"/>
      <point x="171" y="612" type="line"/>
      <point x="58" y="612" type="line"/>
      <point x="58" y="519" type="line"/>
    </contour>
    <contour>
      <point x="58" y="612" type="line"/>
      <point x="513" y="612" type="line"/>
      <point x="513" y="722" type="line"/>
      <point x="58" y="722" type="line"/>
    </contour>
    <contour>
      <point x="429" y="722" type="line"/>
      <point x="58" y="0" type="line"/>
      <point x="209" y="0" type="line"/>
      <point x="513" y="612" type="line"/>
    </contour>
  </outline>
</glyph>
<glyph name="eight" format="1">
  <advance width="601"/>
  <unicode hex="0038"/>
  <outline>
    <contour>
      <point x="72" y="536" type="curve"/>
      <point x="72" y="424"/>
      <point x="155" y="389"/>
      <point x="259" y="339" type="curve"/>
      <point x="336" y="300"/>
      <point x="399" y="274"/>
      <point x="399" y="194" type="curve"/>
      <point x="399" y="138"/>
      <point x="362" y="110"/>
      <point x="302" y="110" type="curve"/>
      <point x="239" y="110"/>
      <point x="201" y="137"/>
      <point x="201" y="194" type="curve"/>
      <point x="201" y="276"/>
      <point x="266" y="299"/>
      <point x="345" y="339" type="curve"/>
      <point x="445" y="390"/>
      <point x="528" y="425"/>
      <point x="528" y="535" type="curve"/>
      <point x="528" y="666"/>
      <point x="441" y="727"/>
      <point x="302" y="727" type="curve"/>
      <point x="165" y="727"/>
      <point x="72" y="665"/>
      <point x="72" y="536" type="curve"/>
      <point x="218" y="536"/>
      <point x="72" y="536"/>
      <point x="218" y="536" type="curve"/>
      <point x="218" y="584"/>
      <point x="246" y="613"/>
      <point x="297" y="613" type="curve"/>
      <point x="351" y="613"/>
      <point x="383" y="587"/>
      <point x="383" y="535" type="curve"/>
      <point x="383" y="466"/>
      <point x="324" y="448"/>
      <point x="257" y="416" type="curve"/>
      <point x="143" y="359"/>
      <point x="55" y="318"/>
      <point x="55" y="194" type="curve"/>
      <point x="55" y="58"/>
      <point x="151" y="-5"/>
      <point x="294" y="-5" type="curve"/>
      <point x="443" y="-5"/>
      <point x="545" y="55"/>
      <point x="545" y="194" type="curve"/>
      <point x="545" y="316"/>
      <point x="457" y="360"/>
      <point x="346" y="416" type="curve"/>
      <point x="278" y="451"/>
      <point x="218" y="467"/>
      <point x="218" y="536" type="curve"/>
      <point x="72" y="536"/>
      <point x="218" y="536"/>
    </contour>
  </outline>
</glyph>
<glyph name="colon" format="1">
  <advance width="290"/>
  <unicode hex="003A"/>
  <outline>
    <contour>
      <point x="223" y="366" type="curve"/>
      <point x="223" y="414"/>
      <point x="191" y="438"/>
      <point x="144" y="438" type="curve"/>
      <point x="98" y="438"/>
      <point x="67" y="412"/>
      <point x="67" y="366" type="curve"/>
      <point x="223" y="366"/>
      <point x="68" y="366"/>
      <point x="223" y="366" type="curve"/>
      <point x="223" y="317"/>
      <point x="191" y="295"/>
      <point x="144" y="295" type="curve"/>
      <point x="98" y="295"/>
      <point x="67" y="319"/>
      <point x="67" y="366" type="curve"/>
      <point x="223" y="366"/>
      <point x="68" y="366"/>
    </contour>
    <contour>
      <point x="223" y="65" type="curve"/>
      <point x="223" y="113"/>
      <point x="190" y="137"/>
      <point x="144" y="137" type="curve"/>
      <point x="98" y="137"/>
      <point x="66" y="111"/>
      <point x="66" y="65" type="curve"/>
      <point x="223" y="65"/>
      <point x="67" y="65"/>
      <point x="223" y="65" type="curve"/>
      <point x="223" y="16"/>
      <point x="191" y="-6"/>
      <point x="143" y="-6" type="curve"/>
      <point x="97" y="-6"/>
      <point x="66" y="18"/>
      <point x="66" y="65" type="curve"/>
      <point x="223" y="65"/>
      <point x="67" y="65"/>
    </contour>
  </outline>
</glyph>
<glyph name="semicolon" format="1">
  <advance width="309"/>
  <unicode hex="003B"/>
  <outline>
    <contour>
      <point x="67" y="-202" type="line"/>
      <point x="175" y="-201"/>
      <point x="248" y="-131"/>
      <point x="248" y="-24" type="curve"/>
      <point x="248" y="61"/>
      <point x="210" y="112"/>
      <point x="154" y="112" type="curve"/>
      <point x="107" y="112"/>
      <point x="73" y="86"/>
      <point x="73" y="40" type="curve"/>
      <point x="73" y="-2"/>
      <point x="100" y="-30"/>
      <point x="146" y="-30" type="curve"/>
      <point x="145" y="-63"/>
      <point x="139" y="-113"/>
      <point x="66" y="-124" type="curve"/>
    </contour>
    <contour>
      <point x="231" y="377" type="curve"/>
      <point x="231" y="425"/>
      <point x="197" y="449"/>
      <point x="151" y="449" type="curve"/>
      <point x="105" y="449"/>
      <point x="75" y="423"/>
      <point x="75" y="377" type="curve"/>
      <point x="231" y="377"/>
      <point x="75" y="377"/>
      <point x="231" y="377" type="curve"/>
      <point x="231" y="328"/>
      <point x="198" y="306"/>
      <point x="151" y="306" type="curve"/>
      <point x="104" y="306"/>
      <point x="75" y="330"/>
      <point x="75" y="377" type="curve"/>
      <point x="231" y="377"/>
      <point x="75" y="377"/>
    </contour>
  </outline>
</glyph>
<glyph name="less" format="1">
  <advance width="652"/>
  <unicode hex="003C"/>
  <outline>
    <contour>
      <point x="581" y="631" type="curve"/>
      <point x="400" y="541"/>
      <point x="218" y="451"/>
      <point x="36" y="361" type="curve"/>
      <point x="36" y="239"/>
      <point x="36" y="361"/>
      <point x="36" y="239" type="curve"/>
      <point x="218" y="329"/>
      <point x="400" y="419"/>
      <point x="581" y="509" type="curve"/>
      <point x="581" y="631"/>
      <point x="581" y="509"/>
    </contour>
    <contour>
      <point x="591" y="97" type="curve"/>
      <point x="406" y="185"/>
      <point x="221" y="273"/>
      <point x="36" y="361" type="curve"/>
      <point x="36" y="239"/>
      <point x="36" y="361"/>
      <point x="36" y="239" type="curve"/>
      <point x="221" y="151"/>
      <point x="406" y="63"/>
      <point x="591" y="-25" type="curve"/>
      <point x="591" y="97"/>
      <point x="591" y="-25"/>
    </contour>
  </outline>
</glyph>
<glyph name="question" format="1">
  <advance width="533"/>
  <unicode hex="003F"/>
  <outline>
    <contour>
      <point x="179" y="380" type="curve"/>
      <point x="179" y="343"/>
      <point x="179" y="258"/>
      <point x="179" y="221" type="curve"/>
      <point x="315" y="221"/>
      <point x="179" y="221"/>
      <point x="315" y="221" type="curve"/>
      <point x="315" y="258"/>
      <point x="315" y="343"/>
      <point x="315" y="380" type="curve"/>
      <point x="179" y="380"/>
      <point x="315" y="380"/>
    </contour>
    <contour>
      <point x="108" y="576" type="line"/>
      <point x="142" y="612"/>
      <point x="181" y="636"/>
      <point x="234" y="636" type="curve"/>
      <point x="306" y="636"/>
      <point x="350" y="591"/>
      <point x="350" y="518" type="curve"/>
      <point x="350" y="433"/>
      <point x="288" y="380"/>
      <point x="194" y="380" type="curve"/>
      <point x="194" y="340"/>
      <point x="193" y="312"/>
      <point x="193" y="273" type="curve"/>
      <point x="368" y="273"/>
      <point x="488" y="363"/>
      <point x="488" y="518" type="curve"/>
      <point x="488" y="667"/>
      <point x="387" y="752"/>
      <point x="241" y="752" type="curve"/>
      <point x="154" y="752"/>
      <point x="86" y="725"/>
      <point x="33" y="665" type="curve"/>
    </contour>
    <contour>
      <point x="327" y="49" type="curve"/>
      <point x="327" y="97"/>
      <point x="293" y="121"/>
      <point x="247" y="121" type="curve"/>
      <point x="201" y="121"/>
      <point x="170" y="95"/>
      <point x="170" y="49" type="curve"/>
      <point x="327" y="49"/>
      <point x="170" y="49"/>
      <point x="327" y="49" type="curve"/>
      <point x="327" y="0"/>
      <point x="294" y="-22"/>
      <point x="247" y="-22" type="curve"/>
      <point x="201" y="-22"/>
      <point x="170" y="3"/>
      <point x="170" y="49" type="curve"/>
      <point x="327" y="49"/>
      <point x="170" y="49"/>
    </contour>
  </outline>
</glyph>
<glyph name="at" format="1">
  <advance width="833"/>
  <unicode hex="0040"/>
  <outline>
    <contour>
      <point x="547" y="-3" type="curve"/>
      <point x="507" y="-23"/>
      <point x="477" y="-31"/>
      <point x="433" y="-31" type="curve"/>
      <point x="279" y="-31"/>
      <point x="178" y="60"/>
      <point x="178" y="214" type="curve"/>
      <point x="178" y="362"/>
      <point x="275" y="448"/>
      <point x="422" y="448" type="curve"/>
      <point x="563" y="448"/>
      <point x="654" y="359"/>
      <point x="654" y="214" type="curve"/>
      <point x="654" y="167"/>
      <point x="653" y="127"/>
      <point x="630" y="127" type="curve"/>
      <point x="608" y="127"/>
      <point x="604" y="167"/>
      <point x="604" y="219" type="curve"/>
      <point x="604" y="336"/>
      <point x="534" y="412"/>
      <point x="418" y="412" type="curve"/>
      <point x="288" y="412"/>
      <point x="223" y="340"/>
      <point x="223" y="214" type="curve"/>
      <point x="223" y="87"/>
      <point x="282" y="10"/>
      <point x="404" y="10" type="curve"/>
      <point x="514" y="10"/>
      <point x="566" y="84"/>
      <point x="583" y="198" type="curve"/>
      <point x="492" y="220"/>
      <point x="583" y="198"/>
      <point x="492" y="220" type="curve"/>
      <point x="478" y="167"/>
      <point x="473" y="120"/>
      <point x="421" y="120" type="curve"/>
      <point x="375" y="120"/>
      <point x="354" y="161"/>
      <point x="354" y="220" type="curve"/>
      <point x="354" y="268"/>
      <point x="367" y="301"/>
      <point x="409" y="301" type="curve"/>
      <point x="460" y="301"/>
      <point x="472" y="265"/>
      <point x="472" y="213" type="curve"/>
      <point x="472" y="101"/>
      <point x="515" y="22"/>
      <point x="619" y="22" type="curve"/>
      <point x="729" y="22"/>
      <point x="779" y="101"/>
      <point x="779" y="219" type="curve"/>
      <point x="779" y="437"/>
      <point x="643" y="563"/>
      <point x="426" y="563" type="curve"/>
      <point x="193" y="563"/>
      <point x="48" y="436"/>
      <point x="48" y="208" type="curve"/>
      <point x="48" y="-17"/>
      <point x="196" y="-142"/>
      <point x="426" y="-142" type="curve"/>
      <point x="498" y="-142"/>
      <point x="544" y="-129"/>
      <point x="600" y="-96" type="curve"/>
      <point x="547" y="-3"/>
      <point x="600" y="-96"/>
    </contour>
  </outline>
</glyph>
<glyph name="B" format="1">
  <advance width="685"/>
  <unicode hex="0042"/>
  <outline>
    <contour>
      <point x="207" y="722" type="curve"/>
      <point x="161" y="722"/>
      <point x="113" y="722"/>
      <point x="66" y="722" type="curve"/>
      <point x="66" y="612"/>
      <point x="66" y="722"/>
      <point x="66" y="612" type="curve"/>
      <point x="208" y="612"/>
      <point x="66" y="612"/>
      <point x="207" y="612" type="curve"/>
      <point x="207" y="722"/>
      <point x="207" y="612"/>
    </contour>
    <contour>
      <point x="206" y="110" type="curve"/>
      <point x="65" y="110"/>
      <point x="206" y="110"/>
      <point x="65" y="110" type="curve"/>
      <point x="65" y="0"/>
      <point x="65" y="110"/>
      <point x="65" y="0" type="curve"/>
      <point x="113" y="0"/>
      <point x="160" y="0"/>
      <point x="206" y="0" type="curve"/>
      <point x="206" y="110"/>
      <point x="206" y="0"/>
    </contour>
    <contour>
      <point x="198" y="612" type="curve"/>
      <point x="260" y="612"/>
      <point x="308" y="612"/>
      <point x="370" y="612" type="curve"/>
      <point x="424" y="612"/>
      <point x="450" y="582"/>
      <point x="450" y="534" type="curve"/>
      <point x="450" y="486"/>
      <point x="418" y="459"/>
      <point x="367" y="459" type="curve"/>
      <point x="307" y="459"/>
      <point x="259" y="459"/>
      <point x="198" y="459" type="curve"/>
      <point x="198" y="398"/>
      <point x="198" y="409"/>
      <point x="198" y="348" type="curve"/>
      <point x="238" y="348"/>
      <point x="272" y="348"/>
      <point x="312" y="348" type="curve"/>
      <point x="435" y="348"/>
      <point x="595" y="391"/>
      <point x="595" y="530" type="curve"/>
      <point x="595" y="656"/>
      <point x="508" y="722"/>
      <point x="377" y="722" type="curve"/>
      <point x="313" y="722"/>
      <point x="262" y="722"/>
      <point x="198" y="722" type="curve"/>
      <point x="198" y="661"/>
      <point x="198" y="673"/>
    </contour>
    <contour>
      <point x="284" y="0" type="curve"/>
      <point x="284" y="241"/>
      <point x="284" y="481"/>
      <point x="284" y="722" type="curve"/>
      <point x="132" y="722"/>
      <point x="284" y="722"/>
      <point x="132" y="722" type="curve"/>
      <point x="132" y="481"/>
      <point x="132" y="241"/>
      <point x="132" y="0" type="curve"/>
      <point x="284" y="0"/>
      <point x="132" y="0"/>
    </contour>
    <contour>
      <point x="198" y="348" type="curve"/>
      <point x="259" y="348"/>
      <point x="307" y="348"/>
      <point x="367" y="348" type="curve"/>
      <point x="448" y="348"/>
      <point x="492" y="304"/>
      <point x="492" y="227" type="curve"/>
      <point x="492" y="153"/>
      <point x="450" y="110"/>
      <point x="373" y="110" type="curve"/>
      <point x="310" y="110"/>
      <point x="261" y="110"/>
      <point x="198" y="110" type="curve"/>
      <point x="198" y="49"/>
      <point x="198" y="61"/>
      <point x="198" y="0" type="curve"/>
      <point x="263" y="0"/>
      <point x="315" y="0"/>
      <point x="380" y="0" type="curve"/>
      <point x="535" y="0"/>
      <point x="638" y="75"/>
      <point x="638" y="225" type="curve"/>
      <point x="638" y="394"/>
      <point x="471" y="459"/>
      <point x="312" y="459" type="curve"/>
      <point x="272" y="459"/>
      <point x="238" y="459"/>
      <point x="198" y="459" type="curve"/>
      <point x="198" y="398"/>
      <point x="198" y="409"/>
    </contour>
  </outline>
</glyph>
<glyph name="C" format="1">
  <advance width="692"/>
  <unicode hex="0043"/>
  <outline>
    <contour>
      <point x="388" y="781" type="move" name="top"/>
    </contour>
    <contour>
      <point x="420" y="5" type="move" name="bottom"/>
    </contour>
    <contour>
      <point x="523" y="654" type="curve"/>
      <point x="523" y="534"/>
      <point x="523" y="641"/>
      <point x="523" y="521" type="curve"/>
      <point x="636" y="521"/>
      <point x="523" y="521"/>
      <point x="636" y="521" type="curve"/>
      <point x="636" y="641"/>
      <point x="636" y="534"/>
      <point x="636" y="654" type="curve"/>
      <point x="523" y="654"/>
      <point x="636" y="654"/>
    </contour>
    <contour>
      <point x="636" y="654" type="curve"/>
      <point x="567" y="697"/>
      <point x="488" y="727"/>
      <point x="398" y="727" type="curve"/>
      <point x="174" y="727"/>
      <point x="50" y="581"/>
      <point x="50" y="345" type="curve"/>
      <point x="50" y="128"/>
      <point x="168" y="-5"/>
      <point x="379" y="-5" type="curve"/>
      <point x="495" y="-5"/>
      <point x="571" y="27"/>
      <point x="645" y="96" type="curve"/>
      <point x="570" y="182"/>
      <point x="645" y="96"/>
      <point x="570" y="182" type="curve"/>
      <point x="509" y="135"/>
      <point x="460" y="110"/>
      <point x="385" y="110" type="curve"/>
      <point x="252" y="110"/>
      <point x="196" y="208"/>
      <point x="196" y="350" type="curve"/>
      <point x="196" y="504"/>
      <point x="252" y="612"/>
      <point x="392" y="612" type="curve"/>
      <point x="454" y="612"/>
      <point x="509" y="596"/>
      <point x="557" y="566" type="curve"/>
      <point x="636" y="654"/>
      <point x="557" y="566"/>
    </contour>
  </outline>
</glyph>
<glyph name="D" format="1">
  <advance width="785"/>
  <unicode hex="0044"/>
  <outline>
    <contour>
      <point x="360" y="781" type="move" name="top"/>
    </contour>
    <contour>
      <point x="210" y="110" type="curve"/>
      <point x="66" y="110"/>
      <point x="210" y="110"/>
      <point x="67" y="110" type="curve"/>
      <point x="67" y="0"/>
      <point x="67" y="110"/>
      <point x="67" y="0" type="curve"/>
      <point x="114" y="0"/>
      <point x="163" y="0"/>
      <point x="210" y="0" type="curve"/>
      <point x="210" y="110"/>
      <point x="210" y="0"/>
    </contour>
    <contour>
      <point x="210" y="722" type="curve"/>
      <point x="163" y="722"/>
      <point x="114" y="722"/>
      <point x="67" y="722" type="curve"/>
      <point x="67" y="612"/>
      <point x="67" y="722"/>
      <point x="67" y="612" type="curve"/>
      <point x="210" y="612"/>
      <point x="66" y="612"/>
      <point x="210" y="612" type="curve"/>
      <point x="210" y="722"/>
      <point x="210" y="612"/>
    </contour>
    <contour>
      <point x="136" y="722" type="curve"/>
      <point x="136" y="481"/>
      <point x="136" y="241"/>
      <point x="136" y="0" type="curve"/>
      <point x="281" y="0"/>
      <point x="136" y="0"/>
      <point x="281" y="0" type="curve"/>
      <point x="281" y="241"/>
      <point x="281" y="481"/>
      <point x="281" y="722" type="curve"/>
      <point x="136" y="722"/>
      <point x="281" y="722"/>
    </contour>
    <contour>
      <point x="210" y="0" type="curve"/>
      <point x="268" y="0"/>
      <point x="326" y="0"/>
      <point x="384" y="0" type="curve"/>
      <point x="613" y="0"/>
      <point x="734" y="123"/>
      <point x="734" y="354" type="curve"/>
      <point x="734" y="592"/>
      <point x="615" y="722"/>
      <point x="381" y="722" type="curve"/>
      <point x="324" y="722"/>
      <point x="267" y="722"/>
      <point x="210" y="722" type="curve"/>
      <point x="210" y="612"/>
      <point x="210" y="722"/>
      <point x="210" y="612" type="curve"/>
      <point x="265" y="612"/>
      <point x="319" y="612"/>
      <point x="374" y="612" type="curve"/>
      <point x="529" y="612"/>
      <point x="589" y="513"/>
      <point x="589" y="351" type="curve"/>
      <point x="589" y="203"/>
      <point x="536" y="110"/>
      <point x="397" y="110" type="curve"/>
      <point x="334" y="110"/>
      <point x="273" y="110"/>
      <point x="210" y="110" type="curve"/>
      <point x="210" y="0"/>
      <point x="210" y="110"/>
    </contour>
  </outline>
</glyph>
<glyph name="E" format="1">
  <advance width="633"/>
  <unicode hex="0045"/>
  <outline>
    <contour>
      <point x="333" y="781" type="move" name="top"/>
    </contour>
    <contour>
      <point x="556" y="7" type="move" name="bottom"/>
    </contour>
    <contour>
      <point x="594" y="55" type="curve"/>
      <point x="594" y="175"/>
      <point x="594" y="55"/>
      <point x="594" y="175" type="curve"/>
      <point x="481" y="175"/>
      <point x="594" y="175"/>
      <point x="481" y="175" type="curve"/>
      <point x="481" y="55"/>
      <point x="481" y="175"/>
      <point x="481" y="55" type="curve"/>
      <point x="594" y="55"/>
      <point x="481" y="55"/>
    </contour>
    <contour>
      <point x="451" y="667" type="curve"/>
      <point x="451" y="547"/>
      <point x="451" y="667"/>
      <point x="451" y="547" type="curve"/>
      <point x="564" y="547"/>
      <point x="451" y="547"/>
      <point x="564" y="547" type="curve"/>
      <point x="564" y="667"/>
      <point x="564" y="547"/>
      <point x="564" y="667" type="curve"/>
      <point x="451" y="667"/>
      <point x="564" y="667"/>
    </contour>
    <contour>
      <point x="210" y="110" type="curve"/>
      <point x="66" y="110"/>
      <point x="210" y="110"/>
      <point x="66" y="110" type="curve"/>
      <point x="66" y="0"/>
      <point x="66" y="110"/>
      <point x="66" y="0" type="curve"/>
      <point x="114" y="0"/>
      <point x="163" y="0"/>
      <point x="210" y="0" type="curve"/>
      <point x="210" y="110"/>
      <point x="210" y="0"/>
    </contour>
    <contour>
      <point x="210" y="722" type="curve"/>
      <point x="163" y="722"/>
      <point x="114" y="722"/>
      <point x="66" y="722" type="curve"/>
      <point x="66" y="612"/>
      <point x="66" y="722"/>
      <point x="66" y="612" type="curve"/>
      <point x="210" y="612"/>
      <point x="66" y="612"/>
      <point x="210" y="612" type="curve"/>
      <point x="210" y="722"/>
      <point x="210" y="612"/>
    </contour>
    <contour>
      <point x="214" y="317" type="curve"/>
      <point x="311" y="317"/>
      <point x="409" y="317"/>
      <point x="507" y="317" type="curve"/>
      <point x="507" y="428"/>
      <point x="507" y="317"/>
      <point x="507" y="428" type="curve"/>
      <point x="409" y="428"/>
      <point x="311" y="428"/>
      <point x="214" y="428" type="curve"/>
      <point x="214" y="317"/>
      <point x="214" y="428"/>
    </contour>
    <contour>
      <point x="200" y="612" type="curve"/>
      <point x="321" y="612"/>
      <point x="442" y="612"/>
      <point x="564" y="612" type="curve"/>
      <point x="564" y="722"/>
      <point x="564" y="612"/>
      <point x="564" y="722" type="curve"/>
      <point x="442" y="722"/>
      <point x="321" y="722"/>
      <point x="200" y="722" type="curve"/>
      <point x="200" y="612"/>
      <point x="200" y="722"/>
    </contour>
    <contour>
      <point x="283" y="0" type="curve"/>
      <point x="283" y="722" type="line"/>
      <point x="137" y="722"/>
      <point x="283" y="722"/>
      <point x="137" y="722" type="curve"/>
      <point x="137" y="481"/>
      <point x="137" y="241"/>
      <point x="137" y="0" type="curve"/>
      <point x="283" y="0"/>
      <point x="137" y="0"/>
    </contour>
    <contour>
      <point x="200" y="0" type="curve"/>
      <point x="331" y="0"/>
      <point x="462" y="0"/>
      <point x="594" y="0" type="curve"/>
      <point x="594" y="110"/>
      <point x="594" y="0"/>
      <point x="594" y="110" type="curve"/>
      <point x="462" y="110"/>
      <point x="331" y="110"/>
      <point x="200" y="110" type="curve"/>
      <point x="200" y="0"/>
      <point x="200" y="110"/>
    </contour>
  </outline>
</glyph>
<glyph name="F" format="1">
  <advance width="592"/>
  <unicode hex="0046"/>
  <outline>
    <contour>
      <point x="209" y="0" type="curve"/>
      <point x="258" y="0"/>
      <point x="209" y="0"/>
      <point x="354" y="0" type="curve"/>
      <point x="354" y="110"/>
      <point x="354" y="0"/>
      <point x="354" y="110" type="curve"/>
      <point x="209" y="110"/>
      <point x="354" y="110"/>
      <point x="209" y="110" type="curve"/>
      <point x="209" y="0"/>
      <point x="209" y="110"/>
    </contour>
    <contour>
      <point x="209" y="722" type="curve"/>
      <point x="162" y="722"/>
      <point x="113" y="722"/>
      <point x="66" y="722" type="curve"/>
      <point x="66" y="612"/>
      <point x="66" y="722"/>
      <point x="66" y="612" type="curve"/>
      <point x="209" y="612"/>
      <point x="65" y="612"/>
      <point x="209" y="612" type="curve"/>
      <point x="209" y="722"/>
      <point x="209" y="612"/>
    </contour>
    <contour>
      <point x="209" y="110" type="curve"/>
      <point x="65" y="110"/>
      <point x="209" y="110"/>
      <point x="66" y="110" type="curve"/>
      <point x="66" y="0"/>
      <point x="66" y="110"/>
      <point x="66" y="0" type="curve"/>
      <point x="113" y="0"/>
      <point x="162" y="0"/>
      <point x="209" y="0" type="curve"/>
      <point x="209" y="110"/>
      <point x="209" y="0"/>
    </contour>
    <contour>
      <point x="454" y="667" type="curve"/>
      <point x="454" y="547"/>
      <point x="454" y="667"/>
      <point x="454" y="547" type="curve"/>
      <point x="567" y="547"/>
      <point x="454" y="547"/>
      <point x="567" y="547" type="curve"/>
      <point x="567" y="667"/>
      <point x="567" y="547"/>
      <point x="567" y="667" type="curve"/>
      <point x="454" y="667"/>
      <point x="567" y="667"/>
    </contour>
    <contour>
      <point x="213" y="317" type="curve"/>
      <point x="309" y="317"/>
      <point x="405" y="317"/>
      <point x="502" y="317" type="curve"/>
      <point x="502" y="428"/>
      <point x="502" y="317"/>
      <point x="502" y="428" type="curve"/>
      <point x="405" y="428"/>
      <point x="309" y="428"/>
      <point x="213" y="428" type="curve"/>
      <point x="213" y="317"/>
      <point x="213" y="428"/>
    </contour>
    <contour>
      <point x="283" y="0" type="curve"/>
      <point x="283" y="722" type="line"/>
      <point x="137" y="722"/>
      <point x="283" y="722"/>
      <point x="137" y="722" type="curve"/>
      <point x="137" y="481"/>
      <point x="137" y="241"/>
      <point x="137" y="0" type="curve"/>
      <point x="283" y="0"/>
      <point x="137" y="0"/>
    </contour>
    <contour>
      <point x="200" y="612" type="curve"/>
      <point x="322" y="612"/>
      <point x="444" y="612"/>
      <point x="567" y="612" type="curve"/>
      <point x="567" y="722"/>
      <point x="567" y="612"/>
      <point x="567" y="722" type="curve"/>
      <point x="444" y="722"/>
      <point x="322" y="722"/>
      <point x="200" y="722" type="curve"/>
      <point x="200" y="612"/>
      <point x="200" y="722"/>
    </contour>
  </outline>
</glyph>
<glyph name="H" format="1">
  <advance width="814"/>
  <unicode hex="0048"/>
  <outline>
    <contour>
      <point x="631" y="612" type="curve"/>
      <point x="782" y="612"/>
      <point x="622" y="612"/>
      <point x="774" y="612" type="curve"/>
      <point x="774" y="722"/>
      <point x="774" y="612"/>
      <point x="774" y="722" type="curve"/>
      <point x="723" y="722"/>
      <point x="681" y="722"/>
      <point x="631" y="722" type="curve"/>
      <point x="631" y="612"/>
      <point x="631" y="722"/>
    </contour>
    <contour>
      <point x="631" y="0" type="curve"/>
      <point x="681" y="0"/>
      <point x="723" y="0"/>
      <point x="774" y="0" type="curve"/>
      <point x="774" y="110"/>
      <point x="774" y="0"/>
      <point x="774" y="110" type="curve"/>
      <point x="622" y="110"/>
      <point x="782" y="110"/>
      <point x="631" y="110" type="curve"/>
      <point x="631" y="0"/>
      <point x="631" y="110"/>
    </contour>
    <contour>
      <point x="631" y="110" type="curve"/>
      <point x="479" y="110"/>
      <point x="639" y="110"/>
      <point x="487" y="110" type="curve"/>
      <point x="487" y="0"/>
      <point x="487" y="110"/>
      <point x="487" y="0" type="curve"/>
      <point x="537" y="0"/>
      <point x="580" y="0"/>
      <point x="631" y="0" type="curve"/>
      <point x="631" y="110"/>
      <point x="631" y="0"/>
    </contour>
    <contour>
      <point x="631" y="722" type="curve"/>
      <point x="580" y="722"/>
      <point x="537" y="722"/>
      <point x="487" y="722" type="curve"/>
      <point x="487" y="612"/>
      <point x="487" y="722"/>
      <point x="487" y="612" type="curve"/>
      <point x="639" y="612"/>
      <point x="479" y="612"/>
      <point x="631" y="612" type="curve"/>
      <point x="631" y="722"/>
      <point x="631" y="612"/>
    </contour>
    <contour>
      <point x="185" y="612" type="curve"/>
      <point x="336" y="612"/>
      <point x="177" y="612"/>
      <point x="328" y="612" type="curve"/>
      <point x="328" y="722"/>
      <point x="328" y="612"/>
      <point x="328" y="722" type="curve"/>
      <point x="278" y="722"/>
      <point x="236" y="722"/>
      <point x="185" y="722" type="curve"/>
      <point x="185" y="612"/>
      <point x="185" y="722"/>
    </contour>
    <contour>
      <point x="185" y="722" type="curve"/>
      <point x="135" y="722"/>
      <point x="91" y="722"/>
      <point x="40" y="722" type="curve"/>
      <point x="40" y="612"/>
      <point x="40" y="722"/>
      <point x="40" y="612" type="curve"/>
      <point x="192" y="612"/>
      <point x="32" y="612"/>
      <point x="185" y="612" type="curve"/>
      <point x="185" y="722"/>
      <point x="185" y="612"/>
    </contour>
    <contour>
      <point x="185" y="0" type="curve"/>
      <point x="236" y="0"/>
      <point x="177" y="0"/>
      <point x="328" y="0" type="curve"/>
      <point x="328" y="110"/>
      <point x="328" y="0"/>
      <point x="328" y="110" type="curve"/>
      <point x="177" y="110"/>
      <point x="336" y="110"/>
      <point x="185" y="110" type="curve"/>
      <point x="185" y="0"/>
      <point x="185" y="110"/>
    </contour>
    <contour>
      <point x="185" y="110" type="curve"/>
      <point x="32" y="110"/>
      <point x="192" y="110"/>
      <point x="40" y="110" type="curve"/>
      <point x="40" y="0"/>
      <point x="40" y="110"/>
      <point x="40" y="0" type="curve"/>
      <point x="91" y="0"/>
      <point x="135" y="0"/>
      <point x="185" y="0" type="curve"/>
      <point x="185" y="110"/>
      <point x="185" y="0"/>
    </contour>
    <contour>
      <point x="257" y="0" type="curve"/>
      <point x="257" y="722" type="line"/>
      <point x="112" y="722"/>
      <point x="257" y="722"/>
      <point x="112" y="722" type="curve"/>
      <point x="112" y="481"/>
      <point x="112" y="241"/>
      <point x="112" y="0" type="curve"/>
      <point x="257" y="0"/>
      <point x="112" y="0"/>
    </contour>
    <contour>
      <point x="628" y="418" type="curve"/>
      <point x="480" y="418"/>
      <point x="332" y="418"/>
      <point x="185" y="418" type="curve"/>
      <point x="185" y="307"/>
      <point x="185" y="418"/>
      <point x="185" y="307" type="curve"/>
      <point x="332" y="307"/>
      <point x="480" y="307"/>
      <point x="628" y="307" type="curve"/>
      <point x="628" y="418"/>
      <point x="628" y="307"/>
    </contour>
    <contour>
      <point x="702" y="47" type="curve"/>
      <point x="702" y="256"/>
      <point x="702" y="466"/>
      <point x="702" y="675" type="curve"/>
      <point x="557" y="675"/>
      <point x="702" y="675"/>
      <point x="557" y="675" type="curve"/>
      <point x="557" y="47" type="line"/>
      <point x="702" y="47"/>
      <point x="557" y="47"/>
    </contour>
  </outline>
</glyph>
<glyph name="I" format="1">
  <advance width="370"/>
  <unicode hex="0049"/>
  <outline>
    <contour>
      <point x="187" y="781" type="move" name="top"/>
    </contour>
    <contour>
      <point x="250" y="4" type="move" name="bottom"/>
    </contour>
    <contour>
      <point x="187" y="722" type="curve"/>
      <point x="136" y="722"/>
      <point x="92" y="722"/>
      <point x="42" y="722" type="curve"/>
      <point x="42" y="612"/>
      <point x="42" y="722"/>
      <point x="42" y="612" type="curve"/>
      <point x="194" y="612"/>
      <point x="34" y="612"/>
      <point x="187" y="612" type="curve"/>
      <point x="187" y="722"/>
      <point x="187" y="612"/>
    </contour>
    <contour>
      <point x="187" y="612" type="curve"/>
      <point x="338" y="612"/>
      <point x="178" y="612"/>
      <point x="330" y="612" type="curve"/>
      <point x="330" y="722"/>
      <point x="330" y="612"/>
      <point x="330" y="722" type="curve"/>
      <point x="279" y="722"/>
      <point x="237" y="722"/>
      <point x="187" y="722" type="curve"/>
      <point x="187" y="612"/>
      <point x="187" y="722"/>
    </contour>
    <contour>
      <point x="187" y="0" type="curve"/>
      <point x="237" y="0"/>
      <point x="279" y="0"/>
      <point x="330" y="0" type="curve"/>
      <point x="330" y="110"/>
      <point x="330" y="0"/>
      <point x="330" y="110" type="curve"/>
      <point x="178" y="110"/>
      <point x="338" y="110"/>
      <point x="187" y="110" type="curve"/>
      <point x="187" y="0"/>
      <point x="187" y="110"/>
    </contour>
    <contour>
      <point x="187" y="110" type="curve"/>
      <point x="34" y="110"/>
      <point x="194" y="110"/>
      <point x="42" y="110" type="curve"/>
      <point x="42" y="0"/>
      <point x="42" y="110"/>
      <point x="42" y="0" type="curve"/>
      <point x="92" y="0"/>
      <point x="136" y="0"/>
      <point x="187" y="0" type="curve"/>
      <point x="187" y="110"/>
      <point x="187" y="0"/>
    </contour>
    <contour>
      <point x="257" y="0" type="curve"/>
      <point x="257" y="241"/>
      <point x="257" y="481"/>
      <point x="257" y="722" type="curve"/>
      <point x="112" y="722"/>
      <point x="257" y="722"/>
      <point x="112" y="722" type="curve"/>
      <point x="112" y="481"/>
      <point x="112" y="241"/>
      <point x="112" y="0" type="curve"/>
      <point x="257" y="0"/>
      <point x="112" y="0"/>
    </contour>
  </outline>
</glyph>
<glyph name="J" format="1">
  <advance width="450"/>
  <unicode hex="004A"/>
  <outline>
    <contour>
      <point x="285" y="722" type="curve"/>
      <point x="236" y="722"/>
      <point x="194" y="722"/>
      <point x="144" y="722" type="curve"/>
      <point x="144" y="612"/>
      <point x="144" y="722"/>
      <point x="144" y="612" type="curve"/>
      <point x="293" y="612"/>
      <point x="136" y="612"/>
      <point x="285" y="612" type="curve"/>
      <point x="285" y="722"/>
      <point x="285" y="612"/>
    </contour>
    <contour>
      <point x="285" y="612" type="curve"/>
      <point x="435" y="612"/>
      <point x="277" y="612"/>
      <point x="427" y="612" type="curve"/>
      <point x="427" y="722"/>
      <point x="427" y="612"/>
      <point x="427" y="722" type="curve"/>
      <point x="377" y="722"/>
      <point x="335" y="722"/>
      <point x="285" y="722" type="curve"/>
      <point x="285" y="612"/>
      <point x="285" y="722"/>
    </contour>
    <contour>
      <point x="-3" y="45" type="curve"/>
      <point x="28" y="23"/>
      <point x="73" y="-4"/>
      <point x="130" y="-4" type="curve"/>
      <point x="280" y="-4"/>
      <point x="358" y="82"/>
      <point x="358" y="245" type="curve"/>
      <point x="358" y="403"/>
      <point x="358" y="563"/>
      <point x="358" y="722" type="curve"/>
      <point x="213" y="722"/>
      <point x="358" y="722"/>
      <point x="212" y="722" type="curve"/>
      <point x="212" y="563"/>
      <point x="212" y="403"/>
      <point x="212" y="245" type="curve"/>
      <point x="212" y="168"/>
      <point x="198" y="108"/>
      <point x="130" y="108" type="curve"/>
      <point x="102" y="108"/>
      <point x="85" y="119"/>
      <point x="63" y="132" type="curve"/>
      <point x="-3" y="45"/>
      <point x="63" y="132"/>
    </contour>
  </outline>
</glyph>
<glyph name="K" format="1">
  <advance width="721"/>
  <unicode hex="004B"/>
  <outline>
    <contour>
      <point x="396" y="1" type="move" name="bottom"/>
    </contour>
    <contour>
      <point x="555" y="722" type="curve"/>
      <point x="502" y="722"/>
      <point x="420" y="722"/>
      <point x="369" y="722" type="curve"/>
      <point x="369" y="612"/>
      <point x="369" y="722"/>
      <point x="369" y="612" type="curve"/>
      <point x="524" y="612"/>
      <point x="399" y="612"/>
      <point x="555" y="612" type="curve"/>
      <point x="555" y="722"/>
      <point x="555" y="612"/>
    </contour>
    <contour>
      <point x="554" y="0" type="curve"/>
      <point x="619" y="0"/>
      <point x="626" y="0"/>
      <point x="692" y="0" type="curve"/>
      <point x="692" y="110"/>
      <point x="692" y="0"/>
      <point x="692" y="110" type="curve"/>
      <point x="497" y="110"/>
      <point x="748" y="110"/>
      <point x="554" y="110" type="curve"/>
      <point x="554" y="0"/>
      <point x="554" y="110"/>
    </contour>
    <contour>
      <point x="533" y="612" type="curve"/>
      <point x="682" y="612"/>
      <point x="509" y="612"/>
      <point x="659" y="612" type="curve"/>
      <point x="659" y="722"/>
      <point x="659" y="612"/>
      <point x="659" y="722" type="curve"/>
      <point x="609" y="722"/>
      <point x="583" y="722"/>
      <point x="533" y="722" type="curve"/>
      <point x="533" y="612"/>
      <point x="533" y="722"/>
    </contour>
    <contour>
      <point x="182" y="722" type="curve"/>
      <point x="132" y="722"/>
      <point x="90" y="722"/>
      <point x="40" y="722" type="curve"/>
      <point x="40" y="612"/>
      <point x="40" y="722"/>
      <point x="40" y="612" type="curve"/>
      <point x="190" y="612"/>
      <point x="32" y="612"/>
      <point x="182" y="612" type="curve"/>
      <point x="182" y="722"/>
      <point x="182" y="612"/>
    </contour>
    <contour>
      <point x="182" y="612" type="curve"/>
      <point x="328" y="612"/>
      <point x="151" y="612"/>
      <point x="297" y="612" type="curve"/>
      <point x="297" y="722"/>
      <point x="297" y="612"/>
      <point x="297" y="722" type="curve"/>
      <point x="248" y="722"/>
      <point x="231" y="722"/>
      <point x="182" y="722" type="curve"/>
      <point x="182" y="612"/>
      <point x="182" y="722"/>
    </contour>
    <contour>
      <point x="182" y="0" type="curve"/>
      <point x="236" y="0"/>
      <point x="146" y="0"/>
      <point x="310" y="0" type="curve"/>
      <point x="310" y="110"/>
      <point x="310" y="0"/>
      <point x="310" y="110" type="curve"/>
      <point x="146" y="110"/>
      <point x="343" y="110"/>
      <point x="182" y="110" type="curve"/>
      <point x="182" y="0"/>
      <point x="182" y="110"/>
    </contour>
    <contour>
      <point x="182" y="110" type="curve"/>
      <point x="32" y="110"/>
      <point x="190" y="110"/>
      <point x="40" y="110" type="curve"/>
      <point x="40" y="0"/>
      <point x="40" y="110"/>
      <point x="40" y="0" type="curve"/>
      <point x="90" y="0"/>
      <point x="132" y="0"/>
      <point x="182" y="0" type="curve"/>
      <point x="182" y="110"/>
      <point x="182" y="0"/>
    </contour>
    <contour>
      <point x="516" y="722" type="curve"/>
      <point x="230" y="380" type="line"/>
      <point x="393" y="380"/>
      <point x="229" y="380"/>
      <point x="392" y="380" type="curve"/>
      <point x="627" y="663" type="line"/>
      <point x="493" y="663"/>
      <point x="650" y="722"/>
    </contour>
    <contour>
      <point x="254" y="0" type="curve"/>
      <point x="254" y="722" type="line"/>
      <point x="109" y="722"/>
      <point x="254" y="722"/>
      <point x="109" y="722" type="curve"/>
      <point x="109" y="481"/>
      <point x="109" y="241"/>
      <point x="109" y="0" type="curve"/>
      <point x="254" y="0"/>
      <point x="109" y="0"/>
    </contour>
    <contour>
      <point x="661" y="51" type="curve"/>
      <point x="392" y="380" type="line"/>
      <point x="229" y="380"/>
      <point x="393" y="380"/>
      <point x="230" y="380" type="curve"/>
      <point x="535" y="0" type="line"/>
      <point x="683" y="0"/>
      <point x="513" y="51"/>
    </contour>
  </outline>
</glyph>
<glyph name="P" format="1">
  <advance width="639"/>
  <unicode hex="0050"/>
  <outline>
    <contour>
      <point x="209" y="722" type="curve"/>
      <point x="162" y="722"/>
      <point x="114" y="722"/>
      <point x="66" y="722" type="curve"/>
      <point x="66" y="612"/>
      <point x="66" y="722"/>
      <point x="66" y="612" type="curve"/>
      <point x="209" y="612"/>
      <point x="65" y="612"/>
      <point x="209" y="612" type="curve"/>
      <point x="209" y="722"/>
      <point x="209" y="612"/>
    </contour>
    <contour>
      <point x="209" y="110" type="curve"/>
      <point x="65" y="110"/>
      <point x="209" y="110"/>
      <point x="66" y="110" type="curve"/>
      <point x="66" y="0"/>
      <point x="66" y="110"/>
      <point x="66" y="0" type="curve"/>
      <point x="114" y="0"/>
      <point x="162" y="0"/>
      <point x="209" y="0" type="curve"/>
      <point x="209" y="110"/>
      <point x="209" y="0"/>
    </contour>
    <contour>
      <point x="209" y="0" type="curve"/>
      <point x="258" y="0"/>
      <point x="209" y="0"/>
      <point x="354" y="0" type="curve"/>
      <point x="354" y="110"/>
      <point x="354" y="0"/>
      <point x="354" y="110" type="curve"/>
      <point x="209" y="110"/>
      <point x="354" y="110"/>
      <point x="209" y="110" type="curve"/>
      <point x="209" y="0"/>
      <point x="209" y="110"/>
    </contour>
    <contour>
      <point x="189" y="296" type="curve"/>
      <point x="244" y="267"/>
      <point x="308" y="250"/>
      <point x="375" y="250" type="curve"/>
      <point x="514" y="253"/>
      <point x="607" y="330"/>
      <point x="607" y="477" type="curve"/>
      <point x="607" y="632"/>
      <point x="494" y="722"/>
      <point x="336" y="722" type="curve"/>
      <point x="294" y="722"/>
      <point x="253" y="722"/>
      <point x="213" y="722" type="curve"/>
      <point x="213" y="612"/>
      <point x="213" y="722"/>
      <point x="213" y="612" type="curve"/>
      <point x="247" y="612"/>
      <point x="281" y="612"/>
      <point x="316" y="612" type="curve"/>
      <point x="403" y="612"/>
      <point x="461" y="563"/>
      <point x="461" y="481" type="curve"/>
      <point x="461" y="406"/>
      <point x="424" y="357"/>
      <point x="356" y="357" type="curve"/>
      <point x="309" y="357"/>
      <point x="276" y="368"/>
      <point x="234" y="389" type="curve"/>
      <point x="190" y="298"/>
      <point x="234" y="389"/>
    </contour>
    <contour>
      <point x="282" y="0" type="curve"/>
      <point x="282" y="241"/>
      <point x="282" y="481"/>
      <point x="282" y="722" type="curve"/>
      <point x="136" y="722"/>
      <point x="282" y="722"/>
      <point x="136" y="722" type="curve"/>
      <point x="136" y="481"/>
      <point x="136" y="241"/>
      <point x="136" y="0" type="curve"/>
      <point x="282" y="0"/>
      <point x="136" y="0"/>
    </contour>
  </outline>
</glyph>
<glyph name="Q" format="1">
  <advance width="747"/>
  <unicode hex="0051"/>
  <outline>
    <contour>
      <point x="324" y="27" type="curve"/>
      <point x="425" y="-149"/>
      <point x="547" y="-211"/>
      <point x="739" y="-211" type="curve"/>
      <point x="739" y="-95"/>
      <point x="739" y="-211"/>
      <point x="739" y="-95" type="curve"/>
      <point x="603" y="-95"/>
      <point x="523" y="-44"/>
      <point x="449" y="82" type="curve"/>
      <point x="324" y="27"/>
      <point x="449" y="82"/>
    </contour>
    <contour>
      <point x="195" y="360" type="curve"/>
      <point x="195" y="501"/>
      <point x="247" y="606"/>
      <point x="376" y="606" type="curve"/>
      <point x="507" y="606"/>
      <point x="563" y="503"/>
      <point x="563" y="360" type="curve"/>
      <point x="563" y="218"/>
      <point x="514" y="110"/>
      <point x="384" y="110" type="curve"/>
      <point x="251" y="111"/>
      <point x="195" y="216"/>
      <point x="195" y="360" type="curve"/>
      <point x="49" y="360"/>
      <point x="195" y="360"/>
      <point x="49" y="360" type="curve"/>
      <point x="49" y="142"/>
      <point x="169" y="-5"/>
      <point x="377" y="-5" type="curve"/>
      <point x="589" y="-5"/>
      <point x="709" y="145"/>
      <point x="709" y="366" type="curve"/>
      <point x="709" y="583"/>
      <point x="594" y="732"/>
      <point x="386" y="732" type="curve"/>
      <point x="172" y="732"/>
      <point x="49" y="581"/>
      <point x="49" y="360" type="curve"/>
      <point x="195" y="360"/>
      <point x="49" y="360"/>
    </contour>
  </outline>
</glyph>
<glyph name="R" format="1">
  <advance width="721"/>
  <unicode hex="0052"/>
  <outline>
    <contour>
      <point x="334" y="781" type="move" name="top"/>
    </contour>
    <contour>
      <point x="452" y="-1" type="move" name="bottom"/>
    </contour>
    <contour>
      <point x="593" y="0" type="curve"/>
      <point x="630" y="0"/>
      <point x="668" y="0"/>
      <point x="707" y="0" type="curve"/>
      <point x="707" y="110"/>
      <point x="707" y="0"/>
      <point x="707" y="110" type="curve"/>
      <point x="593" y="110"/>
      <point x="708" y="110"/>
      <point x="593" y="110" type="curve"/>
      <point x="593" y="0"/>
      <point x="593" y="110"/>
    </contour>
    <contour>
      <point x="208" y="722" type="curve"/>
      <point x="159" y="722"/>
      <point x="112" y="722"/>
      <point x="65" y="722" type="curve"/>
      <point x="65" y="612"/>
      <point x="65" y="722"/>
      <point x="65" y="612" type="curve"/>
      <point x="208" y="612"/>
      <point x="65" y="612"/>
      <point x="208" y="612" type="curve"/>
      <point x="208" y="722"/>
      <point x="208" y="612"/>
    </contour>
    <contour>
      <point x="208" y="110" type="curve"/>
      <point x="65" y="110"/>
      <point x="208" y="110"/>
      <point x="65" y="110" type="curve"/>
      <point x="65" y="0"/>
      <point x="65" y="110"/>
      <point x="65" y="0" type="curve"/>
      <point x="112" y="0"/>
      <point x="159" y="0"/>
      <point x="208" y="0" type="curve"/>
      <point x="208" y="110"/>
      <point x="208" y="0"/>
    </contour>
    <contour>
      <point x="208" y="0" type="curve"/>
      <point x="254" y="0"/>
      <point x="208" y="0"/>
      <point x="348" y="0" type="curve"/>
      <point x="348" y="110"/>
      <point x="348" y="0"/>
      <point x="348" y="110" type="curve"/>
      <point x="208" y="110"/>
      <point x="348" y="110"/>
      <point x="208" y="110" type="curve"/>
      <point x="208" y="0"/>
      <point x="208" y="110"/>
    </contour>
    <contour>
      <point x="314" y="354" type="curve"/>
      <point x="391" y="237"/>
      <point x="468" y="117"/>
      <point x="544" y="0" type="curve"/>
      <point x="693" y="0"/>
      <point x="544" y="9"/>
      <point x="693" y="9" type="curve"/>
      <point x="620" y="123"/>
      <point x="546" y="240"/>
      <point x="473" y="354" type="curve"/>
      <point x="314" y="354"/>
      <point x="473" y="354"/>
    </contour>
    <contour>
      <point x="281" y="0" type="curve"/>
      <point x="281" y="241"/>
      <point x="281" y="481"/>
      <point x="281" y="722" type="curve"/>
      <point x="136" y="722"/>
      <point x="281" y="722"/>
      <point x="136" y="722" type="curve"/>
      <point x="136" y="481"/>
      <point x="136" y="241"/>
      <point x="136" y="0" type="curve"/>
      <point x="281" y="0"/>
      <point x="136" y="0"/>
    </contour>
    <contour>
      <point x="210" y="297" type="curve"/>
      <point x="263" y="297"/>
      <point x="317" y="297"/>
      <point x="369" y="297" type="curve"/>
      <point x="520" y="297"/>
      <point x="621" y="368"/>
      <point x="621" y="519" type="curve"/>
      <point x="621" y="656"/>
      <point x="524" y="722"/>
      <point x="381" y="722" type="curve"/>
      <point x="324" y="722"/>
      <point x="268" y="722"/>
      <point x="210" y="722" type="curve"/>
      <point x="210" y="612"/>
      <point x="210" y="722"/>
      <point x="210" y="612" type="curve"/>
      <point x="258" y="612"/>
      <point x="307" y="612"/>
      <point x="354" y="612" type="curve"/>
      <point x="429" y="612"/>
      <point x="475" y="578"/>
      <point x="475" y="508" type="curve"/>
      <point x="475" y="443"/>
      <point x="438" y="408"/>
      <point x="371" y="408" type="curve"/>
      <point x="317" y="408"/>
      <point x="263" y="408"/>
      <point x="210" y="408" type="curve"/>
      <point x="210" y="297"/>
      <point x="210" y="408"/>
    </contour>
  </outline>
</glyph>
<glyph name="V" format="1">
  <advance width="738"/>
  <unicode hex="0056"/>
  <outline>
    <contour>
      <point x="595" y="722" type="curve"/>
      <point x="545" y="722"/>
      <point x="495" y="722"/>
      <point x="445" y="722" type="curve"/>
      <point x="445" y="612"/>
      <point x="445" y="722"/>
      <point x="445" y="612" type="curve"/>
      <point x="595" y="612"/>
      <point x="445" y="612"/>
      <point x="595" y="612" type="curve"/>
      <point x="595" y="722"/>
      <point x="595" y="612"/>
    </contour>
    <contour>
      <point x="128" y="722" type="curve"/>
      <point x="87" y="722"/>
      <point x="45" y="722"/>
      <point x="3" y="722" type="curve"/>
      <point x="3" y="612"/>
      <point x="3" y="722"/>
      <point x="3" y="612" type="curve"/>
      <point x="128" y="612"/>
      <point x="2" y="612"/>
      <point x="128" y="612" type="curve"/>
      <point x="128" y="722"/>
      <point x="128" y="612"/>
    </contour>
    <contour>
      <point x="607" y="612" type="curve"/>
      <point x="732" y="612"/>
      <point x="607" y="612"/>
      <point x="732" y="612" type="curve"/>
      <point x="732" y="722"/>
      <point x="732" y="612"/>
      <point x="732" y="722" type="curve"/>
      <point x="691" y="722"/>
      <point x="649" y="722"/>
      <point x="607" y="722" type="curve"/>
      <point x="607" y="612"/>
      <point x="607" y="722"/>
    </contour>
    <contour>
      <point x="140" y="612" type="curve"/>
      <point x="290" y="612"/>
      <point x="140" y="612"/>
      <point x="290" y="612" type="curve"/>
      <point x="290" y="722"/>
      <point x="290" y="612"/>
      <point x="290" y="722" type="curve"/>
      <point x="240" y="722"/>
      <point x="190" y="722"/>
      <point x="140" y="722" type="curve"/>
      <point x="140" y="612"/>
      <point x="140" y="722"/>
    </contour>
    <contour>
      <point x="548" y="722" type="curve"/>
      <point x="467" y="480"/>
      <point x="389" y="242"/>
      <point x="310" y="0" type="curve"/>
      <point x="458" y="0"/>
      <point x="299" y="0"/>
      <point x="446" y="0" type="curve"/>
      <point x="529" y="241"/>
      <point x="611" y="481"/>
      <point x="695" y="722" type="curve"/>
      <point x="548" y="722"/>
      <point x="695" y="722"/>
    </contour>
    <contour>
      <point x="41" y="722" type="curve"/>
      <point x="124" y="481"/>
      <point x="209" y="241"/>
      <point x="293" y="0" type="curve"/>
      <point x="440" y="0"/>
      <point x="283" y="0"/>
      <point x="432" y="0" type="curve"/>
      <point x="351" y="242"/>
      <point x="271" y="482"/>
      <point x="188" y="722" type="curve"/>
      <point x="41" y="722"/>
      <point x="188" y="722"/>
    </contour>
  </outline>
</glyph>
<glyph name="W" format="1">
  <advance width="927"/>
  <unicode hex="0057"/>
  <outline>
    <contour>
      <point x="148" y="612" type="curve"/>
      <point x="268" y="612"/>
      <point x="148" y="612"/>
      <point x="268" y="612" type="curve"/>
      <point x="268" y="722"/>
      <point x="268" y="612"/>
      <point x="268" y="722" type="curve"/>
      <point x="228" y="722"/>
      <point x="188" y="722"/>
      <point x="148" y="722" type="curve"/>
      <point x="148" y="612"/>
      <point x="148" y="722"/>
    </contour>
    <contour>
      <point x="141" y="722" type="curve"/>
      <point x="98" y="722"/>
      <point x="55" y="722"/>
      <point x="12" y="722" type="curve"/>
      <point x="12" y="612"/>
      <point x="12" y="722"/>
      <point x="12" y="612" type="curve"/>
      <point x="141" y="612"/>
      <point x="11" y="612"/>
      <point x="141" y="612" type="curve"/>
      <point x="141" y="722"/>
      <point x="141" y="612"/>
    </contour>
    <contour>
      <point x="786" y="722" type="curve"/>
      <point x="745" y="722"/>
      <point x="705" y="722"/>
      <point x="666" y="722" type="curve"/>
      <point x="666" y="612"/>
      <point x="666" y="722"/>
      <point x="666" y="612" type="curve"/>
      <point x="786" y="612"/>
      <point x="666" y="612"/>
      <point x="786" y="612" type="curve"/>
      <point x="786" y="722"/>
      <point x="786" y="612"/>
    </contour>
    <contour>
      <point x="789" y="612" type="curve"/>
      <point x="919" y="612"/>
      <point x="789" y="612"/>
      <point x="918" y="612" type="curve"/>
      <point x="918" y="722"/>
      <point x="918" y="612"/>
      <point x="918" y="722" type="curve"/>
      <point x="876" y="722"/>
      <point x="832" y="722"/>
      <point x="789" y="722" type="curve"/>
      <point x="789" y="612"/>
      <point x="789" y="722"/>
    </contour>
    <contour>
      <point x="352" y="0" type="curve"/>
      <point x="411" y="241"/>
      <point x="470" y="481"/>
      <point x="530" y="722" type="curve"/>
      <point x="402" y="722"/>
      <point x="531" y="722"/>
      <point x="403" y="722" type="curve"/>
      <point x="348" y="481"/>
      <point x="294" y="242"/>
      <point x="238" y="0" type="curve"/>
      <point x="362" y="0"/>
      <point x="228" y="0"/>
    </contour>
    <contour>
      <point x="412" y="722" type="curve"/>
      <point x="466" y="481"/>
      <point x="517" y="241"/>
      <point x="572" y="0" type="curve"/>
      <point x="695" y="0"/>
      <point x="557" y="0"/>
      <point x="682" y="0" type="curve"/>
      <point x="633" y="244"/>
      <point x="587" y="481"/>
      <point x="537" y="722" type="curve"/>
      <point x="410" y="722"/>
      <point x="539" y="722"/>
    </contour>
    <contour>
      <point x="59" y="722" type="curve"/>
      <point x="114" y="481"/>
      <point x="168" y="241"/>
      <point x="222" y="0" type="curve"/>
      <point x="347" y="0"/>
      <point x="220" y="0"/>
      <point x="345" y="0" type="curve"/>
      <point x="292" y="241"/>
      <point x="242" y="481"/>
      <point x="190" y="722" type="curve"/>
      <point x="59" y="722"/>
      <point x="190" y="722"/>
    </contour>
    <contour>
      <point x="740" y="722" type="curve"/>
      <point x="686" y="481"/>
      <point x="634" y="241"/>
      <point x="580" y="0" type="curve"/>
      <point x="705" y="0"/>
      <point x="577" y="0"/>
      <point x="701" y="0" type="curve"/>
      <point x="757" y="241"/>
      <point x="814" y="481"/>
      <point x="871" y="722" type="curve"/>
      <point x="740" y="722"/>
      <point x="871" y="722"/>
    </contour>
  </outline>
</glyph>
<glyph name="X" format="1">
  <advance width="687"/>
  <unicode hex="0058"/>
  <outline>
    <contour>
      <point x="163" y="0" type="curve"/>
      <point x="211" y="0"/>
      <point x="163" y="0"/>
      <point x="307" y="0" type="curve"/>
      <point x="307" y="110"/>
      <point x="307" y="0"/>
      <point x="307" y="110" type="curve"/>
      <point x="163" y="110"/>
      <point x="307" y="110"/>
      <point x="163" y="110" type="curve"/>
      <point x="163" y="0"/>
      <point x="163" y="110"/>
    </contour>
    <contour>
      <point x="149" y="110" type="curve"/>
      <point x="16" y="110"/>
      <point x="149" y="110"/>
      <point x="17" y="110" type="curve"/>
      <point x="16" y="0"/>
      <point x="17" y="110"/>
      <point x="16" y="0" type="curve"/>
      <point x="60" y="0"/>
      <point x="105" y="0"/>
      <point x="149" y="0" type="curve"/>
      <point x="149" y="110"/>
      <point x="149" y="0"/>
    </contour>
    <contour>
      <point x="535" y="0" type="curve"/>
      <point x="579" y="0"/>
      <point x="623" y="0"/>
      <point x="667" y="0" type="curve"/>
      <point x="667" y="110"/>
      <point x="667" y="0"/>
      <point x="667" y="110" type="curve"/>
      <point x="535" y="110"/>
      <point x="667" y="110"/>
      <point x="535" y="110" type="curve"/>
      <point x="535" y="0"/>
      <point x="535" y="110"/>
    </contour>
    <contour>
      <point x="521" y="110" type="curve"/>
      <point x="376" y="110"/>
      <point x="521" y="110"/>
      <point x="376" y="110" type="curve"/>
      <point x="376" y="0"/>
      <point x="376" y="110"/>
      <point x="376" y="0" type="curve"/>
      <point x="424" y="0"/>
      <point x="473" y="0"/>
      <point x="521" y="0" type="curve"/>
      <point x="521" y="110"/>
      <point x="521" y="0"/>
    </contour>
    <contour>
      <point x="515" y="612" type="curve"/>
      <point x="647" y="612"/>
      <point x="515" y="612"/>
      <point x="647" y="612" type="curve"/>
      <point x="647" y="722"/>
      <point x="647" y="612"/>
      <point x="647" y="722" type="curve"/>
      <point x="603" y="722"/>
      <point x="558" y="722"/>
      <point x="515" y="722" type="curve"/>
      <point x="515" y="612"/>
      <point x="515" y="722"/>
    </contour>
    <contour>
      <point x="526" y="722" type="curve"/>
      <point x="475" y="722"/>
      <point x="425" y="722"/>
      <point x="374" y="722" type="curve"/>
      <point x="374" y="612"/>
      <point x="374" y="722"/>
      <point x="374" y="612" type="curve"/>
      <point x="526" y="612"/>
      <point x="374" y="612"/>
      <point x="526" y="612" type="curve"/>
      <point x="526" y="722"/>
      <point x="526" y="612"/>
    </contour>
    <contour>
      <point x="174" y="722" type="curve"/>
      <point x="131" y="722"/>
      <point x="86" y="722"/>
      <point x="42" y="722" type="curve"/>
      <point x="42" y="612"/>
      <point x="42" y="722"/>
      <point x="42" y="612" type="curve"/>
      <point x="174" y="612"/>
      <point x="42" y="612"/>
      <point x="174" y="612" type="curve"/>
      <point x="174" y="722"/>
      <point x="174" y="612"/>
    </contour>
    <contour>
      <point x="163" y="612" type="curve"/>
      <point x="315" y="612"/>
      <point x="163" y="612"/>
      <point x="315" y="612" type="curve"/>
      <point x="315" y="722"/>
      <point x="315" y="612"/>
      <point x="315" y="722" type="curve"/>
      <point x="264" y="722"/>
      <point x="214" y="722"/>
      <point x="163" y="722" type="curve"/>
      <point x="163" y="612"/>
      <point x="163" y="722"/>
    </contour>
    <contour>
      <point x="485" y="722" type="curve"/>
      <point x="340" y="485"/>
      <point x="193" y="250"/>
      <point x="48" y="14" type="curve"/>
      <point x="190" y="14"/>
      <point x="48" y="0"/>
      <point x="190" y="0" type="curve"/>
      <point x="335" y="237"/>
      <point x="478" y="474"/>
      <point x="623" y="711" type="curve"/>
      <point x="485" y="711"/>
      <point x="623" y="722"/>
    </contour>
    <contour>
      <point x="68" y="710" type="curve"/>
      <point x="212" y="474"/>
      <point x="354" y="237"/>
      <point x="497" y="0" type="curve"/>
      <point x="639" y="0"/>
      <point x="497" y="9"/>
      <point x="639" y="9" type="curve"/>
      <point x="494" y="247"/>
      <point x="349" y="484"/>
      <point x="204" y="722" type="curve"/>
      <point x="68" y="722"/>
      <point x="204" y="710"/>
    </contour>
  </outline>
</glyph>
<glyph name="Y" format="1">
  <advance width="629"/>
  <unicode hex="0059"/>
  <outline>
    <contour>
      <point x="317" y="781" type="move" name="top"/>
    </contour>
    <contour>
      <point x="311" y="110" type="curve"/>
      <point x="167" y="110"/>
      <point x="311" y="110"/>
      <point x="167" y="110" type="curve"/>
      <point x="167" y="0"/>
      <point x="167" y="110"/>
      <point x="167" y="0" type="curve"/>
      <point x="215" y="0"/>
      <point x="263" y="0"/>
      <point x="311" y="0" type="curve"/>
      <point x="311" y="110"/>
      <point x="311" y="0"/>
    </contour>
    <contour>
      <point x="311" y="0" type="curve"/>
      <point x="360" y="0"/>
      <point x="408" y="0"/>
      <point x="455" y="0" type="curve"/>
      <point x="455" y="110"/>
      <point x="455" y="0"/>
      <point x="455" y="110" type="curve"/>
      <point x="311" y="110"/>
      <point x="455" y="110"/>
      <point x="311" y="110" type="curve"/>
      <point x="311" y="0"/>
      <point x="311" y="110"/>
    </contour>
    <contour>
      <point x="491" y="722" type="curve"/>
      <point x="446" y="722"/>
      <point x="401" y="722"/>
      <point x="355" y="722" type="curve"/>
      <point x="355" y="612"/>
      <point x="355" y="722"/>
      <point x="355" y="612" type="curve"/>
      <point x="491" y="612"/>
      <point x="354" y="612"/>
      <point x="491" y="612" type="curve"/>
      <point x="491" y="722"/>
      <point x="491" y="612"/>
    </contour>
    <contour>
      <point x="127" y="722" type="curve"/>
      <point x="90" y="722"/>
      <point x="53" y="722"/>
      <point x="16" y="722" type="curve"/>
      <point x="15" y="612"/>
      <point x="16" y="722"/>
      <point x="15" y="612" type="curve"/>
      <point x="127" y="612"/>
      <point x="14" y="612"/>
      <point x="127" y="612" type="curve"/>
      <point x="127" y="722"/>
      <point x="127" y="612"/>
    </contour>
    <contour>
      <point x="142" y="612" type="curve"/>
      <point x="278" y="612"/>
      <point x="141" y="612"/>
      <point x="278" y="612" type="curve"/>
      <point x="278" y="722"/>
      <point x="278" y="612"/>
      <point x="278" y="722" type="curve"/>
      <point x="233" y="722"/>
      <point x="187" y="722"/>
      <point x="142" y="722" type="curve"/>
      <point x="142" y="612"/>
      <point x="142" y="722"/>
    </contour>
    <contour>
      <point x="506" y="612" type="curve"/>
      <point x="623" y="612"/>
      <point x="506" y="612"/>
      <point x="623" y="612" type="curve"/>
      <point x="623" y="722"/>
      <point x="623" y="612"/>
      <point x="623" y="722" type="curve"/>
      <point x="584" y="722"/>
      <point x="545" y="722"/>
      <point x="506" y="722" type="curve"/>
      <point x="506" y="612"/>
      <point x="506" y="722"/>
    </contour>
    <contour>
      <point x="36" y="711" type="curve"/>
      <point x="103" y="587"/>
      <point x="167" y="464"/>
      <point x="233" y="337" type="curve"/>
      <point x="381" y="337"/>
      <point x="218" y="337"/>
      <point x="365" y="337" type="curve"/>
      <point x="302" y="469"/>
      <point x="240" y="592"/>
      <point x="174" y="722" type="curve"/>
      <point x="36" y="722"/>
      <point x="174" y="711"/>
    </contour>
    <contour>
      <point x="460" y="722" type="curve"/>
      <point x="388" y="590"/>
      <point x="323" y="468"/>
      <point x="250" y="337" type="curve"/>
      <point x="397" y="337"/>
      <point x="241" y="337"/>
      <point x="389" y="337" type="curve"/>
      <point x="459" y="464"/>
      <point x="528" y="587"/>
      <point x="599" y="712" type="curve"/>
      <point x="460" y="712"/>
      <point x="599" y="722"/>
    </contour>
    <contour>
      <point x="391" y="0" type="curve"/>
      <point x="391" y="115"/>
      <point x="391" y="224"/>
      <point x="391" y="339" type="curve"/>
      <point x="232" y="339"/>
      <point x="391" y="339"/>
      <point x="232" y="339" type="curve"/>
      <point x="232" y="224"/>
      <point x="232" y="115"/>
      <point x="232" y="0" type="curve"/>
      <point x="391" y="0"/>
      <point x="232" y="0"/>
    </contour>
  </outline>
</glyph>
<glyph name="Z" format="1">
  <advance width="673"/>
  <unicode hex="005A"/>
  <outline>
    <contour>
      <point x="333" y="781" type="move" name="top"/>
    </contour>
    <contour>
      <point x="63" y="667" type="curve"/>
      <point x="63" y="547"/>
      <point x="63" y="667"/>
      <point x="63" y="547" type="curve"/>
      <point x="176" y="547"/>
      <point x="63" y="547"/>
      <point x="176" y="547" type="curve"/>
      <point x="176" y="667"/>
      <point x="176" y="547"/>
      <point x="176" y="667" type="curve"/>
      <point x="63" y="667"/>
      <point x="176" y="667"/>
    </contour>
    <contour>
      <point x="624" y="55" type="curve"/>
      <point x="624" y="175"/>
      <point x="624" y="55"/>
      <point x="624" y="175" type="curve"/>
      <point x="511" y="175"/>
      <point x="624" y="175"/>
      <point x="511" y="175" type="curve"/>
      <point x="511" y="55"/>
      <point x="511" y="175"/>
      <point x="511" y="55" type="curve"/>
      <point x="624" y="55"/>
      <point x="511" y="55"/>
    </contour>
    <contour>
      <point x="63" y="612" type="curve"/>
      <point x="207" y="612"/>
      <point x="405" y="612"/>
      <point x="549" y="612" type="curve"/>
      <point x="537" y="623"/>
      <point x="518" y="620"/>
      <point x="507" y="631" type="curve"/>
      <point x="497" y="640"/>
      <point x="498" y="657"/>
      <point x="488" y="668" type="curve"/>
      <point x="481" y="658"/>
      <point x="464" y="668"/>
      <point x="458" y="658" type="curve"/>
      <point x="33" y="110" type="line"/>
      <point x="33" y="54"/>
      <point x="33" y="110"/>
      <point x="33" y="54" type="curve"/>
      <point x="33" y="0"/>
      <point x="33" y="54"/>
      <point x="33" y="0" type="curve"/>
      <point x="86" y="0"/>
      <point x="33" y="0"/>
      <point x="86" y="0" type="curve"/>
      <point x="602" y="0"/>
      <point x="453" y="0"/>
      <point x="624" y="0" type="curve"/>
      <point x="624" y="110"/>
      <point x="624" y="0"/>
      <point x="624" y="110" type="curve"/>
      <point x="453" y="110"/>
      <point x="258" y="110"/>
      <point x="86" y="110" type="curve"/>
      <point x="97" y="102"/>
      <point x="113" y="102"/>
      <point x="124" y="94" type="curve"/>
      <point x="133" y="84"/>
      <point x="134" y="66"/>
      <point x="145" y="54" type="curve"/>
      <point x="154" y="65"/>
      <point x="173" y="54"/>
      <point x="181" y="64" type="curve"/>
      <point x="610" y="612" type="line"/>
      <point x="610" y="668"/>
      <point x="610" y="612"/>
      <point x="610" y="668" type="curve"/>
      <point x="610" y="722"/>
      <point x="610" y="668"/>
      <point x="610" y="722" type="curve"/>
      <point x="544" y="722"/>
      <point x="610" y="722"/>
      <point x="544" y="722" type="curve"/>
      <point x="401" y="722"/>
      <point x="206" y="722"/>
      <point x="63" y="722" type="curve"/>
      <point x="63" y="612"/>
      <point x="63" y="722"/>
    </contour>
  </outline>
</glyph>
<glyph name="bracketleft" format="1">
  <advance width="322"/>
  <unicode hex="005B"/>
  <outline>
    <contour>
      <point x="275" y="769" type="curve"/>
      <point x="229" y="769"/>
      <point x="184" y="769"/>
      <point x="139" y="769" type="curve"/>
      <point x="121" y="769"/>
      <point x="88" y="769"/>
      <point x="72" y="769" type="curve"/>
      <point x="72" y="752"/>
      <point x="72" y="731"/>
      <point x="72" y="714" type="curve"/>
      <point x="72" y="456"/>
      <point x="72" y="199"/>
      <point x="72" y="-59" type="curve"/>
      <point x="72" y="-77"/>
      <point x="72" y="-92"/>
      <point x="72" y="-113" type="curve"/>
      <point x="87" y="-113"/>
      <point x="119" y="-113"/>
      <point x="138" y="-113" type="curve"/>
      <point x="183" y="-113"/>
      <point x="229" y="-113"/>
      <point x="275" y="-113" type="curve"/>
      <point x="275" y="9"/>
      <point x="275" y="-113"/>
      <point x="275" y="9" type="curve"/>
      <point x="229" y="9"/>
      <point x="183" y="9"/>
      <point x="138" y="9" type="curve"/>
      <point x="217" y="9"/>
      <point x="138" y="9"/>
      <point x="217" y="9" type="curve"/>
      <point x="217" y="-59"/>
      <point x="217" y="9"/>
      <point x="217" y="-59" type="curve"/>
      <point x="217" y="199"/>
      <point x="217" y="456"/>
      <point x="217" y="714" type="curve"/>
      <point x="217" y="648"/>
      <point x="217" y="714"/>
      <point x="217" y="648" type="curve"/>
      <point x="139" y="648"/>
      <point x="217" y="648"/>
      <point x="139" y="648" type="curve"/>
      <point x="184" y="648"/>
      <point x="229" y="648"/>
      <point x="275" y="648" type="curve"/>
      <point x="275" y="769"/>
      <point x="275" y="648"/>
    </contour>
  </outline>
</glyph>
<glyph name="backslash" format="1">
  <advance width="554"/>
  <unicode hex="005C"/>
  <outline>
    <contour>
      <point x="529" y="-68" type="curve"/>
      <point x="412" y="236"/>
      <point x="295" y="540"/>
      <point x="178" y="844" type="curve"/>
      <point x="26" y="844"/>
      <point x="178" y="844"/>
      <point x="26" y="844" type="curve"/>
      <point x="143" y="540"/>
      <point x="260" y="236"/>
      <point x="377" y="-68" type="curve"/>
      <point x="529" y="-68"/>
      <point x="377" y="-68"/>
    </contour>
  </outline>
</glyph>
<glyph name="bracketright" format="1">
  <advance width="323"/>
  <unicode hex="005D"/>
  <outline>
    <contour>
      <point x="48" y="648" type="curve"/>
      <point x="93" y="648"/>
      <point x="138" y="648"/>
      <point x="184" y="648" type="curve"/>
      <point x="171" y="659"/>
      <point x="151" y="662"/>
      <point x="139" y="674" type="curve"/>
      <point x="127" y="686"/>
      <point x="118" y="701"/>
      <point x="105" y="714" type="curve"/>
      <point x="105" y="456"/>
      <point x="105" y="199"/>
      <point x="105" y="-59" type="curve"/>
      <point x="118" y="-45"/>
      <point x="130" y="-33"/>
      <point x="142" y="-20" type="curve"/>
      <point x="155" y="-8"/>
      <point x="173" y="-3"/>
      <point x="185" y="9" type="curve"/>
      <point x="139" y="9"/>
      <point x="93" y="9"/>
      <point x="48" y="9" type="curve"/>
      <point x="47" y="-113"/>
      <point x="48" y="9"/>
      <point x="47" y="-113" type="curve"/>
      <point x="93" y="-113"/>
      <point x="139" y="-113"/>
      <point x="185" y="-113" type="curve"/>
      <point x="251" y="-113"/>
      <point x="185" y="-113"/>
      <point x="251" y="-113" type="curve"/>
      <point x="251" y="-59"/>
      <point x="251" y="-113"/>
      <point x="251" y="-59" type="curve"/>
      <point x="251" y="199"/>
      <point x="251" y="456"/>
      <point x="251" y="714" type="curve"/>
      <point x="251" y="769"/>
      <point x="251" y="714"/>
      <point x="251" y="769" type="curve"/>
      <point x="184" y="769"/>
      <point x="251" y="769"/>
      <point x="184" y="769" type="curve"/>
      <point x="138" y="769"/>
      <point x="93" y="769"/>
      <point x="48" y="769" type="curve"/>
      <point x="48" y="648"/>
      <point x="48" y="769"/>
    </contour>
  </outline>
</glyph>
<glyph name="asciicircum" format="1">
  <advance width="547"/>
  <unicode hex="005E"/>
  <outline>
    <contour>
      <point x="189" y="453" type="curve"/>
      <point x="241" y="554"/>
      <point x="293" y="654"/>
      <point x="345" y="754" type="curve"/>
      <point x="201" y="754"/>
      <point x="345" y="754"/>
      <point x="201" y="754" type="curve"/>
      <point x="148" y="654"/>
      <point x="96" y="554"/>
      <point x="45" y="453" type="curve"/>
      <point x="189" y="453"/>
      <point x="45" y="453"/>
    </contour>
    <contour>
      <point x="502" y="453" type="curve"/>
      <point x="451" y="553"/>
      <point x="397" y="654"/>
      <point x="345" y="754" type="curve"/>
      <point x="201" y="754"/>
      <point x="345" y="754"/>
      <point x="201" y="754" type="curve"/>
      <point x="252" y="654"/>
      <point x="306" y="553"/>
      <point x="357" y="453" type="curve"/>
      <point x="502" y="453"/>
      <point x="358" y="453"/>
    </contour>
  </outline>
</glyph>
<glyph name="underscore" format="1">
  <advance width="610"/>
  <unicode hex="005F"/>
  <outline>
    <contour>
      <point x="0" y="-183" type="curve"/>
      <point x="203" y="-183"/>
      <point x="407" y="-183"/>
      <point x="610" y="-183" type="curve"/>
      <point x="610" y="-72"/>
      <point x="610" y="-183"/>
      <point x="610" y="-72" type="curve"/>
      <point x="407" y="-72"/>
      <point x="203" y="-72"/>
      <point x="0" y="-72" type="curve"/>
      <point x="0" y="-183"/>
      <point x="0" y="-72"/>
    </contour>
  </outline>
</glyph>
<glyph name="grave" format="1">
  <advance width="359"/>
  <unicode hex="0060"/>
  <outline>
    <contour>
      <point x="264" y="575" type="move" name="_top"/>
    </contour>
    <contour>
      <point x="337" y="575" type="line"/>
      <point x="236" y="741" type="line"/>
      <point x="55" y="741" type="line"/>
      <point x="197" y="575" type="line"/>
    </contour>
  </outline>
</glyph>
<glyph name="b" format="1">
  <advance width="663"/>
  <unicode hex="0062"/>
  <outline>
    <contour>
      <point x="178" y="800" type="curve"/>
      <point x="127" y="800"/>
      <point x="84" y="800"/>
      <point x="34" y="800" type="curve"/>
      <point x="33" y="708"/>
      <point x="34" y="781"/>
      <point x="33" y="690" type="curve"/>
      <point x="152" y="689"/>
      <point x="60" y="690"/>
      <point x="178" y="689" type="curve"/>
      <point x="178" y="781"/>
      <point x="178" y="707"/>
    </contour>
    <contour>
      <point x="213" y="338" type="curve"/>
      <point x="245" y="380"/>
      <point x="293" y="423"/>
      <point x="362" y="423" type="curve"/>
      <point x="446" y="423"/>
      <point x="477" y="353"/>
      <point x="477" y="262" type="curve"/>
      <point x="478" y="174"/>
      <point x="444" y="110"/>
      <point x="364" y="110" type="curve"/>
      <point x="304" y="110"/>
      <point x="258" y="137"/>
      <point x="223" y="176" type="curve"/>
      <point x="161" y="135"/>
      <point x="208" y="166"/>
      <point x="146" y="125" type="curve"/>
      <point x="206" y="49"/>
      <point x="273" y="-5"/>
      <point x="383" y="-5" type="curve"/>
      <point x="532" y="-5"/>
      <point x="623" y="104"/>
      <point x="623" y="266" type="curve"/>
      <point x="623" y="429"/>
      <point x="533" y="538"/>
      <point x="384" y="538" type="curve"/>
      <point x="274" y="538"/>
      <point x="206" y="471"/>
      <point x="151" y="396" type="curve"/>
      <point x="202" y="353"/>
      <point x="161" y="381"/>
    </contour>
    <contour>
      <point x="249" y="0" type="curve"/>
      <point x="249" y="278"/>
      <point x="249" y="522"/>
      <point x="249" y="800" type="curve"/>
      <point x="130" y="800"/>
      <point x="223" y="800"/>
      <point x="103" y="800" type="curve"/>
      <point x="103" y="522"/>
      <point x="103" y="278"/>
      <point x="103" y="0" type="curve"/>
      <point x="223" y="0"/>
      <point x="130" y="0"/>
    </contour>
    <contour>
      <point x="178" y="110" type="curve"/>
      <point x="61" y="110"/>
      <point x="152" y="110"/>
      <point x="34" y="110" type="curve"/>
      <point x="34" y="19"/>
      <point x="34" y="92"/>
      <point x="34" y="0" type="curve"/>
      <point x="84" y="0"/>
      <point x="128" y="0"/>
      <point x="178" y="0" type="curve"/>
      <point x="178" y="92"/>
      <point x="178" y="19"/>
    </contour>
  </outline>
</glyph>
<glyph name="f" format="1">
  <advance width="460"/>
  <unicode hex="0066"/>
  <outline>
    <contour>
      <point x="323" y="768" type="curve"/>
      <point x="323" y="645"/>
      <point x="323" y="768"/>
      <point x="323" y="645" type="curve"/>
      <point x="436" y="645"/>
      <point x="323" y="645"/>
      <point x="436" y="645" type="curve"/>
      <point x="436" y="768"/>
      <point x="436" y="645"/>
      <point x="436" y="768" type="curve"/>
      <point x="323" y="768"/>
      <point x="436" y="768"/>
    </contour>
    <contour>
      <point x="185" y="-1" type="curve"/>
      <point x="235" y="-1"/>
      <point x="277" y="0"/>
      <point x="328" y="0" type="curve"/>
      <point x="328" y="111"/>
      <point x="328" y="0"/>
      <point x="328" y="111" type="curve"/>
      <point x="177" y="110"/>
      <point x="336" y="111"/>
      <point x="185" y="110" type="curve"/>
      <point x="185" y="-1"/>
      <point x="185" y="110"/>
    </contour>
    <contour>
      <point x="185" y="110" type="curve"/>
      <point x="35" y="111"/>
      <point x="193" y="110"/>
      <point x="43" y="111" type="curve"/>
      <point x="43" y="0"/>
      <point x="43" y="111"/>
      <point x="43" y="0" type="curve"/>
      <point x="93" y="0"/>
      <point x="135" y="-1"/>
      <point x="185" y="-1" type="curve"/>
      <point x="185" y="110"/>
      <point x="185" y="-1"/>
    </contour>
    <contour>
      <point x="25" y="423" type="curve"/>
      <point x="394" y="423" type="line"/>
      <point x="394" y="533"/>
      <point x="394" y="423"/>
      <point x="394" y="533" type="curve"/>
      <point x="25" y="533" type="line"/>
      <point x="25" y="423"/>
      <point x="25" y="533"/>
    </contour>
    <contour>
      <point x="258" y="0" type="curve"/>
      <point x="258" y="604" type="line"/>
      <point x="257" y="655"/>
      <point x="268" y="698"/>
      <point x="315" y="698" type="curve"/>
      <point x="337" y="698"/>
      <point x="357" y="690"/>
      <point x="378" y="680" type="curve"/>
      <point x="436" y="768"/>
      <point x="378" y="680"/>
      <point x="436" y="768" type="curve"/>
      <point x="400" y="788"/>
      <point x="358" y="804"/>
      <point x="315" y="804" type="curve"/>
      <point x="190" y="804"/>
      <point x="112" y="727"/>
      <point x="113" y="604" type="curve"/>
      <point x="113" y="0" type="line"/>
      <point x="258" y="0"/>
      <point x="113" y="0"/>
    </contour>
  </outline>
</glyph>
<glyph name="g" format="1">
  <advance width="565"/>
  <unicode hex="0067"/>
  <outline>
    <contour>
      <point x="288" y="611" type="move" name="top"/>
    </contour>
    <contour>
      <point x="401" y="430" type="curve"/>
      <point x="541" y="493" type="line"/>
      <point x="541" y="493"/>
      <point x="484" y="597"/>
      <point x="484" y="597" type="curve"/>
      <point x="324" y="515" type="line"/>
      <point x="401" y="430"/>
      <point x="324" y="515"/>
    </contour>
    <contour>
      <point x="209" y="336" type="curve"/>
      <point x="209" y="390"/>
      <point x="240" y="428"/>
      <point x="293" y="428" type="curve"/>
      <point x="347" y="428"/>
      <point x="374" y="389"/>
      <point x="374" y="335" type="curve"/>
      <point x="374" y="285"/>
      <point x="346" y="250"/>
      <point x="294" y="250" type="curve"/>
      <point x="243" y="250"/>
      <point x="209" y="283"/>
      <point x="209" y="336" type="curve"/>
      <point x="63" y="331"/>
      <point x="209" y="336"/>
      <point x="63" y="331" type="curve"/>
      <point x="63" y="210"/>
      <point x="158" y="140"/>
      <point x="286" y="140" type="curve"/>
      <point x="419" y="140"/>
      <point x="519" y="212"/>
      <point x="519" y="339" type="curve"/>
      <point x="519" y="464"/>
      <point x="423" y="538"/>
      <point x="293" y="538" type="curve"/>
      <point x="159" y="538"/>
      <point x="63" y="460"/>
      <point x="63" y="331" type="curve"/>
      <point x="209" y="336"/>
      <point x="63" y="331"/>
    </contour>
    <contour>
      <point x="170" y="247" type="curve"/>
      <point x="111" y="216"/>
      <point x="66" y="178"/>
      <point x="66" y="113" type="curve"/>
      <point x="66" y="10"/>
      <point x="164" y="-24"/>
      <point x="275" y="-34" type="curve"/>
      <point x="352" y="-40"/>
      <point x="427" y="-49"/>
      <point x="427" y="-119" type="curve"/>
      <point x="427" y="-177"/>
      <point x="364" y="-195"/>
      <point x="294" y="-195" type="curve"/>
      <point x="228" y="-195"/>
      <point x="174" y="-167"/>
      <point x="174" y="-104" type="curve"/>
      <point x="174" y="-51"/>
      <point x="196" y="-13"/>
      <point x="237" y="3" type="curve"/>
      <point x="165" y="69"/>
      <point x="237" y="3"/>
      <point x="165" y="69" type="curve"/>
      <point x="85" y="37"/>
      <point x="29" y="-17"/>
      <point x="29" y="-109" type="curve"/>
      <point x="29" y="-244"/>
      <point x="144" y="-305"/>
      <point x="288" y="-305" type="curve"/>
      <point x="436" y="-305"/>
      <point x="562" y="-248"/>
      <point x="560" y="-108" type="curve"/>
      <point x="560" y="24"/>
      <point x="438" y="61"/>
      <point x="302" y="72" type="curve"/>
      <point x="255" y="75"/>
      <point x="212" y="86"/>
      <point x="212" y="124" type="curve"/>
      <point x="212" y="148"/>
      <point x="222" y="163"/>
      <point x="242" y="176" type="curve"/>
      <point x="170" y="247"/>
      <point x="242" y="176"/>
    </contour>
  </outline>
</glyph>
<glyph name="h" format="1">
  <advance width="632"/>
  <unicode hex="0068"/>
  <outline>
    <contour>
      <point x="483" y="-1" type="curve"/>
      <point x="535" y="-1"/>
      <point x="577" y="0"/>
      <point x="628" y="0" type="curve"/>
      <point x="628" y="110"/>
      <point x="628" y="0"/>
      <point x="628" y="110" type="curve"/>
      <point x="476" y="110"/>
      <point x="636" y="110"/>
      <point x="483" y="110" type="curve"/>
      <point x="483" y="-1"/>
      <point x="483" y="110"/>
    </contour>
    <contour>
      <point x="152" y="-1" type="curve"/>
      <point x="197" y="-1"/>
      <point x="144" y="-1"/>
      <point x="277" y="0" type="curve"/>
      <point x="277" y="110"/>
      <point x="277" y="0"/>
      <point x="277" y="110" type="curve"/>
      <point x="144" y="110"/>
      <point x="285" y="110"/>
      <point x="152" y="110" type="curve"/>
      <point x="152" y="-1"/>
      <point x="152" y="110"/>
    </contour>
    <contour>
      <point x="152" y="799" type="curve"/>
      <point x="101" y="799"/>
      <point x="58" y="800"/>
      <point x="8" y="800" type="curve"/>
      <point x="8" y="690"/>
      <point x="8" y="800"/>
      <point x="8" y="690" type="curve"/>
      <point x="160" y="689"/>
      <point x="0" y="690"/>
      <point x="152" y="689" type="curve"/>
      <point x="152" y="799"/>
      <point x="152" y="689"/>
    </contour>
    <contour>
      <point x="152" y="110" type="curve"/>
      <point x="0" y="110"/>
      <point x="160" y="110"/>
      <point x="8" y="110" type="curve"/>
      <point x="8" y="0"/>
      <point x="8" y="110"/>
      <point x="8" y="0" type="curve"/>
      <point x="58" y="0"/>
      <point x="101" y="-1"/>
      <point x="152" y="-1" type="curve"/>
      <point x="152" y="110"/>
      <point x="152" y="-1"/>
    </contour>
    <contour>
      <point x="192" y="293" type="curve"/>
      <point x="216" y="363"/>
      <point x="263" y="424"/>
      <point x="330" y="424" type="curve"/>
      <point x="395" y="424"/>
      <point x="412" y="372"/>
      <point x="412" y="304" type="curve"/>
      <point x="412" y="202"/>
      <point x="412" y="103"/>
      <point x="412" y="0" type="curve"/>
      <point x="557" y="0"/>
      <point x="412" y="0"/>
      <point x="557" y="0" type="curve"/>
      <point x="557" y="106"/>
      <point x="557" y="212"/>
      <point x="557" y="319" type="curve"/>
      <point x="557" y="452"/>
      <point x="502" y="534"/>
      <point x="366" y="534" type="curve"/>
      <point x="263" y="534"/>
      <point x="178" y="457"/>
      <point x="145" y="346" type="curve"/>
      <point x="193" y="291"/>
      <point x="144" y="348"/>
    </contour>
    <contour>
      <point x="224" y="0" type="curve"/>
      <point x="224" y="267"/>
      <point x="224" y="533"/>
      <point x="224" y="800" type="curve"/>
      <point x="79" y="800"/>
      <point x="224" y="800"/>
      <point x="79" y="800" type="curve"/>
      <point x="79" y="533"/>
      <point x="79" y="267"/>
      <point x="79" y="0" type="curve"/>
      <point x="224" y="0"/>
      <point x="79" y="0"/>
    </contour>
  </outline>
</glyph>
<glyph name="i" format="1">
  <advance width="331"/>
  <unicode hex="0069"/>
  <outline>
    <contour>
      <point x="168" y="612" type="move" name="top"/>
    </contour>
    <contour>
      <point x="238" y="7" type="move" name="bottom"/>
    </contour>
    <contour>
      <point x="172" y="110" type="curve"/>
      <point x="20" y="110"/>
      <point x="180" y="110"/>
      <point x="28" y="110" type="curve"/>
      <point x="28" y="0"/>
      <point x="28" y="110"/>
      <point x="28" y="0" type="curve"/>
      <point x="79" y="0"/>
      <point x="122" y="0"/>
      <point x="172" y="0" type="curve"/>
      <point x="172" y="110"/>
      <point x="172" y="0"/>
    </contour>
    <contour>
      <point x="172" y="0" type="curve"/>
      <point x="220" y="0"/>
      <point x="262" y="0"/>
      <point x="310" y="0" type="curve"/>
      <point x="310" y="110"/>
      <point x="310" y="0"/>
      <point x="310" y="110" type="curve"/>
      <point x="167" y="110"/>
      <point x="315" y="110"/>
      <point x="172" y="110" type="curve"/>
      <point x="172" y="0"/>
      <point x="172" y="110"/>
    </contour>
    <contour>
      <point x="172" y="533" type="curve"/>
      <point x="122" y="533"/>
      <point x="79" y="533"/>
      <point x="28" y="533" type="curve"/>
      <point x="28" y="423"/>
      <point x="28" y="533"/>
      <point x="28" y="423" type="curve"/>
      <point x="180" y="423"/>
      <point x="20" y="423"/>
      <point x="172" y="423" type="curve"/>
      <point x="172" y="533"/>
      <point x="172" y="423"/>
    </contour>
    <contour>
      <point x="249" y="0" type="curve"/>
      <point x="249" y="178"/>
      <point x="249" y="355"/>
      <point x="249" y="533" type="curve"/>
      <point x="96" y="533"/>
      <point x="249" y="533"/>
      <point x="96" y="533" type="curve"/>
      <point x="96" y="355"/>
      <point x="96" y="178"/>
      <point x="96" y="0" type="curve"/>
      <point x="249" y="0"/>
      <point x="96" y="0"/>
    </contour>
    <contour>
      <point x="248" y="680" type="curve"/>
      <point x="248" y="728"/>
      <point x="213" y="752"/>
      <point x="168" y="752" type="curve"/>
      <point x="122" y="752"/>
      <point x="91" y="726"/>
      <point x="91" y="680" type="curve"/>
      <point x="247" y="680"/>
      <point x="91" y="680"/>
      <point x="248" y="680" type="curve"/>
      <point x="248" y="631"/>
      <point x="214" y="609"/>
      <point x="168" y="609" type="curve"/>
      <point x="121" y="609"/>
      <point x="91" y="633"/>
      <point x="91" y="680" type="curve"/>
      <point x="247" y="680"/>
      <point x="91" y="680"/>
    </contour>
  </outline>
</glyph>
<glyph name="j" format="1">
  <advance width="295"/>
  <unicode hex="006A"/>
  <outline>
    <contour>
      <point x="148" y="533" type="curve"/>
      <point x="97" y="533"/>
      <point x="47" y="533"/>
      <point x="-3" y="533" type="curve"/>
      <point x="-3" y="423"/>
      <point x="-3" y="533"/>
      <point x="-3" y="423" type="curve"/>
      <point x="148" y="423"/>
      <point x="-3" y="423"/>
      <point x="148" y="423" type="curve"/>
      <point x="148" y="533"/>
      <point x="148" y="423"/>
    </contour>
    <contour>
      <point x="-18" y="-303" type="curve"/>
      <point x="-9" y="-304"/>
      <point x="2" y="-305"/>
      <point x="14" y="-305" type="curve"/>
      <point x="135" y="-305"/>
      <point x="222" y="-236"/>
      <point x="222" y="-119" type="curve"/>
      <point x="222" y="98"/>
      <point x="222" y="316"/>
      <point x="222" y="534" type="curve"/>
      <point x="77" y="534"/>
      <point x="222" y="534"/>
      <point x="77" y="534" type="curve"/>
      <point x="77" y="316"/>
      <point x="77" y="98"/>
      <point x="77" y="-119" type="curve"/>
      <point x="77" y="-164"/>
      <point x="63" y="-200"/>
      <point x="20" y="-200" type="curve"/>
      <point x="14" y="-200"/>
      <point x="9" y="-200"/>
      <point x="2" y="-199" type="curve"/>
      <point x="-17" y="-303"/>
      <point x="2" y="-199"/>
    </contour>
    <contour>
      <point x="226" y="674" type="curve"/>
      <point x="226" y="722"/>
      <point x="193" y="746"/>
      <point x="147" y="746" type="curve"/>
      <point x="101" y="746"/>
      <point x="70" y="720"/>
      <point x="70" y="674" type="curve"/>
      <point x="226" y="674"/>
      <point x="70" y="674"/>
      <point x="226" y="674" type="curve"/>
      <point x="226" y="625"/>
      <point x="194" y="603"/>
      <point x="146" y="603" type="curve"/>
      <point x="100" y="603"/>
      <point x="70" y="627"/>
      <point x="70" y="674" type="curve"/>
      <point x="226" y="674"/>
      <point x="70" y="674"/>
    </contour>
  </outline>
</glyph>
<glyph name="k" format="1">
  <advance width="592"/>
  <unicode hex="006B"/>
  <outline>
    <contour>
      <point x="371" y="-2" type="move" name="bottom"/>
    </contour>
    <contour>
      <point x="150" y="110" type="curve"/>
      <point x="-1" y="110"/>
      <point x="158" y="110"/>
      <point x="7" y="110" type="curve"/>
      <point x="7" y="0"/>
      <point x="7" y="110"/>
      <point x="7" y="0" type="curve"/>
      <point x="57" y="0"/>
      <point x="100" y="-1"/>
      <point x="150" y="-1" type="curve"/>
      <point x="150" y="110"/>
      <point x="150" y="-1"/>
    </contour>
    <contour>
      <point x="435" y="0" type="curve"/>
      <point x="485" y="0"/>
      <point x="524" y="0"/>
      <point x="575" y="0" type="curve"/>
      <point x="575" y="110"/>
      <point x="575" y="0"/>
      <point x="575" y="110" type="curve"/>
      <point x="424" y="110"/>
      <point x="588" y="110"/>
      <point x="437" y="110" type="curve"/>
      <point x="437" y="0"/>
      <point x="435" y="110"/>
    </contour>
    <contour>
      <point x="446" y="423" type="curve"/>
      <point x="566" y="423"/>
      <point x="433" y="423"/>
      <point x="553" y="423" type="curve"/>
      <point x="553" y="533"/>
      <point x="553" y="423"/>
      <point x="553" y="533" type="curve"/>
      <point x="513" y="533"/>
      <point x="486" y="533"/>
      <point x="446" y="533" type="curve"/>
      <point x="446" y="423"/>
      <point x="446" y="533"/>
    </contour>
    <contour>
      <point x="150" y="-1" type="curve"/>
      <point x="193" y="-1"/>
      <point x="150" y="-1"/>
      <point x="274" y="0" type="curve"/>
      <point x="274" y="110"/>
      <point x="274" y="0"/>
      <point x="274" y="110" type="curve"/>
      <point x="150" y="110"/>
      <point x="274" y="110"/>
      <point x="150" y="110" type="curve"/>
      <point x="150" y="-1"/>
      <point x="150" y="110"/>
    </contour>
    <contour>
      <point x="473" y="533" type="curve"/>
      <point x="404" y="533"/>
      <point x="338" y="533"/>
      <point x="269" y="533" type="curve"/>
      <point x="269" y="423"/>
      <point x="269" y="533"/>
      <point x="269" y="423" type="curve"/>
      <point x="475" y="423"/>
      <point x="266" y="423"/>
      <point x="473" y="423" type="curve"/>
      <point x="473" y="533"/>
      <point x="473" y="423"/>
    </contour>
    <contour>
      <point x="153" y="799" type="curve"/>
      <point x="102" y="799"/>
      <point x="59" y="800"/>
      <point x="8" y="800" type="curve"/>
      <point x="8" y="690"/>
      <point x="8" y="800"/>
      <point x="8" y="690" type="curve"/>
      <point x="161" y="689"/>
      <point x="0" y="690"/>
      <point x="153" y="689" type="curve"/>
      <point x="153" y="799"/>
      <point x="153" y="689"/>
    </contour>
    <contour>
      <point x="223" y="0" type="curve"/>
      <point x="223" y="800" type="line"/>
      <point x="78" y="800"/>
      <point x="223" y="800"/>
      <point x="78" y="800" type="curve"/>
      <point x="78" y="533"/>
      <point x="78" y="267"/>
      <point x="78" y="0" type="curve"/>
      <point x="223" y="0"/>
      <point x="78" y="0"/>
    </contour>
    <contour>
      <point x="407" y="533" type="curve"/>
      <point x="196" y="275" type="line"/>
      <point x="344" y="275"/>
      <point x="196" y="275"/>
      <point x="344" y="275" type="curve"/>
      <point x="534" y="483" type="line"/>
      <point x="392" y="483"/>
      <point x="549" y="533"/>
    </contour>
    <contour>
      <point x="546" y="66" type="curve"/>
      <point x="344" y="275" type="line"/>
      <point x="196" y="275"/>
      <point x="344" y="275"/>
      <point x="196" y="275" type="curve"/>
      <point x="430" y="0" type="line"/>
      <point x="564" y="0"/>
      <point x="412" y="66"/>
    </contour>
  </outline>
</glyph>
<glyph name="l" format="1">
  <advance width="343"/>
  <unicode hex="006C"/>
  <outline>
    <contour>
      <point x="173" y="880" type="move" name="top"/>
    </contour>
    <contour>
      <point x="230" y="4" type="move" name="bottom"/>
    </contour>
    <contour>
      <point x="171" y="110" type="curve"/>
      <point x="20" y="110"/>
      <point x="171" y="110"/>
      <point x="20" y="110" type="curve"/>
      <point x="20" y="0"/>
      <point x="20" y="110"/>
      <point x="20" y="0" type="curve"/>
      <point x="71" y="0"/>
      <point x="121" y="0"/>
      <point x="171" y="0" type="curve"/>
      <point x="171" y="110"/>
      <point x="171" y="-1"/>
    </contour>
    <contour>
      <point x="174" y="800" type="curve"/>
      <point x="124" y="800"/>
      <point x="73" y="800"/>
      <point x="23" y="800" type="curve"/>
      <point x="22" y="690"/>
      <point x="23" y="800"/>
      <point x="22" y="690" type="curve"/>
      <point x="174" y="689"/>
      <point x="22" y="690"/>
      <point x="174" y="689" type="curve"/>
      <point x="174" y="799"/>
      <point x="174" y="690"/>
    </contour>
    <contour>
      <point x="171" y="0" type="curve"/>
      <point x="222" y="0"/>
      <point x="273" y="0"/>
      <point x="324" y="0" type="curve"/>
      <point x="324" y="110"/>
      <point x="324" y="0"/>
      <point x="324" y="110" type="curve"/>
      <point x="171" y="110"/>
      <point x="324" y="110"/>
      <point x="171" y="110" type="curve"/>
      <point x="171" y="-1"/>
      <point x="171" y="110"/>
    </contour>
    <contour>
      <point x="244" y="0" type="curve"/>
      <point x="244" y="267"/>
      <point x="244" y="533"/>
      <point x="244" y="800" type="curve"/>
      <point x="99" y="800"/>
      <point x="244" y="800"/>
      <point x="99" y="800" type="curve"/>
      <point x="99" y="533"/>
      <point x="99" y="267"/>
      <point x="99" y="0" type="curve"/>
      <point x="244" y="0"/>
      <point x="99" y="0"/>
    </contour>
  </outline>
</glyph>
<glyph name="m" format="1">
  <advance width="966"/>
  <unicode hex="006D"/>
  <outline>
    <contour>
      <point x="493" y="0" type="curve"/>
      <point x="620" y="0"/>
      <point x="493" y="0"/>
      <point x="620" y="0" type="curve"/>
      <point x="620" y="110"/>
      <point x="620" y="0"/>
      <point x="620" y="110" type="curve"/>
      <point x="493" y="110"/>
      <point x="620" y="110"/>
      <point x="493" y="110" type="curve"/>
      <point x="493" y="0"/>
      <point x="493" y="110"/>
    </contour>
    <contour>
      <point x="792" y="0" type="curve"/>
      <point x="837" y="0"/>
      <point x="882" y="0"/>
      <point x="928" y="0" type="curve"/>
      <point x="928" y="110"/>
      <point x="928" y="0"/>
      <point x="928" y="110" type="curve"/>
      <point x="792" y="110"/>
      <point x="928" y="110"/>
      <point x="792" y="110" type="curve"/>
      <point x="792" y="0"/>
      <point x="792" y="110"/>
    </contour>
    <contour>
      <point x="196" y="110" type="curve"/>
      <point x="53" y="110"/>
      <point x="196" y="110"/>
      <point x="53" y="110" type="curve"/>
      <point x="52" y="0"/>
      <point x="53" y="110"/>
      <point x="52" y="0" type="curve"/>
      <point x="100" y="0"/>
      <point x="148" y="0"/>
      <point x="196" y="0" type="curve"/>
      <point x="196" y="110"/>
      <point x="196" y="0"/>
    </contour>
    <contour>
      <point x="196" y="0" type="curve"/>
      <point x="238" y="0"/>
      <point x="196" y="0"/>
      <point x="322" y="0" type="curve"/>
      <point x="322" y="110"/>
      <point x="322" y="0"/>
      <point x="322" y="110" type="curve"/>
      <point x="196" y="110"/>
      <point x="322" y="110"/>
      <point x="196" y="110" type="curve"/>
      <point x="196" y="0"/>
      <point x="196" y="110"/>
    </contour>
    <contour>
      <point x="196" y="533" type="curve"/>
      <point x="148" y="533"/>
      <point x="100" y="533"/>
      <point x="53" y="533" type="curve"/>
      <point x="52" y="423"/>
      <point x="53" y="533"/>
      <point x="52" y="423" type="curve"/>
      <point x="196" y="423"/>
      <point x="52" y="423"/>
      <point x="196" y="423" type="curve"/>
      <point x="196" y="533"/>
      <point x="196" y="423"/>
    </contour>
    <contour>
      <point x="533" y="269" type="curve"/>
      <point x="560" y="347"/>
      <point x="585" y="423"/>
      <point x="650" y="423" type="curve"/>
      <point x="714" y="423"/>
      <point x="718" y="377"/>
      <point x="718" y="308" type="curve"/>
      <point x="718" y="205"/>
      <point x="718" y="103"/>
      <point x="718" y="0" type="curve"/>
      <point x="863" y="0"/>
      <point x="718" y="0"/>
      <point x="863" y="0" type="curve"/>
      <point x="863" y="106"/>
      <point x="863" y="212"/>
      <point x="863" y="319" type="curve"/>
      <point x="863" y="457"/>
      <point x="833" y="538"/>
      <point x="696" y="538" type="curve"/>
      <point x="591" y="538"/>
      <point x="526" y="453"/>
      <point x="485" y="331" type="curve"/>
      <point x="536" y="271"/>
      <point x="481" y="329"/>
    </contour>
    <contour>
      <point x="236" y="271" type="curve"/>
      <point x="261" y="349"/>
      <point x="286" y="423"/>
      <point x="352" y="423" type="curve"/>
      <point x="416" y="423"/>
      <point x="420" y="377"/>
      <point x="420" y="308" type="curve"/>
      <point x="420" y="205"/>
      <point x="420" y="103"/>
      <point x="420" y="0" type="curve"/>
      <point x="566" y="0"/>
      <point x="420" y="0"/>
      <point x="566" y="0" type="curve"/>
      <point x="566" y="106"/>
      <point x="566" y="212"/>
      <point x="566" y="319" type="curve"/>
      <point x="566" y="457"/>
      <point x="536" y="538"/>
      <point x="400" y="538" type="curve"/>
      <point x="293" y="538"/>
      <point x="235" y="457"/>
      <point x="188" y="333" type="curve"/>
      <point x="239" y="273"/>
      <point x="184" y="331"/>
    </contour>
    <contour>
      <point x="268" y="0" type="curve"/>
      <point x="268" y="178"/>
      <point x="268" y="355"/>
      <point x="268" y="533" type="curve"/>
      <point x="124" y="533"/>
      <point x="268" y="533"/>
      <point x="124" y="533" type="curve"/>
      <point x="124" y="355"/>
      <point x="124" y="178"/>
      <point x="124" y="0" type="curve"/>
      <point x="268" y="0"/>
      <point x="124" y="0"/>
    </contour>
  </outline>
</glyph>
<glyph name="n" format="1">
  <advance width="652"/>
  <unicode hex="006E"/>
  <outline>
    <contour>
      <point x="339" y="611" type="move" name="top"/>
    </contour>
    <contour>
      <point x="378" y="14" type="move" name="bottom"/>
    </contour>
    <contour>
      <point x="213" y="260" type="curve"/>
      <point x="233" y="347"/>
      <point x="275" y="423"/>
      <point x="345" y="423" type="curve"/>
      <point x="409" y="423"/>
      <point x="431" y="375"/>
      <point x="431" y="308" type="curve"/>
      <point x="431" y="203"/>
      <point x="431" y="105"/>
      <point x="431" y="0" type="curve"/>
      <point x="550" y="0"/>
      <point x="457" y="0"/>
      <point x="576" y="0" type="curve"/>
      <point x="576" y="109"/>
      <point x="576" y="210"/>
      <point x="576" y="319" type="curve"/>
      <point x="576" y="452"/>
      <point x="525" y="538"/>
      <point x="392" y="538" type="curve"/>
      <point x="279" y="538"/>
      <point x="198" y="457"/>
      <point x="163" y="319" type="curve"/>
      <point x="200" y="269"/>
      <point x="177" y="310"/>
    </contour>
    <contour>
      <point x="504" y="0" type="curve"/>
      <point x="554" y="0"/>
      <point x="596" y="0"/>
      <point x="647" y="0" type="curve"/>
      <point x="647" y="110"/>
      <point x="647" y="0"/>
      <point x="647" y="110" type="curve"/>
      <point x="496" y="110"/>
      <point x="655" y="110"/>
      <point x="504" y="110" type="curve"/>
      <point x="504" y="0"/>
      <point x="504" y="110"/>
    </contour>
    <contour>
      <point x="171" y="110" type="curve"/>
      <point x="19" y="110"/>
      <point x="179" y="110"/>
      <point x="27" y="110" type="curve"/>
      <point x="27" y="0"/>
      <point x="27" y="110"/>
      <point x="27" y="0" type="curve"/>
      <point x="77" y="0"/>
      <point x="120" y="0"/>
      <point x="171" y="0" type="curve"/>
      <point x="171" y="110"/>
      <point x="171" y="0"/>
    </contour>
    <contour>
      <point x="171" y="0" type="curve"/>
      <point x="219" y="0"/>
      <point x="163" y="0"/>
      <point x="305" y="0" type="curve"/>
      <point x="305" y="110"/>
      <point x="305" y="0"/>
      <point x="305" y="110" type="curve"/>
      <point x="163" y="110"/>
      <point x="313" y="110"/>
      <point x="171" y="110" type="curve"/>
      <point x="171" y="0"/>
      <point x="171" y="110"/>
    </contour>
    <contour>
      <point x="244" y="0" type="curve"/>
      <point x="244" y="178"/>
      <point x="244" y="355"/>
      <point x="244" y="533" type="curve"/>
      <point x="98" y="533"/>
      <point x="244" y="533"/>
      <point x="98" y="533" type="curve"/>
      <point x="98" y="355"/>
      <point x="98" y="178"/>
      <point x="98" y="0" type="curve"/>
      <point x="244" y="0"/>
      <point x="98" y="0"/>
    </contour>
    <contour>
      <point x="171" y="533" type="curve"/>
      <point x="120" y="533"/>
      <point x="77" y="533"/>
      <point x="27" y="533" type="curve"/>
      <point x="27" y="423"/>
      <point x="27" y="533"/>
      <point x="27" y="423" type="curve"/>
      <point x="179" y="423"/>
      <point x="19" y="423"/>
      <point x="171" y="423" type="curve"/>
      <point x="171" y="533"/>
      <point x="171" y="423"/>
    </contour>
  </outline>
</glyph>
<glyph name="o" format="1">
  <advance width="605"/>
  <unicode hex="006F"/>
  <outline>
    <contour>
      <point x="302" y="611" type="move" name="top"/>
    </contour>
    <contour>
      <point x="178" y="266" type="curve"/>
      <point x="178" y="352"/>
      <point x="211" y="424"/>
      <point x="296" y="424" type="curve"/>
      <point x="384" y="424"/>
      <point x="420" y="354"/>
      <point x="420" y="265" type="curve"/>
      <point x="420" y="174"/>
      <point x="387" y="109"/>
      <point x="306" y="109" type="curve"/>
      <point x="213" y="109"/>
      <point x="178" y="173"/>
      <point x="178" y="266" type="curve"/>
      <point x="136" y="266"/>
      <point x="82" y="266"/>
      <point x="40" y="266" type="curve"/>
      <point x="40" y="98"/>
      <point x="136" y="-5"/>
      <point x="299" y="-5" type="curve"/>
      <point x="467" y="-5"/>
      <point x="566" y="95"/>
      <point x="566" y="265" type="curve"/>
      <point x="566" y="433"/>
      <point x="470" y="538"/>
      <point x="303" y="538" type="curve"/>
      <point x="136" y="538"/>
      <point x="40" y="433"/>
      <point x="40" y="266" type="curve"/>
      <point x="82" y="266"/>
      <point x="136" y="266"/>
    </contour>
  </outline>
</glyph>
<glyph name="q" format="1">
  <advance width="667"/>
  <unicode hex="0071"/>
  <outline>
    <contour>
      <point x="493" y="423" type="curve"/>
      <point x="604" y="423"/>
      <point x="515" y="423"/>
      <point x="628" y="423" type="curve"/>
      <point x="628" y="513"/>
      <point x="628" y="442"/>
      <point x="628" y="533" type="curve"/>
      <point x="578" y="533"/>
      <point x="542" y="533"/>
      <point x="493" y="533" type="curve"/>
      <point x="493" y="442"/>
      <point x="493" y="513"/>
    </contour>
    <contour>
      <point x="491" y="-189" type="curve"/>
      <point x="372" y="-189"/>
      <point x="468" y="-189"/>
      <point x="347" y="-189" type="curve"/>
      <point x="347" y="-280"/>
      <point x="347" y="-208"/>
      <point x="347" y="-300" type="curve"/>
      <point x="400" y="-300"/>
      <point x="439" y="-300"/>
      <point x="491" y="-300" type="curve"/>
      <point x="491" y="-208"/>
      <point x="491" y="-280"/>
    </contour>
    <contour>
      <point x="491" y="-300" type="curve"/>
      <point x="541" y="-300"/>
      <point x="578" y="-300"/>
      <point x="627" y="-300" type="curve"/>
      <point x="627" y="-208"/>
      <point x="627" y="-280"/>
      <point x="627" y="-189" type="curve"/>
      <point x="514" y="-189"/>
      <point x="605" y="-189"/>
      <point x="491" y="-189" type="curve"/>
      <point x="491" y="-280"/>
      <point x="491" y="-208"/>
    </contour>
    <contour>
      <point x="503" y="391" type="curve"/>
      <point x="448" y="479"/>
      <point x="374" y="538"/>
      <point x="276" y="538" type="curve"/>
      <point x="115" y="538"/>
      <point x="40" y="422"/>
      <point x="40" y="264" type="curve"/>
      <point x="40" y="107"/>
      <point x="121" y="-5"/>
      <point x="281" y="-5" type="curve"/>
      <point x="377" y="-5"/>
      <point x="449" y="55"/>
      <point x="509" y="134" type="curve"/>
      <point x="469" y="185"/>
      <point x="493" y="145"/>
      <point x="454" y="195" type="curve"/>
      <point x="417" y="140"/>
      <point x="367" y="105"/>
      <point x="304" y="105" type="curve"/>
      <point x="217" y="105"/>
      <point x="186" y="178"/>
      <point x="186" y="270" type="curve"/>
      <point x="186" y="357"/>
      <point x="219" y="425"/>
      <point x="302" y="425" type="curve"/>
      <point x="364" y="425"/>
      <point x="411" y="395"/>
      <point x="459" y="325" type="curve"/>
      <point x="486" y="380"/>
      <point x="473" y="336"/>
    </contour>
    <contour>
      <point x="567" y="-300" type="curve"/>
      <point x="567" y="-14"/>
      <point x="567" y="247"/>
      <point x="567" y="533" type="curve"/>
      <point x="443" y="533"/>
      <point x="539" y="533"/>
      <point x="415" y="533" type="curve"/>
      <point x="415" y="247"/>
      <point x="415" y="-14"/>
      <point x="415" y="-300" type="curve"/>
      <point x="539" y="-300"/>
      <point x="443" y="-300"/>
    </contour>
  </outline>
</glyph>
<glyph name="u" format="1">
  <advance width="668"/>
  <unicode hex="0075"/>
  <outline>
    <contour>
      <point x="306" y="611" type="move" name="top"/>
    </contour>
    <contour>
      <point x="555" y="8" type="move" name="bottom"/>
    </contour>
    <contour>
      <point x="492" y="533" type="curve"/>
      <point x="443" y="533"/>
      <point x="397" y="533"/>
      <point x="348" y="533" type="curve"/>
      <point x="348" y="442"/>
      <point x="348" y="513"/>
      <point x="348" y="423" type="curve"/>
      <point x="466" y="423"/>
      <point x="375" y="423"/>
      <point x="492" y="423" type="curve"/>
      <point x="492" y="513"/>
      <point x="492" y="442"/>
    </contour>
    <contour>
      <point x="165" y="533" type="curve"/>
      <point x="116" y="533"/>
      <point x="70" y="533"/>
      <point x="21" y="533" type="curve"/>
      <point x="21" y="442"/>
      <point x="21" y="513"/>
      <point x="21" y="423" type="curve"/>
      <point x="139" y="423"/>
      <point x="48" y="423"/>
      <point x="165" y="423" type="curve"/>
      <point x="165" y="513"/>
      <point x="165" y="442"/>
    </contour>
    <contour>
      <point x="492" y="0" type="curve"/>
      <point x="538" y="0"/>
      <point x="581" y="0"/>
      <point x="627" y="0" type="curve"/>
      <point x="627" y="91"/>
      <point x="627" y="20"/>
      <point x="627" y="110" type="curve"/>
      <point x="518" y="110"/>
      <point x="602" y="110"/>
      <point x="492" y="110" type="curve"/>
      <point x="492" y="20"/>
      <point x="492" y="91"/>
    </contour>
    <contour>
      <point x="565" y="0" type="curve"/>
      <point x="565" y="182"/>
      <point x="565" y="351"/>
      <point x="565" y="533" type="curve"/>
      <point x="446" y="533"/>
      <point x="538" y="533"/>
      <point x="419" y="533" type="curve"/>
      <point x="419" y="351"/>
      <point x="419" y="182"/>
      <point x="419" y="0" type="curve"/>
      <point x="538" y="0"/>
      <point x="446" y="0"/>
    </contour>
    <contour>
      <point x="453" y="240" type="curve"/>
      <point x="426" y="175"/>
      <point x="388" y="109"/>
      <point x="320" y="109" type="curve"/>
      <point x="260" y="109"/>
      <point x="238" y="155"/>
      <point x="238" y="219" type="curve"/>
      <point x="238" y="327"/>
      <point x="238" y="426"/>
      <point x="238" y="533" type="curve"/>
      <point x="119" y="533"/>
      <point x="212" y="533"/>
      <point x="93" y="533" type="curve"/>
      <point x="93" y="424"/>
      <point x="93" y="323"/>
      <point x="93" y="214" type="curve"/>
      <point x="93" y="80"/>
      <point x="157" y="-5"/>
      <point x="298" y="-5" type="curve"/>
      <point x="402" y="-5"/>
      <point x="467" y="78"/>
      <point x="509" y="188" type="curve"/>
      <point x="464" y="227"/>
      <point x="498" y="202"/>
    </contour>
  </outline>
</glyph>
<glyph name="v" format="1">
  <advance width="631"/>
  <unicode hex="0076"/>
  <outline>
    <contour>
      <point x="135" y="533" type="curve"/>
      <point x="96" y="533"/>
      <point x="59" y="533"/>
      <point x="21" y="533" type="curve"/>
      <point x="21" y="423"/>
      <point x="21" y="533"/>
      <point x="21" y="423" type="curve"/>
      <point x="135" y="423"/>
      <point x="20" y="423"/>
      <point x="135" y="423" type="curve"/>
      <point x="135" y="533"/>
      <point x="135" y="423"/>
    </contour>
    <contour>
      <point x="135" y="423" type="curve"/>
      <point x="278" y="423"/>
      <point x="135" y="423"/>
      <point x="278" y="423" type="curve"/>
      <point x="278" y="533"/>
      <point x="278" y="423"/>
      <point x="278" y="533" type="curve"/>
      <point x="230" y="533"/>
      <point x="183" y="533"/>
      <point x="135" y="533" type="curve"/>
      <point x="135" y="423"/>
      <point x="135" y="533"/>
    </contour>
    <contour>
      <point x="505" y="533" type="curve"/>
      <point x="457" y="533"/>
      <point x="409" y="533"/>
      <point x="361" y="533" type="curve"/>
      <point x="361" y="423"/>
      <point x="361" y="533"/>
      <point x="361" y="423" type="curve"/>
      <point x="505" y="423"/>
      <point x="361" y="423"/>
      <point x="505" y="423" type="curve"/>
      <point x="505" y="533"/>
      <point x="505" y="423"/>
    </contour>
    <contour>
      <point x="505" y="423" type="curve"/>
      <point x="622" y="423"/>
      <point x="504" y="423"/>
      <point x="622" y="423" type="curve"/>
      <point x="622" y="533"/>
      <point x="622" y="423"/>
      <point x="622" y="533" type="curve"/>
      <point x="583" y="533"/>
      <point x="544" y="533"/>
      <point x="505" y="533" type="curve"/>
      <point x="505" y="423"/>
      <point x="505" y="533"/>
    </contour>
    <contour>
      <point x="46" y="533" type="curve"/>
      <point x="109" y="355"/>
      <point x="171" y="178"/>
      <point x="233" y="0" type="curve"/>
      <point x="371" y="0"/>
      <point x="233" y="0"/>
      <point x="371" y="0" type="curve"/>
      <point x="310" y="177"/>
      <point x="255" y="356"/>
      <point x="194" y="533" type="curve"/>
      <point x="46" y="533"/>
      <point x="194" y="533"/>
    </contour>
    <contour>
      <point x="447" y="533" type="curve"/>
      <point x="259" y="0" type="line"/>
      <point x="397" y="0"/>
      <point x="259" y="0"/>
      <point x="397" y="0" type="curve"/>
      <point x="462" y="178"/>
      <point x="527" y="355"/>
      <point x="592" y="533" type="curve"/>
      <point x="447" y="533"/>
      <point x="592" y="533"/>
    </contour>
  </outline>
</glyph>
<glyph name="w" format="1">
  <advance width="913"/>
  <unicode hex="0077"/>
  <outline>
    <contour>
      <point x="772" y="423" type="curve"/>
      <point x="899" y="423"/>
      <point x="772" y="423"/>
      <point x="899" y="423" type="curve"/>
      <point x="899" y="533"/>
      <point x="899" y="423"/>
      <point x="899" y="533" type="curve"/>
      <point x="857" y="533"/>
      <point x="814" y="533"/>
      <point x="772" y="533" type="curve"/>
      <point x="772" y="423"/>
      <point x="772" y="533"/>
    </contour>
    <contour>
      <point x="772" y="533" type="curve"/>
      <point x="728" y="533"/>
      <point x="684" y="533"/>
      <point x="641" y="533" type="curve"/>
      <point x="641" y="423"/>
      <point x="641" y="533"/>
      <point x="641" y="423" type="curve"/>
      <point x="772" y="423"/>
      <point x="641" y="423"/>
      <point x="772" y="423" type="curve"/>
      <point x="772" y="533"/>
      <point x="772" y="423"/>
    </contour>
    <contour>
      <point x="145" y="533" type="curve"/>
      <point x="102" y="533"/>
      <point x="60" y="533"/>
      <point x="17" y="533" type="curve"/>
      <point x="17" y="423"/>
      <point x="17" y="533"/>
      <point x="17" y="423" type="curve"/>
      <point x="145" y="423"/>
      <point x="17" y="423"/>
      <point x="145" y="423" type="curve"/>
      <point x="145" y="533"/>
      <point x="145" y="423"/>
    </contour>
    <contour>
      <point x="145" y="423" type="curve"/>
      <point x="271" y="423"/>
      <point x="144" y="423"/>
      <point x="271" y="423" type="curve"/>
      <point x="271" y="533"/>
      <point x="271" y="423"/>
      <point x="271" y="533" type="curve"/>
      <point x="229" y="533"/>
      <point x="186" y="533"/>
      <point x="145" y="533" type="curve"/>
      <point x="145" y="423"/>
      <point x="145" y="533"/>
    </contour>
    <contour>
      <point x="345" y="0" type="curve"/>
      <point x="406" y="178"/>
      <point x="467" y="355"/>
      <point x="527" y="533" type="curve"/>
      <point x="395" y="533"/>
      <point x="527" y="533"/>
      <point x="395" y="533" type="curve"/>
      <point x="336" y="355"/>
      <point x="276" y="178"/>
      <point x="216" y="0" type="curve"/>
      <point x="345" y="0"/>
      <point x="216" y="0"/>
    </contour>
    <contour>
      <point x="733" y="533" type="curve"/>
      <point x="677" y="355"/>
      <point x="621" y="178"/>
      <point x="566" y="0" type="curve"/>
      <point x="694" y="0"/>
      <point x="566" y="0"/>
      <point x="694" y="0" type="curve"/>
      <point x="751" y="178"/>
      <point x="809" y="355"/>
      <point x="865" y="533" type="curve"/>
      <point x="733" y="533"/>
      <point x="865" y="533"/>
    </contour>
    <contour>
      <point x="401" y="533" type="curve"/>
      <point x="455" y="355"/>
      <point x="510" y="178"/>
      <point x="565" y="0" type="curve"/>
      <point x="694" y="0"/>
      <point x="565" y="0"/>
      <point x="694" y="0" type="curve"/>
      <point x="640" y="178"/>
      <point x="585" y="355"/>
      <point x="531" y="533" type="curve"/>
      <point x="401" y="533"/>
      <point x="531" y="533"/>
    </contour>
    <contour>
      <point x="52" y="533" type="curve"/>
      <point x="106" y="355"/>
      <point x="161" y="178"/>
      <point x="216" y="0" type="curve"/>
      <point x="344" y="0"/>
      <point x="216" y="0"/>
      <point x="344" y="0" type="curve"/>
      <point x="291" y="178"/>
      <point x="237" y="355"/>
      <point x="183" y="533" type="curve"/>
      <point x="52" y="533"/>
      <point x="183" y="533"/>
    </contour>
  </outline>
</glyph>
<glyph name="x" format="1">
  <advance width="609"/>
  <unicode hex="0078"/>
  <outline>
    <contour>
      <point x="117" y="110" type="curve"/>
      <point x="22" y="110"/>
      <point x="120" y="110"/>
      <point x="25" y="110" type="curve"/>
      <point x="25" y="0"/>
      <point x="25" y="110"/>
      <point x="25" y="0" type="curve"/>
      <point x="57" y="0"/>
      <point x="85" y="0"/>
      <point x="117" y="0" type="curve"/>
      <point x="117" y="110"/>
      <point x="117" y="0"/>
    </contour>
    <contour>
      <point x="516" y="110" type="curve"/>
      <point x="344" y="110"/>
      <point x="508" y="110"/>
      <point x="338" y="110" type="curve"/>
      <point x="338" y="0"/>
      <point x="338" y="110"/>
      <point x="338" y="0" type="curve"/>
      <point x="394" y="0"/>
      <point x="458" y="0"/>
      <point x="516" y="0" type="curve"/>
      <point x="516" y="110"/>
      <point x="516" y="0"/>
    </contour>
    <contour>
      <point x="501" y="0" type="curve"/>
      <point x="533" y="0"/>
      <point x="568" y="0"/>
      <point x="599" y="0" type="curve"/>
      <point x="599" y="110"/>
      <point x="599" y="0"/>
      <point x="599" y="110" type="curve"/>
      <point x="505" y="110"/>
      <point x="596" y="110"/>
      <point x="501" y="110" type="curve"/>
      <point x="501" y="0"/>
      <point x="501" y="110"/>
    </contour>
    <contour>
      <point x="103" y="0" type="curve"/>
      <point x="161" y="0"/>
      <point x="108" y="0"/>
      <point x="280" y="0" type="curve"/>
      <point x="280" y="110"/>
      <point x="280" y="0"/>
      <point x="280" y="110" type="curve"/>
      <point x="108" y="110"/>
      <point x="276" y="110"/>
      <point x="103" y="110" type="curve"/>
      <point x="103" y="0"/>
      <point x="103" y="110"/>
    </contour>
    <contour>
      <point x="482" y="423" type="curve"/>
      <point x="584" y="423"/>
      <point x="490" y="423"/>
      <point x="591" y="423" type="curve"/>
      <point x="591" y="533"/>
      <point x="591" y="423"/>
      <point x="591" y="533" type="curve"/>
      <point x="557" y="533"/>
      <point x="515" y="533"/>
      <point x="482" y="533" type="curve"/>
      <point x="482" y="423"/>
      <point x="482" y="533"/>
    </contour>
    <contour>
      <point x="163" y="533" type="curve"/>
      <point x="125" y="533"/>
      <point x="88" y="533"/>
      <point x="50" y="533" type="curve"/>
      <point x="50" y="423"/>
      <point x="50" y="533"/>
      <point x="50" y="423" type="curve"/>
      <point x="162" y="423"/>
      <point x="51" y="423"/>
      <point x="163" y="423" type="curve"/>
      <point x="163" y="533"/>
      <point x="163" y="423"/>
    </contour>
    <contour>
      <point x="133" y="423" type="curve"/>
      <point x="293" y="423"/>
      <point x="128" y="423"/>
      <point x="287" y="423" type="curve"/>
      <point x="287" y="533"/>
      <point x="287" y="423"/>
      <point x="287" y="533" type="curve"/>
      <point x="236" y="533"/>
      <point x="186" y="533"/>
      <point x="133" y="533" type="curve"/>
      <point x="133" y="423"/>
      <point x="133" y="533"/>
    </contour>
    <contour>
      <point x="503" y="533" type="curve"/>
      <point x="450" y="533"/>
      <point x="400" y="533"/>
      <point x="348" y="533" type="curve"/>
      <point x="348" y="423"/>
      <point x="348" y="533"/>
      <point x="348" y="423" type="curve"/>
      <point x="508" y="423"/>
      <point x="343" y="423"/>
      <point x="503" y="423" type="curve"/>
      <point x="503" y="533"/>
      <point x="503" y="423"/>
    </contour>
    <contour>
      <point x="566" y="44" type="curve"/>
      <point x="564" y="48"/>
      <point x="176" y="529"/>
      <point x="174" y="533" type="curve"/>
      <point x="68" y="533"/>
      <point x="172" y="483"/>
      <point x="66" y="483" type="curve"/>
      <point x="69" y="479"/>
      <point x="447" y="4"/>
      <point x="450" y="0" type="curve"/>
      <point x="564" y="0"/>
      <point x="452" y="44"/>
    </contour>
    <contour>
      <point x="464" y="533" type="curve"/>
      <point x="462" y="529"/>
      <point x="58" y="54"/>
      <point x="55" y="50" type="curve"/>
      <point x="165" y="50"/>
      <point x="58" y="0"/>
      <point x="168" y="0" type="curve"/>
      <point x="171" y="4"/>
      <point x="568" y="482"/>
      <point x="571" y="486" type="curve"/>
      <point x="463" y="486"/>
      <point x="572" y="533"/>
    </contour>
  </outline>
</glyph>
<glyph name="braceleft" format="1">
  <advance width="291"/>
  <unicode hex="007B"/>
  <outline>
    <contour>
      <point x="243" y="2" type="curve"/>
      <point x="209" y="2"/>
      <point x="205" y="30"/>
      <point x="205" y="66" type="curve"/>
      <point x="205" y="117"/>
      <point x="205" y="168"/>
      <point x="205" y="219" type="curve"/>
      <point x="205" y="327"/>
      <point x="142" y="399"/>
      <point x="36" y="399" type="curve"/>
      <point x="36" y="283"/>
      <point x="36" y="399"/>
      <point x="36" y="283" type="curve"/>
      <point x="65" y="283"/>
      <point x="73" y="260"/>
      <point x="73" y="230" type="curve"/>
      <point x="73" y="177"/>
      <point x="73" y="124"/>
      <point x="73" y="72" type="curve"/>
      <point x="73" y="-37"/>
      <point x="136" y="-108"/>
      <point x="243" y="-108" type="curve"/>
      <point x="243" y="2"/>
      <point x="243" y="-108"/>
    </contour>
    <contour>
      <point x="243" y="790" type="curve"/>
      <point x="136" y="790"/>
      <point x="73" y="722"/>
      <point x="73" y="614" type="curve"/>
      <point x="73" y="559"/>
      <point x="73" y="504"/>
      <point x="73" y="449" type="curve"/>
      <point x="73" y="420"/>
      <point x="64" y="399"/>
      <point x="36" y="399" type="curve"/>
      <point x="36" y="283"/>
      <point x="36" y="399"/>
      <point x="36" y="283" type="curve"/>
      <point x="142" y="283"/>
      <point x="205" y="355"/>
      <point x="205" y="466" type="curve"/>
      <point x="205" y="515"/>
      <point x="205" y="564"/>
      <point x="205" y="614" type="curve"/>
      <point x="205" y="650"/>
      <point x="208" y="679"/>
      <point x="243" y="679" type="curve"/>
      <point x="243" y="790"/>
      <point x="243" y="679"/>
    </contour>
  </outline>
</glyph>
<glyph name="bar" format="1">
  <advance width="291"/>
  <unicode hex="007C"/>
  <outline>
    <contour>
      <point x="218" y="-300" type="curve"/>
      <point x="218" y="67"/>
      <point x="218" y="433"/>
      <point x="218" y="800" type="curve"/>
      <point x="73" y="800"/>
      <point x="218" y="800"/>
      <point x="73" y="800" type="curve"/>
      <point x="73" y="433"/>
      <point x="73" y="67"/>
      <point x="73" y="-300" type="curve"/>
      <point x="218" y="-300"/>
      <point x="73" y="-300"/>
    </contour>
  </outline>
</glyph>
<glyph name="braceright" format="1">
  <advance width="292"/>
  <unicode hex="007D"/>
  <outline>
    <contour>
      <point x="49" y="-108" type="curve"/>
      <point x="155" y="-108"/>
      <point x="219" y="-37"/>
      <point x="219" y="72" type="curve"/>
      <point x="219" y="124"/>
      <point x="219" y="177"/>
      <point x="219" y="230" type="curve"/>
      <point x="219" y="260"/>
      <point x="226" y="283"/>
      <point x="256" y="283" type="curve"/>
      <point x="256" y="399"/>
      <point x="256" y="283"/>
      <point x="256" y="399" type="curve"/>
      <point x="149" y="399"/>
      <point x="87" y="327"/>
      <point x="87" y="219" type="curve"/>
      <point x="87" y="168"/>
      <point x="87" y="117"/>
      <point x="87" y="66" type="curve"/>
      <point x="87" y="30"/>
      <point x="82" y="2"/>
      <point x="49" y="2" type="curve"/>
      <point x="49" y="-108"/>
      <point x="49" y="2"/>
    </contour>
    <contour>
      <point x="49" y="679" type="curve"/>
      <point x="83" y="679"/>
      <point x="87" y="650"/>
      <point x="87" y="614" type="curve"/>
      <point x="87" y="564"/>
      <point x="87" y="515"/>
      <point x="87" y="466" type="curve"/>
      <point x="87" y="355"/>
      <point x="148" y="283"/>
      <point x="256" y="283" type="curve"/>
      <point x="256" y="399"/>
      <point x="256" y="283"/>
      <point x="256" y="399" type="curve"/>
      <point x="227" y="399"/>
      <point x="219" y="420"/>
      <point x="219" y="449" type="curve"/>
      <point x="219" y="504"/>
      <point x="219" y="559"/>
      <point x="219" y="614" type="curve"/>
      <point x="219" y="722"/>
      <point x="155" y="790"/>
      <point x="49" y="790" type="curve"/>
      <point x="49" y="679"/>
      <point x="49" y="790"/>
    </contour>
  </outline>
</glyph>
<glyph name="asciitilde" format="1">
  <advance width="664"/>
  <unicode hex="007E"/>
  <outline>
    <contour>
      <point x="493" y="379" type="curve"/>
      <point x="480" y="341"/>
      <point x="466" y="308"/>
      <point x="439" y="308" type="curve"/>
      <point x="411" y="308"/>
      <point x="397" y="315"/>
      <point x="376" y="331" type="curve"/>
      <point x="328" y="372"/>
      <point x="295" y="393"/>
      <point x="231" y="393" type="curve"/>
      <point x="133" y="393"/>
      <point x="84" y="340"/>
      <point x="58" y="244" type="curve"/>
      <point x="102" y="228"/>
      <point x="126" y="218"/>
      <point x="170" y="202" type="curve"/>
      <point x="182" y="244"/>
      <point x="197" y="277"/>
      <point x="228" y="277" type="curve"/>
      <point x="253" y="277"/>
      <point x="266" y="270"/>
      <point x="286" y="255" type="curve"/>
      <point x="337" y="213"/>
      <point x="371" y="193"/>
      <point x="437" y="192" type="curve"/>
      <point x="532" y="192"/>
      <point x="574" y="247"/>
      <point x="606" y="339" type="curve"/>
      <point x="562" y="355"/>
      <point x="538" y="364"/>
    </contour>
  </outline>
</glyph>
<glyph name="exclamdown" format="1">
  <advance width="276"/>
  <unicode hex="00A1"/>
  <outline>
    <contour>
      <point x="72" y="302" type="line"/>
      <point x="58" y="-191" type="line"/>
      <point x="218" y="-192" type="line"/>
      <point x="206" y="301" type="line"/>
    </contour>
    <contour>
      <point x="62" y="469" type="curve"/>
      <point x="62" y="421"/>
      <point x="95" y="397"/>
      <point x="140" y="396" type="curve"/>
      <point x="187" y="396"/>
      <point x="217" y="422"/>
      <point x="217" y="468" type="curve"/>
      <point x="62" y="469"/>
      <point x="217" y="468"/>
      <point x="62" y="469" type="curve"/>
      <point x="62" y="518"/>
      <point x="95" y="540"/>
      <point x="141" y="539" type="curve"/>
      <point x="189" y="539"/>
      <point x="218" y="515"/>
      <point x="217" y="468" type="curve"/>
      <point x="62" y="469"/>
      <point x="217" y="468"/>
    </contour>
  </outline>
</glyph>
<glyph name="cent" format="1">
  <advance width="646"/>
  <unicode hex="00A2"/>
  <outline>
    <contour>
      <point x="417" y="-53" type="curve"/>
      <point x="417" y="-13"/>
      <point x="417" y="27"/>
      <point x="417" y="67" type="curve"/>
      <point x="271" y="67"/>
      <point x="417" y="67"/>
      <point x="271" y="67" type="curve"/>
      <point x="271" y="27"/>
      <point x="271" y="-13"/>
      <point x="271" y="-53" type="curve"/>
      <point x="417" y="-53"/>
      <point x="271" y="-53"/>
    </contour>
    <contour>
      <point x="291" y="778" type="curve"/>
      <point x="291" y="742"/>
      <point x="291" y="706"/>
      <point x="291" y="670" type="curve"/>
      <point x="436" y="670"/>
      <point x="291" y="670"/>
      <point x="436" y="670" type="curve"/>
      <point x="436" y="706"/>
      <point x="436" y="742"/>
      <point x="436" y="778" type="curve"/>
      <point x="291" y="778"/>
      <point x="436" y="778"/>
    </contour>
    <contour>
      <point x="594" y="613" type="curve"/>
      <point x="520" y="668"/>
      <point x="460" y="687"/>
      <point x="373" y="687" type="curve"/>
      <point x="172" y="687"/>
      <point x="47" y="564"/>
      <point x="47" y="363" type="curve"/>
      <point x="47" y="172"/>
      <point x="151" y="45"/>
      <point x="337" y="45" type="curve"/>
      <point x="442" y="45"/>
      <point x="514" y="70"/>
      <point x="592" y="143" type="curve"/>
      <point x="509" y="230"/>
      <point x="592" y="143"/>
      <point x="509" y="230" type="curve"/>
      <point x="453" y="188"/>
      <point x="414" y="161"/>
      <point x="351" y="161" type="curve"/>
      <point x="243" y="161"/>
      <point x="193" y="249"/>
      <point x="193" y="369" type="curve"/>
      <point x="193" y="488"/>
      <point x="253" y="571"/>
      <point x="359" y="571" type="curve"/>
      <point x="420" y="571"/>
      <point x="462" y="554"/>
      <point x="518" y="518" type="curve"/>
      <point x="594" y="613"/>
      <point x="518" y="518"/>
    </contour>
    <contour>
      <point x="481" y="613" type="curve"/>
      <point x="481" y="491"/>
      <point x="481" y="589"/>
      <point x="481" y="467" type="curve"/>
      <point x="594" y="467"/>
      <point x="481" y="467"/>
      <point x="594" y="467" type="curve"/>
      <point x="594" y="589"/>
      <point x="594" y="491"/>
      <point x="594" y="613" type="curve"/>
      <point x="481" y="613"/>
      <point x="594" y="613"/>
    </contour>
  </outline>
</glyph>
<glyph name="sterling" format="1">
  <advance width="487"/>
  <unicode hex="00A3"/>
  <outline>
    <contour>
      <point x="416" y="111" type="curve"/>
      <point x="296" y="111"/>
      <point x="169" y="111"/>
      <point x="49" y="111" type="curve"/>
      <point x="49" y="0"/>
      <point x="49" y="111"/>
      <point x="49" y="0" type="curve"/>
      <point x="169" y="0"/>
      <point x="295" y="0"/>
      <point x="416" y="0" type="curve"/>
      <point x="416" y="111"/>
      <point x="416" y="0"/>
    </contour>
    <contour>
      <point x="368" y="430" type="curve"/>
      <point x="272" y="430"/>
      <point x="168" y="430"/>
      <point x="72" y="430" type="curve"/>
      <point x="72" y="320"/>
      <point x="72" y="430"/>
      <point x="72" y="320" type="curve"/>
      <point x="168" y="320"/>
      <point x="272" y="320"/>
      <point x="368" y="320" type="curve"/>
      <point x="368" y="430"/>
      <point x="368" y="320"/>
    </contour>
    <contour>
      <point x="449" y="660" type="curve"/>
      <point x="402" y="707"/>
      <point x="361" y="720"/>
      <point x="302" y="720" type="curve"/>
      <point x="132" y="720"/>
      <point x="74" y="558"/>
      <point x="115" y="362" type="curve"/>
      <point x="142" y="232"/>
      <point x="130" y="111"/>
      <point x="49" y="111" type="curve"/>
      <point x="49" y="0"/>
      <point x="49" y="111"/>
      <point x="49" y="0" type="curve"/>
      <point x="233" y="0"/>
      <point x="290" y="176"/>
      <point x="248" y="386" type="curve"/>
      <point x="224" y="504"/>
      <point x="228" y="615"/>
      <point x="295" y="615" type="curve"/>
      <point x="329" y="615"/>
      <point x="349" y="600"/>
      <point x="377" y="580" type="curve"/>
      <point x="449" y="660"/>
      <point x="377" y="580"/>
    </contour>
  </outline>
</glyph>
<glyph name="currency" format="1">
  <advance width="663"/>
  <unicode hex="00A4"/>
  <outline>
    <contour>
      <point x="267" y="317" type="curve"/>
      <point x="267" y="363"/>
      <point x="285" y="400"/>
      <point x="328" y="400" type="curve"/>
      <point x="375" y="400"/>
      <point x="393" y="367"/>
      <point x="393" y="317" type="curve"/>
      <point x="393" y="269"/>
      <point x="378" y="228"/>
      <point x="333" y="228" type="curve"/>
      <point x="285" y="228"/>
      <point x="267" y="266"/>
      <point x="267" y="317" type="curve"/>
      <point x="122" y="317"/>
      <point x="273" y="317"/>
      <point x="128" y="317" type="curve"/>
      <point x="128" y="192"/>
      <point x="208" y="117"/>
      <point x="332" y="117" type="curve"/>
      <point x="457" y="117"/>
      <point x="535" y="196"/>
      <point x="535" y="320" type="curve"/>
      <point x="535" y="438"/>
      <point x="460" y="510"/>
      <point x="340" y="510" type="curve"/>
      <point x="213" y="510"/>
      <point x="128" y="439"/>
      <point x="128" y="317" type="curve"/>
      <point x="273" y="317"/>
      <point x="122" y="317"/>
    </contour>
    <contour>
      <point x="443" y="326" type="line"/>
      <point x="607" y="476" type="line"/>
      <point x="501" y="582" type="line"/>
      <point x="351" y="418" type="line"/>
    </contour>
    <contour>
      <point x="355" y="217" type="line"/>
      <point x="506" y="54" type="line"/>
      <point x="612" y="160" type="line"/>
      <point x="448" y="310" type="line"/>
    </contour>
    <contour>
      <point x="216" y="310" type="line"/>
      <point x="51" y="160" type="line"/>
      <point x="158" y="54" type="line"/>
      <point x="308" y="217" type="line"/>
    </contour>
    <contour>
      <point x="313" y="419" type="line"/>
      <point x="164" y="584" type="line"/>
      <point x="57" y="478" type="line"/>
      <point x="222" y="327" type="line"/>
    </contour>
  </outline>
</glyph>
<glyph name="yen" format="1">
  <advance width="683"/>
  <unicode hex="00A5"/>
  <outline>
    <contour>
      <point x="535" y="428" type="curve"/>
      <point x="472" y="428"/>
      <point x="409" y="428"/>
      <point x="346" y="428" type="curve"/>
      <point x="346" y="306"/>
      <point x="346" y="428"/>
      <point x="346" y="306" type="curve"/>
      <point x="409" y="306"/>
      <point x="472" y="306"/>
      <point x="535" y="306" type="curve"/>
      <point x="535" y="428"/>
      <point x="535" y="306"/>
    </contour>
    <contour>
      <point x="320" y="428" type="curve"/>
      <point x="258" y="428"/>
      <point x="196" y="428"/>
      <point x="135" y="428" type="curve"/>
      <point x="135" y="306"/>
      <point x="135" y="428"/>
      <point x="135" y="306" type="curve"/>
      <point x="196" y="306"/>
      <point x="258" y="306"/>
      <point x="320" y="306" type="curve"/>
      <point x="320" y="428"/>
      <point x="320" y="306"/>
    </contour>
    <contour>
      <point x="535" y="277" type="curve"/>
      <point x="402" y="277"/>
      <point x="268" y="277"/>
      <point x="135" y="277" type="curve"/>
      <point x="135" y="156"/>
      <point x="135" y="277"/>
      <point x="135" y="156" type="curve"/>
      <point x="268" y="156"/>
      <point x="402" y="156"/>
      <point x="535" y="156" type="curve"/>
      <point x="535" y="277"/>
      <point x="535" y="156"/>
    </contour>
    <contour>
      <point x="333" y="110" type="curve"/>
      <point x="189" y="110"/>
      <point x="333" y="110"/>
      <point x="189" y="110" type="curve"/>
      <point x="189" y="0"/>
      <point x="189" y="110"/>
      <point x="189" y="0" type="curve"/>
      <point x="237" y="0"/>
      <point x="285" y="0"/>
      <point x="333" y="0" type="curve"/>
      <point x="333" y="110"/>
      <point x="333" y="0"/>
    </contour>
    <contour>
      <point x="333" y="0" type="curve"/>
      <point x="382" y="0"/>
      <point x="429" y="0"/>
      <point x="477" y="0" type="curve"/>
      <point x="477" y="110"/>
      <point x="477" y="0"/>
      <point x="477" y="110" type="curve"/>
      <point x="333" y="110"/>
      <point x="478" y="110"/>
      <point x="333" y="110" type="curve"/>
      <point x="333" y="0"/>
      <point x="333" y="110"/>
    </contour>
    <contour>
      <point x="514" y="722" type="curve"/>
      <point x="468" y="722"/>
      <point x="422" y="722"/>
      <point x="377" y="722" type="curve"/>
      <point x="377" y="612"/>
      <point x="377" y="722"/>
      <point x="377" y="612" type="curve"/>
      <point x="514" y="612"/>
      <point x="377" y="612"/>
      <point x="514" y="612" type="curve"/>
      <point x="514" y="722"/>
      <point x="514" y="612"/>
    </contour>
    <contour>
      <point x="149" y="722" type="curve"/>
      <point x="112" y="722"/>
      <point x="74" y="722"/>
      <point x="37" y="722" type="curve"/>
      <point x="36" y="612"/>
      <point x="37" y="722"/>
      <point x="36" y="612" type="curve"/>
      <point x="150" y="612"/>
      <point x="36" y="612"/>
      <point x="149" y="612" type="curve"/>
      <point x="149" y="722"/>
      <point x="149" y="612"/>
    </contour>
    <contour>
      <point x="163" y="612" type="curve"/>
      <point x="300" y="612"/>
      <point x="163" y="612"/>
      <point x="300" y="612" type="curve"/>
      <point x="300" y="722"/>
      <point x="300" y="612"/>
      <point x="300" y="722" type="curve"/>
      <point x="255" y="722"/>
      <point x="209" y="722"/>
      <point x="163" y="722" type="curve"/>
      <point x="163" y="612"/>
      <point x="163" y="722"/>
    </contour>
    <contour>
      <point x="528" y="612" type="curve"/>
      <point x="645" y="612"/>
      <point x="528" y="612"/>
      <point x="645" y="612" type="curve"/>
      <point x="645" y="722"/>
      <point x="645" y="612"/>
      <point x="645" y="722" type="curve"/>
      <point x="607" y="722"/>
      <point x="567" y="722"/>
      <point x="528" y="722" type="curve"/>
      <point x="528" y="612"/>
      <point x="528" y="722"/>
    </contour>
    <contour>
      <point x="58" y="711" type="curve"/>
      <point x="125" y="587"/>
      <point x="190" y="464"/>
      <point x="256" y="337" type="curve"/>
      <point x="402" y="337"/>
      <point x="240" y="337"/>
      <point x="387" y="337" type="curve"/>
      <point x="324" y="469"/>
      <point x="263" y="592"/>
      <point x="197" y="722" type="curve"/>
      <point x="58" y="722"/>
      <point x="197" y="711"/>
    </contour>
    <contour>
      <point x="482" y="722" type="curve"/>
      <point x="410" y="590"/>
      <point x="345" y="468"/>
      <point x="273" y="337" type="curve"/>
      <point x="419" y="337"/>
      <point x="264" y="337"/>
      <point x="410" y="337" type="curve"/>
      <point x="481" y="464"/>
      <point x="549" y="587"/>
      <point x="620" y="712" type="curve"/>
      <point x="482" y="712"/>
      <point x="620" y="722"/>
    </contour>
    <contour>
      <point x="412" y="0" type="curve"/>
      <point x="412" y="115"/>
      <point x="412" y="224"/>
      <point x="412" y="339" type="curve"/>
      <point x="254" y="339"/>
      <point x="412" y="339"/>
      <point x="254" y="339" type="curve"/>
      <point x="254" y="224"/>
      <point x="254" y="115"/>
      <point x="254" y="0" type="curve"/>
      <point x="412" y="0"/>
      <point x="254" y="0"/>
    </contour>
  </outline>
</glyph>
<glyph name="section" format="1">
  <advance width="538"/>
  <unicode hex="00A7"/>
  <outline>
    <contour>
      <point x="429" y="699" type="curve"/>
      <point x="375" y="733"/>
      <point x="335" y="748"/>
      <point x="274" y="748" type="curve"/>
      <point x="160" y="748"/>
      <point x="81" y="695"/>
      <point x="81" y="594" type="curve"/>
      <point x="81" y="505"/>
      <point x="137" y="456"/>
      <point x="223" y="426" type="curve"/>
      <point x="278" y="407"/>
      <point x="344" y="403"/>
      <point x="344" y="359" type="curve"/>
      <point x="344" y="312"/>
      <point x="308" y="291"/>
      <point x="258" y="282" type="curve"/>
      <point x="344" y="193"/>
      <point x="258" y="282"/>
      <point x="344" y="193" type="curve"/>
      <point x="435" y="215"/>
      <point x="489" y="270"/>
      <point x="489" y="361" type="curve"/>
      <point x="488" y="465"/>
      <point x="400" y="498"/>
      <point x="295" y="530" type="curve"/>
      <point x="258" y="544"/>
      <point x="220" y="557"/>
      <point x="220" y="594" type="curve"/>
      <point x="220" y="620"/>
      <point x="240" y="638"/>
      <point x="271" y="638" type="curve"/>
      <point x="310" y="638"/>
      <point x="330" y="628"/>
      <point x="365" y="610" type="curve"/>
      <point x="429" y="699"/>
      <point x="365" y="610"/>
    </contour>
    <contour>
      <point x="194" y="528" type="curve"/>
      <point x="108" y="501"/>
      <point x="50" y="454"/>
      <point x="50" y="366" type="curve"/>
      <point x="50" y="267"/>
      <point x="124" y="226"/>
      <point x="222" y="194" type="curve"/>
      <point x="268" y="178"/>
      <point x="321" y="172"/>
      <point x="321" y="131" type="curve"/>
      <point x="321" y="102"/>
      <point x="299" y="84"/>
      <point x="269" y="84" type="curve"/>
      <point x="227" y="84"/>
      <point x="202" y="97"/>
      <point x="162" y="121" type="curve"/>
      <point x="88" y="40"/>
      <point x="162" y="121"/>
      <point x="88" y="40" type="curve"/>
      <point x="145" y="-8"/>
      <point x="195" y="-26"/>
      <point x="266" y="-26" type="curve"/>
      <point x="379" y="-26"/>
      <point x="463" y="25"/>
      <point x="463" y="133" type="curve"/>
      <point x="462" y="223"/>
      <point x="403" y="271"/>
      <point x="314" y="299" type="curve"/>
      <point x="259" y="317"/>
      <point x="196" y="322"/>
      <point x="196" y="369" type="curve"/>
      <point x="196" y="410"/>
      <point x="224" y="432"/>
      <point x="266" y="445" type="curve"/>
      <point x="194" y="528"/>
      <point x="266" y="445"/>
    </contour>
    <contour>
      <point x="200" y="40" type="curve"/>
      <point x="200" y="160"/>
      <point x="200" y="39"/>
      <point x="200" y="159" type="curve"/>
      <point x="88" y="159"/>
      <point x="200" y="159"/>
      <point x="88" y="159" type="curve"/>
      <point x="88" y="39"/>
      <point x="88" y="160"/>
      <point x="88" y="40" type="curve"/>
      <point x="200" y="40"/>
      <point x="88" y="40"/>
    </contour>
    <contour>
      <point x="429" y="580" type="curve"/>
      <point x="429" y="700"/>
      <point x="429" y="579"/>
      <point x="429" y="699" type="curve"/>
      <point x="316" y="699"/>
      <point x="429" y="699"/>
      <point x="316" y="699" type="curve"/>
      <point x="316" y="579"/>
      <point x="316" y="700"/>
      <point x="316" y="580" type="curve"/>
      <point x="429" y="580"/>
      <point x="316" y="580"/>
    </contour>
  </outline>
</glyph>
<glyph name="dieresis" format="1">
  <advance width="402"/>
  <unicode hex="00A8"/>
  <outline>
    <contour>
      <point x="206" y="578" type="move" name="_top"/>
    </contour>
    <contour>
      <point x="180" y="644" type="curve"/>
      <point x="180" y="692"/>
      <point x="148" y="715"/>
      <point x="101" y="715" type="curve"/>
      <point x="55" y="715"/>
      <point x="25" y="690"/>
      <point x="25" y="644" type="curve"/>
      <point x="180" y="644"/>
      <point x="25" y="644"/>
      <point x="180" y="644" type="curve"/>
      <point x="180" y="594"/>
      <point x="149" y="573"/>
      <point x="101" y="573" type="curve"/>
      <point x="55" y="573"/>
      <point x="25" y="596"/>
      <point x="25" y="644" type="curve"/>
      <point x="180" y="644"/>
      <point x="25" y="644"/>
    </contour>
    <contour>
      <point x="389" y="644" type="curve"/>
      <point x="389" y="692"/>
      <point x="357" y="715"/>
      <point x="310" y="715" type="curve"/>
      <point x="264" y="715"/>
      <point x="232" y="690"/>
      <point x="232" y="644" type="curve"/>
      <point x="389" y="644"/>
      <point x="233" y="644"/>
      <point x="389" y="644" type="curve"/>
      <point x="389" y="594"/>
      <point x="357" y="573"/>
      <point x="309" y="573" type="curve"/>
      <point x="264" y="573"/>
      <point x="232" y="596"/>
      <point x="232" y="644" type="curve"/>
      <point x="389" y="644"/>
      <point x="233" y="644"/>
    </contour>
  </outline>
</glyph>
<glyph name="copyright" format="1">
  <advance width="764"/>
  <unicode hex="00A9"/>
  <outline>
    <contour>
      <point x="168" y="324" type="curve"/>
      <point x="168" y="462"/>
      <point x="253" y="556"/>
      <point x="386" y="556" type="curve"/>
      <point x="517" y="556"/>
      <point x="598" y="459"/>
      <point x="598" y="322" type="curve"/>
      <point x="598" y="190"/>
      <point x="520" y="94"/>
      <point x="393" y="94" type="curve"/>
      <point x="259" y="94"/>
      <point x="168" y="187"/>
      <point x="168" y="324" type="curve"/>
      <point x="51" y="324"/>
      <point x="170" y="324"/>
      <point x="53" y="324" type="curve"/>
      <point x="53" y="131"/>
      <point x="192" y="6"/>
      <point x="388" y="6" type="curve"/>
      <point x="580" y="6"/>
      <point x="711" y="134"/>
      <point x="711" y="326" type="curve"/>
      <point x="711" y="518"/>
      <point x="578" y="645"/>
      <point x="386" y="645" type="curve"/>
      <point x="191" y="645"/>
      <point x="53" y="519"/>
      <point x="53" y="324" type="curve"/>
      <point x="170" y="324"/>
      <point x="51" y="324"/>
    </contour>
    <contour>
      <point x="428" y="416" type="curve"/>
      <point x="428" y="405"/>
      <point x="428" y="385"/>
      <point x="428" y="371" type="curve"/>
      <point x="533" y="371"/>
      <point x="428" y="371"/>
      <point x="534" y="371" type="curve"/>
      <point x="534" y="402"/>
      <point x="534" y="440"/>
      <point x="534" y="464" type="curve"/>
      <point x="428" y="419"/>
      <point x="533" y="462"/>
    </contour>
    <contour>
      <point x="534" y="464" type="curve"/>
      <point x="494" y="500"/>
      <point x="448" y="514"/>
      <point x="392" y="514" type="curve"/>
      <point x="273" y="514"/>
      <point x="203" y="442"/>
      <point x="203" y="323" type="curve"/>
      <point x="203" y="209"/>
      <point x="265" y="138"/>
      <point x="376" y="138" type="curve"/>
      <point x="439" y="138"/>
      <point x="484" y="148"/>
      <point x="532" y="201" type="curve"/>
      <point x="465" y="257"/>
      <point x="532" y="201"/>
      <point x="465" y="257" type="curve"/>
      <point x="434" y="237"/>
      <point x="414" y="227"/>
      <point x="382" y="227" type="curve"/>
      <point x="330" y="227"/>
      <point x="312" y="270"/>
      <point x="312" y="327" type="curve"/>
      <point x="312" y="385"/>
      <point x="334" y="425"/>
      <point x="387" y="425" type="curve"/>
      <point x="404" y="425"/>
      <point x="418" y="422"/>
      <point x="428" y="416" type="curve"/>
      <point x="533" y="462"/>
      <point x="428" y="419"/>
    </contour>
  </outline>
</glyph>
<glyph name="ordfeminine" format="1">
  <advance width="436"/>
  <unicode hex="00AA"/>
  <outline>
    <contour>
      <point x="66" y="725" type="curve"/>
      <point x="66" y="652"/>
      <point x="66" y="723"/>
      <point x="66" y="650" type="curve"/>
      <point x="140" y="650"/>
      <point x="66" y="650"/>
      <point x="140" y="650" type="curve"/>
      <point x="140" y="723"/>
      <point x="140" y="652"/>
      <point x="140" y="725" type="curve"/>
      <point x="66" y="725"/>
      <point x="140" y="725"/>
    </contour>
    <contour>
      <point x="347" y="425" type="curve"/>
      <point x="347" y="505"/>
      <point x="347" y="584"/>
      <point x="347" y="664" type="curve"/>
      <point x="347" y="746"/>
      <point x="286" y="775"/>
      <point x="204" y="775" type="curve"/>
      <point x="142" y="775"/>
      <point x="98" y="754"/>
      <point x="66" y="725" type="curve"/>
      <point x="102" y="664"/>
      <point x="68" y="724"/>
      <point x="103" y="663" type="curve"/>
      <point x="123" y="682"/>
      <point x="150" y="700"/>
      <point x="190" y="700" type="curve"/>
      <point x="226" y="700"/>
      <point x="251" y="687"/>
      <point x="251" y="651" type="curve"/>
      <point x="251" y="575"/>
      <point x="251" y="500"/>
      <point x="251" y="425" type="curve"/>
      <point x="347" y="425"/>
      <point x="252" y="425"/>
    </contour>
    <contour>
      <point x="301" y="425" type="curve"/>
      <point x="329" y="425"/>
      <point x="357" y="425"/>
      <point x="386" y="425" type="curve"/>
      <point x="386" y="497"/>
      <point x="386" y="425"/>
      <point x="386" y="497" type="curve"/>
      <point x="301" y="497"/>
      <point x="385" y="497"/>
      <point x="301" y="497" type="curve"/>
      <point x="301" y="425"/>
      <point x="301" y="497"/>
    </contour>
    <contour>
      <point x="297" y="652" type="curve"/>
      <point x="251" y="647"/>
      <point x="224" y="645"/>
      <point x="179" y="639" type="curve"/>
      <point x="101" y="629"/>
      <point x="46" y="604"/>
      <point x="46" y="532" type="curve"/>
      <point x="46" y="458"/>
      <point x="92" y="421"/>
      <point x="166" y="421" type="curve"/>
      <point x="242" y="421"/>
      <point x="273" y="472"/>
      <point x="322" y="525" type="curve"/>
      <point x="275" y="563"/>
      <point x="321" y="524"/>
      <point x="275" y="563" type="curve"/>
      <point x="250" y="524"/>
      <point x="230" y="493"/>
      <point x="187" y="493" type="curve"/>
      <point x="156" y="493"/>
      <point x="138" y="506"/>
      <point x="138" y="535" type="curve"/>
      <point x="138" y="558"/>
      <point x="158" y="571"/>
      <point x="180" y="574" type="curve"/>
      <point x="229" y="580"/>
      <point x="252" y="583"/>
      <point x="301" y="590" type="curve"/>
      <point x="297" y="651"/>
      <point x="301" y="591"/>
    </contour>
  </outline>
</glyph>
<glyph name="guillemotleft" format="1">
  <advance width="518"/>
  <unicode hex="00AB"/>
  <outline>
    <contour>
      <point x="234" y="485" type="curve"/>
      <point x="185" y="451"/>
      <point x="96" y="389"/>
      <point x="46" y="355" type="curve"/>
      <point x="46" y="234"/>
      <point x="46" y="341"/>
      <point x="46" y="219" type="curve"/>
      <point x="96" y="253"/>
      <point x="185" y="323"/>
      <point x="234" y="357" type="curve"/>
      <point x="234" y="478"/>
      <point x="234" y="364"/>
    </contour>
    <contour>
      <point x="234" y="219" type="curve"/>
      <point x="185" y="253"/>
      <point x="96" y="320"/>
      <point x="46" y="355" type="curve"/>
      <point x="46" y="234"/>
      <point x="46" y="341"/>
      <point x="46" y="219" type="curve"/>
      <point x="96" y="185"/>
      <point x="185" y="125"/>
      <point x="234" y="91" type="curve"/>
      <point x="234" y="212"/>
      <point x="234" y="98"/>
    </contour>
    <contour>
      <point x="449" y="485" type="curve"/>
      <point x="400" y="451"/>
      <point x="310" y="389"/>
      <point x="260" y="355" type="curve"/>
      <point x="260" y="234"/>
      <point x="260" y="341"/>
      <point x="260" y="219" type="curve"/>
      <point x="310" y="253"/>
      <point x="400" y="323"/>
      <point x="449" y="357" type="curve"/>
      <point x="449" y="478"/>
      <point x="449" y="364"/>
    </contour>
    <contour>
      <point x="449" y="219" type="curve"/>
      <point x="400" y="253"/>
      <point x="310" y="320"/>
      <point x="260" y="355" type="curve"/>
      <point x="260" y="234"/>
      <point x="260" y="341"/>
      <point x="260" y="219" type="curve"/>
      <point x="310" y="185"/>
      <point x="400" y="125"/>
      <point x="449" y="91" type="curve"/>
      <point x="449" y="212"/>
      <point x="449" y="98"/>
    </contour>
  </outline>
</glyph>
<glyph name="logicalnot" format="1">
  <advance width="593"/>
  <unicode hex="00AC"/>
  <outline>
    <contour>
      <point x="73" y="254" type="curve"/>
      <point x="524" y="254" type="line"/>
      <point x="524" y="375"/>
      <point x="524" y="254"/>
      <point x="524" y="375" type="curve"/>
      <point x="73" y="375" type="line"/>
      <point x="73" y="254"/>
      <point x="73" y="375"/>
    </contour>
    <contour>
      <point x="524" y="138" type="curve"/>
      <point x="524" y="375" type="line"/>
      <point x="379" y="375"/>
      <point x="527" y="375"/>
      <point x="383" y="375" type="curve"/>
      <point x="383" y="138" type="line"/>
      <point x="527" y="138"/>
      <point x="379" y="138"/>
    </contour>
  </outline>
</glyph>
<glyph name="macron" format="1">
  <advance width="277"/>
  <unicode hex="00AF"/>
  <outline>
    <contour>
      <point x="136" y="567" type="move" name="_top"/>
    </contour>
    <contour>
      <point x="236" y="677" type="curve"/>
      <point x="169" y="677"/>
      <point x="101" y="677"/>
      <point x="34" y="677" type="curve"/>
      <point x="34" y="567"/>
      <point x="34" y="677"/>
      <point x="34" y="567" type="curve"/>
      <point x="101" y="567"/>
      <point x="169" y="567"/>
      <point x="236" y="567" type="curve"/>
      <point x="236" y="677"/>
      <point x="236" y="567"/>
    </contour>
  </outline>
</glyph>
<glyph name="degree" format="1">
  <advance width="486"/>
  <unicode hex="00B0"/>
  <outline>
    <contour>
      <point x="433" y="585" type="curve"/>
      <point x="433" y="698"/>
      <point x="357" y="765"/>
      <point x="242" y="765" type="curve"/>
      <point x="128" y="765"/>
      <point x="53" y="698"/>
      <point x="53" y="585" type="curve"/>
      <point x="121" y="585"/>
      <point x="105" y="585"/>
      <point x="173" y="585" type="curve"/>
      <point x="173" y="631"/>
      <point x="196" y="663"/>
      <point x="241" y="663" type="curve"/>
      <point x="284" y="663"/>
      <point x="309" y="632"/>
      <point x="309" y="585" type="curve"/>
      <point x="309" y="538"/>
      <point x="288" y="505"/>
      <point x="243" y="505" type="curve"/>
      <point x="197" y="505"/>
      <point x="173" y="538"/>
      <point x="173" y="585" type="curve"/>
      <point x="105" y="585"/>
      <point x="121" y="585"/>
      <point x="53" y="585" type="curve"/>
      <point x="53" y="471"/>
      <point x="127" y="401"/>
      <point x="241" y="401" type="curve"/>
      <point x="358" y="401"/>
      <point x="433" y="471"/>
    </contour>
  </outline>
</glyph>
<glyph name="plusminus" format="1">
  <advance width="668"/>
  <unicode hex="00B1"/>
  <outline>
    <contour>
      <point x="57" y="46" type="line"/>
      <point x="612" y="46" type="line"/>
      <point x="612" y="167" type="line"/>
      <point x="57" y="167" type="line"/>
    </contour>
    <contour>
      <point x="57" y="254" type="curve"/>
      <point x="612" y="254" type="line"/>
      <point x="612" y="375"/>
      <point x="612" y="254"/>
      <point x="612" y="375" type="curve"/>
      <point x="57" y="375" type="line"/>
      <point x="57" y="254"/>
      <point x="57" y="375"/>
    </contour>
    <contour>
      <point x="404" y="46" type="curve"/>
      <point x="404" y="581" type="line"/>
      <point x="258" y="581"/>
      <point x="414" y="581"/>
      <point x="268" y="581" type="curve"/>
      <point x="268" y="46" type="line"/>
      <point x="414" y="46"/>
      <point x="258" y="46"/>
    </contour>
  </outline>
</glyph>
<glyph name="twosuperior" format="1">
  <advance width="463"/>
  <unicode hex="00B2"/>
  <outline>
    <contour>
      <point x="235" y="796" type="move" name="_top"/>
    </contour>
    <contour>
      <point x="235" y="358" type="move" name="_bottom"/>
    </contour>
    <contour>
      <point x="415" y="358" type="curve"/>
      <point x="415" y="405"/>
      <point x="415" y="453"/>
      <point x="415" y="500" type="curve"/>
      <point x="310" y="500"/>
      <point x="429" y="500"/>
      <point x="323" y="500" type="curve"/>
      <point x="323" y="484"/>
      <point x="323" y="468"/>
      <point x="323" y="452" type="curve"/>
      <point x="433" y="362"/>
      <point x="306" y="448"/>
    </contour>
    <contour>
      <point x="61" y="358" type="curve"/>
      <point x="189" y="358"/>
      <point x="315" y="358"/>
      <point x="415" y="358" type="curve"/>
      <point x="306" y="448"/>
      <point x="433" y="362"/>
      <point x="323" y="452" type="curve"/>
      <point x="241" y="452"/>
      <point x="143" y="452"/>
      <point x="61" y="452" type="curve"/>
      <point x="61" y="358"/>
      <point x="61" y="452"/>
    </contour>
    <contour>
      <point x="161" y="650" type="curve"/>
      <point x="177" y="679"/>
      <point x="194" y="702"/>
      <point x="226" y="702" type="curve"/>
      <point x="258" y="702"/>
      <point x="275" y="682"/>
      <point x="275" y="652" type="curve"/>
      <point x="275" y="618"/>
      <point x="252" y="601"/>
      <point x="227" y="579" type="curve"/>
      <point x="171" y="536"/>
      <point x="116" y="494"/>
      <point x="61" y="452" type="curve"/>
      <point x="62" y="359"/>
      <point x="62" y="452"/>
      <point x="63" y="359" type="curve"/>
      <point x="147" y="411"/>
      <point x="239" y="457"/>
      <point x="300" y="505" type="curve"/>
      <point x="354" y="552"/>
      <point x="396" y="587"/>
      <point x="396" y="656" type="curve"/>
      <point x="396" y="747"/>
      <point x="329" y="795"/>
      <point x="235" y="795" type="curve"/>
      <point x="160" y="795"/>
      <point x="104" y="770"/>
      <point x="75" y="690" type="curve"/>
      <point x="161" y="650"/>
      <point x="75" y="690"/>
    </contour>
  </outline>
</glyph>
<glyph name="threesuperior" format="1">
  <advance width="418"/>
  <unicode hex="00B3"/>
  <outline>
    <contour>
      <point x="200" y="792" type="move" name="_top"/>
    </contour>
    <contour>
      <point x="197" y="351" type="move" name="_bottom"/>
    </contour>
    <contour>
      <point x="115" y="668" type="curve"/>
      <point x="135" y="686"/>
      <point x="156" y="699"/>
      <point x="178" y="699" type="curve"/>
      <point x="208" y="699"/>
      <point x="227" y="684"/>
      <point x="227" y="658" type="curve"/>
      <point x="227" y="625"/>
      <point x="185" y="617"/>
      <point x="142" y="615" type="curve"/>
      <point x="142" y="535"/>
      <point x="142" y="615"/>
      <point x="142" y="535" type="curve"/>
      <point x="256" y="538"/>
      <point x="351" y="566"/>
      <point x="351" y="666" type="curve"/>
      <point x="351" y="753"/>
      <point x="284" y="792"/>
      <point x="191" y="792" type="curve"/>
      <point x="135" y="792"/>
      <point x="85" y="770"/>
      <point x="49" y="732" type="curve"/>
      <point x="115" y="668"/>
      <point x="49" y="732"/>
    </contour>
    <contour>
      <point x="49" y="387" type="curve"/>
      <point x="88" y="365"/>
      <point x="125" y="350"/>
      <point x="170" y="350" type="curve"/>
      <point x="284" y="349"/>
      <point x="367" y="387"/>
      <point x="365" y="488" type="curve"/>
      <point x="365" y="591"/>
      <point x="260" y="602"/>
      <point x="142" y="605" type="curve"/>
      <point x="142" y="535"/>
      <point x="142" y="605"/>
      <point x="142" y="535" type="curve"/>
      <point x="195" y="533"/>
      <point x="240" y="521"/>
      <point x="240" y="485" type="curve"/>
      <point x="240" y="455"/>
      <point x="216" y="441"/>
      <point x="182" y="442" type="curve"/>
      <point x="157" y="442"/>
      <point x="133" y="446"/>
      <point x="106" y="460" type="curve"/>
      <point x="49" y="387"/>
      <point x="106" y="460"/>
    </contour>
  </outline>
</glyph>
<glyph name="acute" format="1">
  <advance width="500"/>
  <unicode hex="00B4"/>
  <outline>
    <contour>
      <point x="131" y="591" type="move" name="_top"/>
    </contour>
    <contour>
      <point x="194" y="590" type="line"/>
      <point x="335" y="756" type="line"/>
      <point x="154" y="756" type="line"/>
      <point x="54" y="590" type="line"/>
    </contour>
  </outline>
</glyph>
<glyph name="paragraph" format="1">
  <advance width="805"/>
  <unicode hex="00B6"/>
  <outline>
    <contour>
      <point x="433" y="612" type="curve"/>
      <point x="585" y="612"/>
      <point x="433" y="612"/>
      <point x="585" y="612" type="curve"/>
      <point x="585" y="722"/>
      <point x="585" y="612"/>
      <point x="585" y="722" type="curve"/>
      <point x="534" y="722"/>
      <point x="483" y="722"/>
      <point x="433" y="722" type="curve"/>
      <point x="433" y="612"/>
      <point x="433" y="722"/>
    </contour>
    <contour>
      <point x="433" y="0" type="curve"/>
      <point x="483" y="0"/>
      <point x="534" y="0"/>
      <point x="585" y="0" type="curve"/>
      <point x="585" y="110"/>
      <point x="585" y="0"/>
      <point x="585" y="110" type="curve"/>
      <point x="433" y="110"/>
      <point x="585" y="110"/>
      <point x="433" y="110" type="curve"/>
      <point x="433" y="0"/>
      <point x="433" y="110"/>
    </contour>
    <contour>
      <point x="433" y="110" type="curve"/>
      <point x="280" y="110"/>
      <point x="433" y="110"/>
      <point x="280" y="110" type="curve"/>
      <point x="280" y="0"/>
      <point x="280" y="110"/>
      <point x="280" y="0" type="curve"/>
      <point x="433" y="0"/>
      <point x="382" y="0"/>
      <point x="433" y="0" type="curve"/>
      <point x="433" y="110"/>
      <point x="433" y="0"/>
    </contour>
    <contour>
      <point x="408" y="389" type="curve"/>
      <point x="366" y="368"/>
      <point x="334" y="357"/>
      <point x="286" y="357" type="curve"/>
      <point x="219" y="357"/>
      <point x="182" y="403"/>
      <point x="182" y="473" type="curve"/>
      <point x="182" y="560"/>
      <point x="239" y="612"/>
      <point x="327" y="612" type="curve"/>
      <point x="362" y="612"/>
      <point x="396" y="612"/>
      <point x="430" y="612" type="curve"/>
      <point x="430" y="722"/>
      <point x="430" y="612"/>
      <point x="430" y="722" type="curve"/>
      <point x="389" y="722"/>
      <point x="348" y="722"/>
      <point x="307" y="722" type="curve"/>
      <point x="149" y="722"/>
      <point x="36" y="633"/>
      <point x="36" y="479" type="curve"/>
      <point x="36" y="331"/>
      <point x="145" y="253"/>
      <point x="300" y="250" type="curve"/>
      <point x="357" y="250"/>
      <point x="404" y="271"/>
      <point x="454" y="296" type="curve"/>
      <point x="408" y="389"/>
      <point x="453" y="298"/>
    </contour>
    <contour>
      <point x="507" y="0" type="curve"/>
      <point x="507" y="241"/>
      <point x="507" y="481"/>
      <point x="507" y="722" type="curve"/>
      <point x="361" y="722"/>
      <point x="507" y="722"/>
      <point x="361" y="722" type="curve"/>
      <point x="361" y="481"/>
      <point x="361" y="241"/>
      <point x="361" y="0" type="curve"/>
      <point x="507" y="0"/>
      <point x="361" y="0"/>
    </contour>
    <contour>
      <point x="725" y="0" type="curve"/>
      <point x="725" y="241"/>
      <point x="725" y="481"/>
      <point x="725" y="722" type="curve"/>
      <point x="580" y="722"/>
      <point x="725" y="722"/>
      <point x="580" y="722" type="curve"/>
      <point x="580" y="481"/>
      <point x="580" y="241"/>
      <point x="580" y="0" type="curve"/>
      <point x="725" y="0"/>
      <point x="580" y="0"/>
    </contour>
  </outline>
</glyph>
<glyph name="cedilla" format="1">
  <advance width="383"/>
  <unicode hex="00B8"/>
  <outline>
    <contour>
      <point x="244" y="90" type="move" name="_bottom"/>
    </contour>
    <contour>
      <point x="145" y="168" type="curve"/>
      <point x="133" y="147"/>
      <point x="83" y="49"/>
      <point x="71" y="27" type="curve"/>
      <point x="170" y="-61"/>
      <point x="71" y="27"/>
      <point x="170" y="-61" type="curve"/>
      <point x="185" y="-35"/>
      <point x="244" y="64"/>
      <point x="257" y="90" type="curve"/>
      <point x="145" y="168"/>
      <point x="257" y="90"/>
    </contour>
    <contour>
      <point x="170" y="-61" type="curve"/>
      <point x="176" y="-57"/>
      <point x="180" y="-54"/>
      <point x="185" y="-54" type="curve"/>
      <point x="192" y="-54"/>
      <point x="199" y="-57"/>
      <point x="199" y="-66" type="curve"/>
      <point x="199" y="-79"/>
      <point x="184" y="-83"/>
      <point x="170" y="-83" type="curve"/>
      <point x="150" y="-83"/>
      <point x="133" y="-78"/>
      <point x="111" y="-67" type="curve"/>
      <point x="61" y="-148"/>
      <point x="111" y="-67"/>
      <point x="61" y="-148" type="curve"/>
      <point x="94" y="-168"/>
      <point x="124" y="-176"/>
      <point x="163" y="-176" type="curve"/>
      <point x="243" y="-176"/>
      <point x="300" y="-141"/>
      <point x="300" y="-63" type="curve"/>
      <point x="300" y="9"/>
      <point x="251" y="51"/>
      <point x="176" y="51" type="curve"/>
      <point x="137" y="51"/>
      <point x="108" y="45"/>
      <point x="71" y="27" type="curve"/>
      <point x="170" y="-61"/>
      <point x="71" y="27"/>
    </contour>
  </outline>
</glyph>
<glyph name="onesuperior" format="1">
  <advance width="369"/>
  <unicode hex="00B9"/>
  <outline>
    <contour>
      <point x="191" y="785" type="move" name="_top"/>
    </contour>
    <contour>
      <point x="204" y="358" type="move" name="_bottom"/>
    </contour>
    <contour>
      <point x="141" y="358" type="curve"/>
      <point x="195" y="358"/>
      <point x="262" y="358"/>
      <point x="314" y="358" type="curve"/>
      <point x="314" y="453"/>
      <point x="314" y="356"/>
      <point x="314" y="451" type="curve"/>
      <point x="303" y="451"/>
      <point x="277" y="451"/>
      <point x="265" y="451" type="curve"/>
      <point x="141" y="356"/>
      <point x="265" y="453"/>
    </contour>
    <contour>
      <point x="265" y="451" type="curve"/>
      <point x="211" y="451"/>
      <point x="144" y="451"/>
      <point x="89" y="451" type="curve"/>
      <point x="89" y="356"/>
      <point x="89" y="453"/>
      <point x="89" y="358" type="curve"/>
      <point x="102" y="358"/>
      <point x="128" y="358"/>
      <point x="141" y="358" type="curve"/>
      <point x="265" y="453"/>
      <point x="141" y="356"/>
    </contour>
    <contour>
      <point x="101" y="624" type="line"/>
      <point x="265" y="785" type="line"/>
      <point x="141" y="785" type="line"/>
      <point x="37" y="693" type="line"/>
    </contour>
    <contour>
      <point x="265" y="451" type="curve"/>
      <point x="265" y="785" type="line"/>
      <point x="141" y="785" type="line"/>
      <point x="141" y="358" type="line"/>
      <point x="265" y="453"/>
      <point x="141" y="356"/>
    </contour>
  </outline>
</glyph>
<glyph name="ordmasculine" format="1">
  <advance width="426"/>
  <unicode hex="00BA"/>
  <outline>
    <contour>
      <point x="131" y="597" type="curve"/>
      <point x="131" y="653"/>
      <point x="153" y="700"/>
      <point x="209" y="700" type="curve"/>
      <point x="266" y="700"/>
      <point x="290" y="655"/>
      <point x="290" y="596" type="curve"/>
      <point x="290" y="537"/>
      <point x="268" y="495"/>
      <point x="216" y="495" type="curve"/>
      <point x="155" y="495"/>
      <point x="131" y="537"/>
      <point x="131" y="597" type="curve"/>
      <point x="103" y="597"/>
      <point x="71" y="597"/>
      <point x="41" y="597" type="curve"/>
      <point x="41" y="487"/>
      <point x="104" y="420"/>
      <point x="212" y="420" type="curve"/>
      <point x="320" y="420"/>
      <point x="386" y="485"/>
      <point x="386" y="596" type="curve"/>
      <point x="386" y="706"/>
      <point x="322" y="774"/>
      <point x="214" y="774" type="curve"/>
      <point x="103" y="774"/>
      <point x="41" y="706"/>
      <point x="41" y="597" type="curve"/>
      <point x="71" y="597"/>
      <point x="103" y="597"/>
    </contour>
  </outline>
</glyph>
<glyph name="guillemotright" format="1">
  <advance width="518"/>
  <unicode hex="00BB"/>
  <outline>
    <contour>
      <point x="284" y="485" type="curve"/>
      <point x="334" y="451"/>
      <point x="423" y="389"/>
      <point x="474" y="355" type="curve"/>
      <point x="474" y="234"/>
      <point x="474" y="341"/>
      <point x="474" y="219" type="curve"/>
      <point x="423" y="253"/>
      <point x="334" y="323"/>
      <point x="284" y="357" type="curve"/>
      <point x="284" y="478"/>
      <point x="284" y="364"/>
    </contour>
    <contour>
      <point x="284" y="219" type="curve"/>
      <point x="334" y="253"/>
      <point x="423" y="320"/>
      <point x="474" y="355" type="curve"/>
      <point x="474" y="234"/>
      <point x="474" y="341"/>
      <point x="474" y="219" type="curve"/>
      <point x="423" y="185"/>
      <point x="334" y="125"/>
      <point x="284" y="91" type="curve"/>
      <point x="284" y="212"/>
      <point x="284" y="98"/>
    </contour>
    <contour>
      <point x="70" y="485" type="curve"/>
      <point x="120" y="451"/>
      <point x="208" y="389"/>
      <point x="258" y="355" type="curve"/>
      <point x="258" y="234"/>
      <point x="258" y="341"/>
      <point x="258" y="219" type="curve"/>
      <point x="208" y="253"/>
      <point x="120" y="323"/>
      <point x="70" y="357" type="curve"/>
      <point x="70" y="478"/>
      <point x="70" y="364"/>
    </contour>
    <contour>
      <point x="70" y="219" type="curve"/>
      <point x="120" y="253"/>
      <point x="208" y="320"/>
      <point x="258" y="355" type="curve"/>
      <point x="258" y="234"/>
      <point x="258" y="341"/>
      <point x="258" y="219" type="curve"/>
      <point x="208" y="185"/>
      <point x="120" y="125"/>
      <point x="70" y="91" type="curve"/>
      <point x="70" y="212"/>
      <point x="70" y="98"/>
    </contour>
  </outline>
</glyph>
<glyph name="onequarter" format="1">
  <advance width="953"/>
  <unicode hex="00BC"/>
  <outline>
    <contour>
      <point x="350" y="-35" type="line"/>
      <point x="732" y="707" type="line"/>
      <point x="600" y="707" type="line"/>
      <point x="218" y="-35" type="line"/>
    </contour>
    <contour>
      <point x="136" y="280" type="curve"/>
      <point x="189" y="280"/>
      <point x="256" y="280"/>
      <point x="310" y="280" type="curve"/>
      <point x="310" y="374"/>
      <point x="310" y="277"/>
      <point x="310" y="371" type="curve"/>
      <point x="297" y="371"/>
      <point x="272" y="371"/>
      <point x="260" y="371" type="curve"/>
      <point x="136" y="277"/>
      <point x="260" y="374"/>
    </contour>
    <contour>
      <point x="260" y="371" type="curve"/>
      <point x="207" y="371"/>
      <point x="139" y="371"/>
      <point x="84" y="371" type="curve"/>
      <point x="84" y="277"/>
      <point x="84" y="374"/>
      <point x="84" y="280" type="curve"/>
      <point x="97" y="280"/>
      <point x="123" y="280"/>
      <point x="136" y="280" type="curve"/>
      <point x="260" y="374"/>
      <point x="136" y="277"/>
    </contour>
    <contour>
      <point x="96" y="544" type="line"/>
      <point x="260" y="706" type="line"/>
      <point x="136" y="706" type="line"/>
      <point x="32" y="614" type="line"/>
    </contour>
    <contour>
      <point x="260" y="371" type="curve"/>
      <point x="260" y="706" type="line"/>
      <point x="136" y="706" type="line"/>
      <point x="136" y="280" type="line"/>
      <point x="260" y="374"/>
      <point x="136" y="277"/>
    </contour>
    <contour>
      <point x="911" y="177" type="line"/>
      <point x="553" y="177" type="line"/>
      <point x="553" y="84" type="line"/>
      <point x="911" y="84" type="line"/>
    </contour>
    <contour>
      <point x="593" y="93" type="line"/>
      <point x="815" y="391" type="line"/>
      <point x="724" y="408" type="line"/>
      <point x="553" y="177" type="line"/>
    </contour>
    <contour>
      <point x="848" y="-31" type="line"/>
      <point x="848" y="408" type="line"/>
      <point x="724" y="408" type="line"/>
      <point x="724" y="-31" type="line"/>
    </contour>
    <contour>
      <point x="786" y="52" type="line"/>
      <point x="678" y="52" type="line"/>
      <point x="678" y="-32" type="line"/>
      <point x="786" y="-32" type="line"/>
    </contour>
    <contour>
      <point x="786" y="-32" type="line"/>
      <point x="894" y="-32" type="line"/>
      <point x="894" y="52" type="line"/>
      <point x="786" y="52" type="line"/>
    </contour>
  </outline>
</glyph>
